<?xml version="1.0" encoding="utf-8"?><svg viewBox="0 0 32 32" xmlns="http://www.w3.org/2000/svg" xmlns:xlink="http://www.w3.org/1999/xlink"><style>:root>svg{display:none}:root>svg:target{display:block}</style><svg fill="none" viewBox="0 0 24 32" id="location" xmlns="http://www.w3.org/2000/svg"><path d="M12 0A12.016 12.016 0 0 0 0 12c0 8.615 11.18 19.405 11.655 19.86a.495.495 0 0 0 .69 0C12.82 31.405 24 20.615 24 12A12.016 12.016 0 0 0 12 0Zm0 17.5a5.5 5.5 0 1 1 0-11 5.5 5.5 0 0 1 0 11Z" fill="#78C081"/><path fill-rule="evenodd" clip-rule="evenodd" d="M12 1a11.016 11.016 0 0 1 11 11.001c0 1.95-.636 4.086-1.658 6.245-1.018 2.15-2.39 4.263-3.793 6.147A60.21 60.21 0 0 1 12 30.798c-.88-.874-3.235-3.3-5.549-6.405-1.403-1.884-2.775-3.996-3.793-6.147C1.636 16.086 1 13.95 1 12A11.016 11.016 0 0 1 12 1Zm1-.957A12.02 12.02 0 0 0 12 0 12.016 12.016 0 0 0 0 12c0 8.615 11.18 19.405 11.655 19.86a.495.495 0 0 0 .69 0C12.82 31.405 24 20.615 24 12A12.016 12.016 0 0 0 13 .043ZM12 17.5a5.5 5.5 0 1 1 0-11 5.5 5.5 0 0 1 0 11Zm0 1a6.5 6.5 0 1 1 6.5-6.5 6.503 6.503 0 0 1-6.5 6.5Z" fill="#577A5B"/></svg><svg fill="none" viewBox="0 0 32 32" id="phone" xmlns="http://www.w3.org/2000/svg"><path d="M31.93 24.794c-.09-.273-.665-.674-1.726-1.204a52.744 52.744 0 0 0-1.227-.682c-.53-.288-1.012-.553-1.443-.796a48.057 48.057 0 0 1-1.216-.704c-.06-.045-.25-.178-.568-.398a6.39 6.39 0 0 0-.807-.489 1.489 1.489 0 0 0-.648-.159c-.303 0-.682.217-1.136.648-.454.432-.871.901-1.25 1.41-.378.507-.78.977-1.204 1.408-.424.433-.773.648-1.045.648-.137 0-.308-.038-.512-.113a5.302 5.302 0 0 1-.466-.193 8.514 8.514 0 0 1-.545-.319c-.258-.159-.402-.246-.432-.261-2.076-1.152-3.856-2.47-5.34-3.954C10.88 18.15 9.56 16.37 8.41 14.294c-.015-.03-.103-.174-.262-.431a8.21 8.21 0 0 1-.318-.546 4.931 4.931 0 0 1-.193-.466 1.538 1.538 0 0 1-.114-.511c0-.273.216-.621.648-1.046a13.68 13.68 0 0 1 1.41-1.204 11.07 11.07 0 0 0 1.408-1.25c.432-.454.648-.833.648-1.136 0-.212-.053-.428-.16-.647a6.31 6.31 0 0 0-.488-.807 29.55 29.55 0 0 0-.398-.569 49.94 49.94 0 0 1-.704-1.215 114.81 114.81 0 0 1-.796-1.444c-.287-.53-.515-.939-.681-1.227C7.88.735 7.478.16 7.205.068 7.1.023 6.94 0 6.728 0c-.41 0-.943.076-1.602.227-.66.152-1.178.31-1.557.478-.758.318-1.56 1.242-2.41 2.772C.388 4.9.002 6.31.002 7.704c0 .409.026.806.08 1.193.052.386.147.822.284 1.307.136.485.246.845.329 1.08.083.234.238.654.466 1.26.227.607.363.978.409 1.114.53 1.485 1.159 2.81 1.886 3.977 1.196 1.94 2.83 3.944 4.897 6.012 2.068 2.068 4.072 3.7 6.011 4.898 1.167.727 2.493 1.355 3.978 1.886.136.045.507.181 1.113.41.606.226 1.027.382 1.261.465.235.084.595.194 1.08.33.485.137.92.231 1.307.285.386.052.784.08 1.193.08 1.394 0 2.803-.387 4.227-1.16 1.53-.848 2.454-1.651 2.772-2.41.168-.378.326-.897.477-1.556.152-.66.228-1.193.228-1.602 0-.213-.022-.372-.068-.479Z" fill="#78C081"/><path fill-rule="evenodd" clip-rule="evenodd" d="M30.998 25.213a2.227 2.227 0 0 0-.139-.104c-.23-.16-.59-.369-1.102-.625l-.028-.014-.028-.016a52.47 52.47 0 0 0-1.201-.667c-.533-.29-1.019-.557-1.456-.803m3.954 2.229V25.273c0 .3-.057.752-.2 1.377-.146.632-.288 1.082-.418 1.377l-.004.009-.004.008c-.078.186-.267.457-.665.804-.392.34-.94.714-1.666 1.116-1.3.705-2.546 1.036-3.746 1.036-.364 0-.717-.024-1.058-.07a8.894 8.894 0 0 1-1.17-.256c-.481-.136-.815-.238-1.017-.31-.225-.08-.638-.233-1.244-.46m-1.139-.418c-1.423-.51-2.68-1.107-3.775-1.79l-.003-.002c-1.858-1.147-3.802-2.726-5.83-4.754-2.028-2.028-3.607-3.972-4.753-5.83l-.002-.003c-.683-1.096-1.281-2.353-1.79-3.776a51.814 51.814 0 0 0-.418-1.137c-.227-.607-.38-1.02-.46-1.245m-.067 2.71a49.629 49.629 0 0 0-.41-1.114 88.227 88.227 0 0 1-.465-1.262 18.595 18.595 0 0 1-.33-1.079A9.806 9.806 0 0 1 .08 8.897 8.777 8.777 0 0 1 0 7.704C0 6.31.388 4.9 1.16 3.477 2.008 1.947 2.81 1.023 3.569.705c.379-.167.898-.326 1.557-.478C5.785.076 6.319 0 6.728 0c.212 0 .371.023.477.068.273.091.675.667 1.205 1.727.166.288.394.697.681 1.227.288.53.553 1.012.796 1.444.243.432.477.837.704 1.215.046.061.178.25.398.569.22.318.383.586.489.807.106.22.159.435.159.647 0 .303-.216.682-.648 1.136a11.07 11.07 0 0 1-1.409 1.25c-.507.379-.977.78-1.409 1.204-.432.425-.648.773-.648 1.046 0 .136.038.307.114.511.076.205.14.36.193.466.053.106.16.288.318.546.16.257.247.401.262.431 1.151 2.076 2.47 3.856 3.954 5.341 1.485 1.485 3.265 2.803 5.34 3.955.031.015.175.102.433.261.258.16.44.266.545.32.107.051.262.116.466.192.204.075.375.113.512.113.272 0 .62-.215 1.045-.648.424-.431.826-.9 1.204-1.409.379-.508.796-.977 1.25-1.409.454-.431.833-.648 1.136-.648.212 0 .428.054.648.16.22.106.488.269.807.488.318.22.507.353.568.398.378.227.784.462 1.216.704.431.243.913.508 1.443.796.53.288.94.515 1.227.682 1.06.53 1.636.931 1.727 1.204.046.107.068.266.068.479 0 .409-.075.943-.227 1.602-.152.66-.31 1.178-.478 1.556-.318.759-1.242 1.562-2.772 2.41-1.424.772-2.833 1.16-4.227 1.16a8.89 8.89 0 0 1-1.193-.08 9.878 9.878 0 0 1-1.307-.285 18.575 18.575 0 0 1-1.08-.33 93.361 93.361 0 0 1-1.26-.466 44.28 44.28 0 0 0-1.114-.409c-1.485-.53-2.81-1.16-3.978-1.886-1.939-1.197-3.943-2.83-6.01-4.898-2.069-2.068-3.702-4.072-4.898-6.012-.727-1.166-1.356-2.492-1.886-3.977Zm23.613 8.174a5.442 5.442 0 0 0-.674-.411.582.582 0 0 0-.175-.057.674.674 0 0 0-.054.028 2.4 2.4 0 0 0-.43.342c-.414.393-.793.82-1.138 1.282a14.702 14.702 0 0 1-1.292 1.512c-.245.249-.5.47-.767.636-.258.16-.599.311-.992.311-.305 0-.602-.08-.857-.175H18.8c-.219-.081-.41-.16-.56-.233l-.01-.005a9.29 9.29 0 0 1-.62-.36m-.373-.229.004.003.075.045.295.18m-.383-.233c-.002 0-.002 0 0 0Zm.009.005-.018-.01c-2.147-1.19-4.004-2.563-5.563-4.121-1.558-1.56-2.93-3.416-4.122-5.563l-.01-.02-.002-.003a41.699 41.699 0 0 0-.225-.369m17.884 7.445c.327.227.495.344.535.375l.042.03.045.028c.387.232.8.472 1.24.718M10.264 8.152a2.4 2.4 0 0 0 .342-.432.648.648 0 0 0 .028-.054.574.574 0 0 0-.057-.175 5.39 5.39 0 0 0-.41-.673 31.7 31.7 0 0 0-.377-.538l-.03-.04-.026-.044a50.96 50.96 0 0 1-.719-1.24c-.246-.438-.513-.923-.802-1.456a53.177 53.177 0 0 0-.669-1.203L7.53 2.27l-.014-.028a9.298 9.298 0 0 0-.624-1.102 2.272 2.272 0 0 0-.104-.139L6.728 1c-.301 0-.752.058-1.378.202-.631.145-1.082.287-1.378.418l-.008.003-.008.004c-.185.077-.456.267-.803.665-.34.392-.714.94-1.116 1.666C1.332 5.258 1 6.503 1 7.704c0 .365.024.718.07 1.057m.566 2.188a17.783 17.783 0 0 1-.31-1.016Zm-.31-1.016a8.827 8.827 0 0 1-.256-1.172Z" fill="#000"/></svg></svg>