<svg width="22" height="23" viewBox="0 0 22 23" fill="none" xmlns="http://www.w3.org/2000/svg">
<path d="M21.9532 17.8081C21.891 17.6204 21.4951 17.344 20.7657 16.9795C20.5682 16.8646 20.2866 16.7085 19.9223 16.5104C19.5577 16.3123 19.2268 16.1298 18.9301 15.9629C18.6328 15.7962 18.3543 15.6346 18.094 15.4785C18.0524 15.4472 17.9222 15.3561 17.7035 15.2047C17.4845 15.0536 17.2998 14.9415 17.1485 14.8684C16.9975 14.7957 16.849 14.7592 16.7031 14.7592C16.4948 14.7592 16.2346 14.9078 15.9222 15.2047C15.6098 15.5019 15.3233 15.8248 15.063 16.1743C14.8026 16.5237 14.5265 16.8466 14.2351 17.1437C13.9433 17.4409 13.7035 17.5894 13.5163 17.5894C13.4222 17.5894 13.305 17.5631 13.1645 17.5114C13.0241 17.4593 12.9172 17.4147 12.8439 17.3787C12.7712 17.3419 12.6465 17.2692 12.4693 17.1594C12.2917 17.0499 12.193 16.99 12.1722 16.9795C10.7451 16.1871 9.5212 15.2802 8.50021 14.259C7.47955 13.2372 6.57311 12.0126 5.78145 10.5844C5.77105 10.5635 5.71101 10.4644 5.60171 10.2873C5.49225 10.1101 5.4193 9.98514 5.38285 9.91198C5.3464 9.83908 5.30212 9.73218 5.25013 9.59149C5.19814 9.4508 5.17203 9.3336 5.17203 9.23968C5.17203 9.05216 5.32051 8.81229 5.61742 8.52039C5.91428 8.22865 6.23729 7.95231 6.58614 7.6919C6.93526 7.43149 7.25795 7.14474 7.55491 6.83213C7.85177 6.51937 8.0002 6.25891 8.0002 6.05047C8.0002 5.90463 7.96375 5.75594 7.8909 5.60484C7.818 5.45342 7.70602 5.26864 7.55491 5.04963C7.40375 4.83073 7.31263 4.70056 7.28132 4.65866C7.12523 4.39825 6.96394 4.11944 6.79707 3.82234C6.6302 3.52529 6.44806 3.19418 6.25004 2.82939C6.0522 2.46476 5.89605 2.18321 5.78134 1.98518C5.41695 1.25565 5.14094 0.859366 4.95338 0.797043C4.88043 0.765772 4.77097 0.75 4.62528 0.75C4.34386 0.75 3.97673 0.802027 3.52362 0.90641C3.07035 1.01063 2.71367 1.11994 2.45321 1.23478C1.93235 1.45357 1.38029 2.0894 0.796867 3.14204C0.265604 4.12169 0 5.09131 0 6.05019C0 6.33142 0.0182251 6.60502 0.0546752 6.87107C0.0911253 7.13685 0.156254 7.43658 0.250116 7.77021C0.343813 8.10373 0.419395 8.35149 0.476533 8.51283C0.533726 8.67428 0.640504 8.96349 0.796813 9.38059C0.952902 9.79757 1.04676 10.0528 1.07801 10.1466C1.44257 11.1682 1.87488 12.0802 2.37484 12.8829C3.19743 14.2171 4.31999 15.596 5.74188 17.0189C7.16381 18.4417 8.54148 19.5649 9.87492 20.3884C10.677 20.8886 11.5887 21.3211 12.6095 21.6862C12.7033 21.7173 12.9584 21.811 13.3749 21.9678C13.7917 22.1241 14.0808 22.2309 14.2421 22.2882C14.4035 22.3456 14.6512 22.4213 14.9842 22.5152C15.318 22.6092 15.6172 22.6743 15.8828 22.7111C16.1486 22.7471 16.4221 22.7656 16.7032 22.7656C17.6614 22.7656 18.6304 22.4997 19.6096 21.9681C20.6615 21.3846 21.2967 20.832 21.5155 20.3104C21.6305 20.0501 21.7395 19.6931 21.8436 19.2395C21.9481 18.7862 22 18.4188 22 18.1373C22.0003 17.9909 21.9846 17.8817 21.9532 17.8081Z" fill="#78C081"/>
</svg>
