<svg width="32" height="32" viewBox="0 0 32 32" fill="none" xmlns="http://www.w3.org/2000/svg">
<path d="M31.9309 24.7942C31.8404 24.5214 31.2645 24.1197 30.2038 23.5899C29.9164 23.4228 29.5069 23.1959 28.9771 22.908C28.4468 22.6201 27.9654 22.3547 27.5339 22.1123C27.1015 21.8699 26.6964 21.6351 26.3179 21.4081C26.2574 21.3627 26.068 21.2303 25.7498 21.0101C25.4314 20.7906 25.1628 20.6276 24.9427 20.5213C24.723 20.4157 24.507 20.3625 24.2949 20.3625C23.9919 20.3625 23.6135 20.5786 23.1591 21.0101C22.7047 21.4422 22.2879 21.9115 21.9093 22.4195C21.5307 22.9273 21.1291 23.3967 20.7053 23.8285C20.2808 24.2605 19.9321 24.4763 19.6597 24.4763C19.5229 24.4763 19.3524 24.4382 19.1481 24.3629C18.9438 24.2872 18.7885 24.2224 18.6818 24.1701C18.5761 24.1167 18.3947 24.0109 18.1369 23.8513C17.8787 23.6922 17.7351 23.6051 17.7048 23.5899C15.6292 22.4381 13.849 21.1199 12.3641 19.6355C10.8796 18.1503 9.56118 16.3703 8.40973 14.2944C8.39461 14.2641 8.30728 14.1201 8.14832 13.8627C7.98911 13.605 7.883 13.4234 7.82999 13.3171C7.77697 13.2111 7.71258 13.0557 7.63695 12.8512C7.56133 12.6467 7.52336 12.4764 7.52336 12.3399C7.52336 12.0673 7.73932 11.7187 8.17116 11.2944C8.60293 10.8703 9.07274 10.4687 9.58013 10.0902C10.0879 9.71165 10.5572 9.29485 10.9892 8.84048C11.4209 8.38587 11.6368 8.00728 11.6368 7.70432C11.6368 7.49234 11.5838 7.27622 11.4778 7.05659C11.3718 6.83649 11.209 6.56791 10.9892 6.24958C10.7693 5.93141 10.6368 5.7422 10.5912 5.6813C10.3642 5.30279 10.1296 4.89754 9.88691 4.46569C9.64421 4.03393 9.37929 3.55265 9.09129 3.02242C8.80353 2.49243 8.57642 2.08319 8.40957 1.79535C7.87958 0.734969 7.47815 0.158966 7.20535 0.0683785C7.09924 0.0229255 6.94003 0 6.72813 0C6.31882 0 5.78484 0.0756223 5.12582 0.227344C4.46655 0.378828 3.94778 0.537714 3.56895 0.70464C2.81138 1.02265 2.00843 1.94684 1.15987 3.47687C0.387165 4.9008 0.000854492 6.31016 0.000854492 7.70392C0.000854492 8.11268 0.0273621 8.51037 0.0803773 8.89708C0.133392 9.28339 0.228119 9.71905 0.364637 10.204C0.500917 10.6888 0.610848 11.0489 0.693953 11.2834C0.777137 11.5181 0.932441 11.9384 1.15979 12.5447C1.38681 13.1508 1.52333 13.5218 1.56878 13.6582C2.09901 15.1431 2.72779 16.4687 3.45496 17.6354C4.65139 19.5747 6.28411 21.5789 8.35218 23.6471C10.4203 25.7152 12.4241 27.3478 14.3635 28.5447C15.5301 29.2718 16.8562 29.9005 18.3408 30.4311C18.4773 30.4763 18.8483 30.6125 19.4542 30.8404C20.0603 31.0675 20.4808 31.2228 20.7155 31.3062C20.9502 31.3896 21.3104 31.4996 21.7948 31.6361C22.2802 31.7727 22.7155 31.8674 23.1018 31.9208C23.4883 31.9731 23.8861 32.0001 24.2949 32.0001C25.6886 32.0001 27.0981 31.6135 28.5222 30.8409C30.0521 29.9927 30.9761 29.1896 31.2942 28.4314C31.4615 28.053 31.62 27.5341 31.7715 26.8748C31.9235 26.2159 31.9989 25.682 31.9989 25.2727C31.9994 25.0599 31.9766 24.9011 31.9309 24.7942Z" fill="#78C081"/>
</svg>
