<svg width="290" height="275" viewBox="0 0 290 275" fill="none" xmlns="http://www.w3.org/2000/svg">
<g clip-path="url(#clip0_86_2250)">
<path d="M268.408 220.315C268.408 220.315 168.748 218.255 126.472 220.315C96.2277 221.788 5.28917 220.315 5.28917 220.315C5.28917 220.315 7.15646 153.768 5.28917 120.034C4.08675 98.5199 5.28917 33.8419 5.28917 33.8419C5.28917 33.8419 102.098 34.026 133.22 32.8225C184.719 30.7977 268.408 33.8419 268.408 33.8419C268.408 33.8419 270.416 80.1133 268.408 107.652C266.378 135.744 268.408 220.315 268.408 220.315Z" fill="white"/>
<path opacity="0.5" d="M268.408 33.8419V76.1063C250.548 75.6603 201.086 74.7542 136.247 76.3116C67.4332 77.9611 19.0463 76.8426 5.26086 76.4391V33.8419C5.26086 33.8419 102.07 34.033 133.192 32.8225C184.719 30.7977 268.408 33.8419 268.408 33.8419Z" fill="#92E3A9" fill-opacity="0.7"/>
<path opacity="0.2" d="M168.677 217.533L166.265 74.0461H136.848C135.54 96.6226 136.403 187.48 136.735 217.533H168.677Z" fill="#92E3A9" fill-opacity="0.7"/>
<path opacity="0.2" d="M8.60657 76.5099L40.8739 76.2904C40.8739 76.2904 43.3354 187.289 37.7193 217.533H10.4668C10.4668 217.533 10.8417 177.102 10.4668 143.729C10.0919 110.357 8.60657 76.5099 8.60657 76.5099Z" fill="#92E3A9" fill-opacity="0.7"/>
<path d="M8.60632 54.16C8.60632 54.16 88.5321 53.0343 112.694 54.16C136.855 55.2856 203.335 53.3317 213.025 52.7441C222.715 52.1565 266.781 54.16 266.781 54.16C268.436 40.9214 265.288 34.8613 265.288 34.8613C265.288 34.8613 147.387 36.3976 90.3074 37.1692C33.2277 37.9409 8.60632 37.1692 8.60632 37.1692C8.60632 37.1692 9.73094 47.6256 8.60632 54.16Z" fill="#5CCD6A"/>
<path d="M268.407 220.315C268.407 220.315 168.748 218.255 126.472 220.315C96.2277 221.788 5.28917 220.315 5.28917 220.315C5.28917 220.315 7.15646 153.768 5.28917 120.034C4.08675 98.5199 5.28917 33.8419 5.28917 33.8419C5.28917 33.8419 102.098 34.026 133.22 32.8225C184.719 30.7977 268.407 33.8419 268.407 33.8419C268.407 33.8419 270.416 80.1133 268.407 107.652C266.378 135.744 268.407 220.315 268.407 220.315Z" stroke="#495E4C" stroke-width="0.6" stroke-linecap="round" stroke-linejoin="round"/>
<path d="M12.61 55.8451C12.61 55.8451 43.1091 54.7194 78.0854 55.8451C113.062 56.9707 166.251 56.2486 194.643 55.3424C223.034 54.4363 257.374 54.1602 257.374 54.1602" stroke="#495E4C" stroke-width="0.6" stroke-linecap="round" stroke-linejoin="round"/>
<path d="M12.6099 76.2903C12.6099 76.2903 234.075 74.0461 257.338 74.0461" stroke="#495E4C" stroke-width="0.6" stroke-linecap="round" stroke-linejoin="round"/>
<path d="M40.8739 54.1599C40.8739 54.1599 43.9507 178.235 40.8739 202.595" stroke="#495E4C" stroke-width="0.6" stroke-linecap="round" stroke-linejoin="round"/>
<path d="M71.373 54.1599C71.373 54.1599 70.2555 190.737 71.373 200.308" stroke="#495E4C" stroke-width="0.6" stroke-linecap="round" stroke-linejoin="round"/>
<path d="M103.273 54.1599C103.273 54.1599 104.39 81.0619 104.687 104.856C104.984 128.65 103.273 199.183 104.687 207.055" stroke="#495E4C" stroke-width="0.6" stroke-linecap="round" stroke-linejoin="round"/>
<path d="M136.848 55.2927C136.848 55.2927 135.144 137.061 135.851 165.067C136.558 193.073 136.848 208.202 136.848 208.202" stroke="#495E4C" stroke-width="0.6" stroke-linecap="round" stroke-linejoin="round"/>
<path d="M166.23 54.1599C166.23 54.1599 169.059 151.375 168.748 172.224C168.437 193.073 168.748 204.712 168.748 204.712" stroke="#495E4C" stroke-width="0.6" stroke-linecap="round" stroke-linejoin="round"/>
<path d="M198.13 52.7441C198.13 52.7441 197.953 110.088 199.756 126.024C201.56 141.96 198.943 208.231 198.943 208.231" stroke="#495E4C" stroke-width="0.6" stroke-linecap="round" stroke-linejoin="round"/>
<path d="M229.506 52.7441C229.506 52.7441 230.708 82.0744 230.92 98.4563C231.133 114.838 230.362 198.454 232.335 204.74" stroke="#495E4C" stroke-width="0.6" stroke-linecap="round" stroke-linejoin="round"/>
<path d="M12.6099 93.6492C12.6099 93.6492 58.6414 92.8139 87.8108 93.6492C87.8108 93.6492 87.74 101.493 87.8108 104.573C87.8108 104.573 19.9093 104.014 12.6099 104.573C12.6099 104.573 13.1686 95.6102 12.6099 93.6492Z" fill="white" stroke="#495E4C" stroke-linecap="round" stroke-linejoin="round"/>
<path d="M167.263 93.2811V104.608C167.263 104.608 224.703 104.049 230.85 102.93L230.736 92.0068C230.736 92.0068 187.654 91.5041 167.263 93.2811Z" fill="white" stroke="#495E4C" stroke-linecap="round" stroke-linejoin="round"/>
<path d="M70.8707 107.652H136.268L135.858 118.088C135.858 118.088 108.308 118.718 93.4763 119.072C78.644 119.426 71.3729 119.907 71.3729 119.907L70.8707 107.652Z" fill="#5CCD6A" stroke="#495E4C" stroke-linecap="round" stroke-linejoin="round"/>
<path d="M232.264 104.573L232.533 112.417C232.533 112.417 252.882 111.001 255.874 111.298V103.454C255.874 103.454 237.866 103.171 232.264 104.573Z" fill="#5CCD6A" stroke="#495E4C" stroke-linecap="round" stroke-linejoin="round"/>
<path d="M136.268 132.593C136.268 132.593 192.146 131.291 199.756 128.714V144.289C199.756 144.289 145.159 144.508 135.688 146.236C135.688 146.264 135.137 135.694 136.268 132.593Z" fill="white" stroke="#495E4C" stroke-linecap="round" stroke-linejoin="round"/>
<path d="M140.116 132.494C140.116 132.494 134.776 140.742 135.872 141.797C136.969 142.851 142.387 132.855 144.042 132.593C145.697 132.332 138.263 146.342 138.97 146.837C139.678 147.333 149.078 132.034 151.306 132.034C153.533 132.034 146.354 145.358 147.769 145.294C149.184 145.23 155.804 132.289 158.209 132.034C160.613 131.779 152.635 145.096 154.481 145.039C156.327 144.982 163.733 130.831 165.26 131.588C166.788 132.346 157.657 143.913 160.076 144.862C162.495 145.811 168.677 132.48 171.64 131.808C174.604 131.135 164.787 143.949 167.651 144.289C170.516 144.628 174.809 130.93 177.044 132.02C179.279 133.11 172.942 140.713 173.875 141.223C174.809 141.733 177.794 132.063 180.778 132.02C183.763 131.978 177.242 140.713 177.949 141.768C178.657 142.823 181.691 139.191 181.691 139.191" stroke="#92E3A9" stroke-linecap="round" stroke-linejoin="round"/>
<path d="M15.4038 93.6068C15.4038 93.6068 13.0272 99.2704 13.5931 99.5323C14.1589 99.7943 16.4223 93.9325 18.6291 94.2086C20.8359 94.4847 14.6257 104.474 16.0687 104.424C17.5116 104.375 22.4344 92.9767 23.941 93.5856C25.4475 94.1944 20.3054 103.1 21.2815 103.716C22.2576 104.332 27.1592 92.9343 28.7012 93.5643C30.2431 94.1944 24.3654 103.292 25.8719 103.292C27.3785 103.292 32.4499 93.3803 33.9847 93.3803C35.5196 93.3803 29.2316 102.024 30.7665 103.171C32.3014 104.318 36.0854 92.2617 38.3276 93.3803C40.5698 94.4988 34.9679 102.584 36.6442 103.454C38.3205 104.325 42.6563 92.6865 44.0568 93.3095C45.4573 93.9325 39.8837 104.325 40.8456 104.332C41.8076 104.339 48.0036 92.3891 49.404 93.2882C50.8045 94.1873 44.2266 104.339 45.4856 104.339C46.7446 104.339 53.3225 92.0635 54.9988 92.6723C56.6752 93.2811 50.6631 102.194 52.1696 102.753C53.6762 103.313 57.3471 96.4528 58.0473 96.4528C58.7476 96.4528 55.593 102.753 56.47 102.753C57.3471 102.753 60.7139 92.2334 62.3831 93.2953C64.0524 94.3572 60.4239 100.233 61.2656 100.516C62.1073 100.8 67.4192 92.9484 68.954 94.0741C70.4889 95.1997 62.9773 104.424 65.3538 104.424C67.7304 104.424 71.7903 94.2086 73.7496 94.3502C75.7088 94.4917 69.8311 103.454 71.373 103.596C72.9149 103.738 75.9917 93.5148 77.6681 94.0741C79.3444 94.6333 75.2915 101.777 76.409 102.194C77.5266 102.612 79.9031 95.051 81.8624 95.1926C83.8216 95.3342 78.2268 102.477 80.6034 102.753C82.9799 103.03 83.8216 94.7749 86.1982 95.051C88.5747 95.3271 83.1921 102.633 84.4865 103.596C85.7809 104.559 87.7825 99.95 87.7825 99.95" stroke="#5CCD6A" stroke-linecap="round" stroke-linejoin="round"/>
<path d="M13.4728 110.874L16.7334 109.458C16.703 110.531 16.4827 111.591 16.0827 112.587C16.5541 112.48 16.9826 112.233 17.3129 111.88C17.6432 111.527 17.8602 111.083 17.9358 110.605L17.5751 111.751H20.6235C20.5746 111.584 20.582 111.406 20.6447 111.243C20.7073 111.081 20.8217 110.943 20.9701 110.852C20.6447 111.143 20.8428 111.737 21.2318 111.936C21.6473 112.088 22.1035 112.088 22.5191 111.936C23.5938 111.667 24.6283 111.258 25.5958 110.718C25.5175 111.069 25.5663 111.437 25.7333 111.756C25.9004 112.075 26.1749 112.324 26.5082 112.459C27.1696 112.716 27.883 112.808 28.5877 112.728L37.733 112.438" stroke="#495E4C" stroke-linecap="round" stroke-linejoin="round"/>
<path d="M12.6807 117.252C12.6807 117.252 13.9396 115.624 15.0642 115.836C16.1888 116.049 15.4816 117.84 15.8989 118.123C16.3162 118.406 17.0235 114.392 17.7166 115.836C18.1558 116.724 19.5414 118.137 19.5414 118.137C19.5414 118.137 21.0763 116.516 21.4936 116.827C21.9109 117.139 22.7525 116.827 22.7525 116.827H35.7668" stroke="#495E4C" stroke-linecap="round" stroke-linejoin="round"/>
<path d="M53.7399 109.486C53.7399 109.486 43.2222 143.843 131.254 140.119" stroke="#495E4C" stroke-linecap="round" stroke-linejoin="round"/>
<path d="M131.254 137.655L133.489 140.402L131.254 141.797" stroke="#495E4C" stroke-linecap="round" stroke-linejoin="round"/>
<path d="M78.6434 141.237C71.3724 137.875 58.1814 140.147 48.3924 146.306C38.6035 152.465 36.5877 172.634 72.4405 166.751C108.293 160.868 85.6174 144.317 73.0629 144.317" fill="white"/>
<path d="M78.6434 141.237C71.3724 137.875 58.1814 140.147 48.3924 146.306C38.6035 152.465 36.5877 172.634 72.4405 166.751C108.293 160.868 85.6174 144.317 73.0629 144.317" stroke="#92E3A9" stroke-linecap="round" stroke-linejoin="round"/>
<path d="M50.2103 152.161C50.2103 152.161 52.4029 150.172 53.3507 150.037C54.2985 149.903 51.5613 151.871 53.3507 152.161C55.1402 152.451 54.7653 151.453 56.5053 151.092C58.2452 150.731 58.7827 152.678 58.7827 152.678C58.7827 152.678 61.6119 151.722 63.2599 151.262C64.9079 150.802 63.8187 153.499 66.0891 152.678C68.3595 151.857 67.3339 150.596 70.9058 151.262C74.4776 151.927 81.4091 151.503 84.5212 151.262" stroke="#92E3A9" stroke-linecap="round" stroke-linejoin="round"/>
<path d="M53.3861 158.101C54.0934 156.388 53.2164 156.055 55.1756 156.926C57.1348 157.796 58.2523 158.972 59.094 158.101C59.439 157.711 59.8963 157.437 60.403 157.318C60.9096 157.199 61.4407 157.24 61.9232 157.435C62.7578 157.789 60.7986 158.349 62.7578 157.789C63.8953 157.479 64.9489 156.918 65.8416 156.147C65.8416 156.147 65.3465 157.336 67.4118 158.405C69.4771 159.474 70.9482 157.272 70.9482 157.272C74.1008 157.152 77.2575 157.202 80.4048 157.421" stroke="#92E3A9" stroke-linecap="round" stroke-linejoin="round"/>
<path d="M72.693 255.433L80.1762 247.228V245.105L85.8911 239.88C85.8911 239.88 92.865 242.294 96.1893 250.796L90.1349 255.908L87.822 256.205L78.8889 262.576C78.8889 262.576 72.693 260.424 72.693 255.433Z" fill="#495E4C"/>
<path opacity="0.3" d="M86.1178 241.466C86.1178 241.466 88.6711 249.069 95.2631 250.62" stroke="white" stroke-width="0.6" stroke-linecap="round" stroke-linejoin="round"/>
<path opacity="0.3" d="M81.3645 247.349C81.3645 247.349 83.6844 253.472 88.6143 255.433" stroke="white" stroke-width="0.6" stroke-linecap="round" stroke-linejoin="round"/>
<path opacity="0.2" d="M168.769 20.9712L171.747 17.566H178.664C180.531 17.1515 182.3 16.3824 183.877 15.3005C183.877 15.3005 181.246 12.6174 178.07 12.5254H172.101L156.158 9.62988L67.3484 17.566C66.7302 19.3678 66.5528 21.2918 66.8309 23.1764C67.109 25.0611 67.8347 26.8515 68.9469 28.3976L168.769 20.9712Z" fill="black" fill-opacity="0.7"/>
<path opacity="0.2" d="M208.718 28.3974L211.115 26.3515L218.853 26.2665C219.35 23.7611 219.407 21.1884 219.023 18.6633L197.868 11.3149C192.436 14.7059 194.642 28.3974 194.642 28.3974H208.718Z" fill="black" fill-opacity="0.7"/>
<path d="M177.689 4.63913C177.689 4.63913 181.409 4.17189 183.531 5.89925C183.531 5.89925 183.255 8.09385 177.66 8.65311L177.689 4.63913Z" fill="#5CCD6A" stroke="#495E4C" stroke-width="0.5" stroke-linecap="round" stroke-linejoin="round"/>
<path d="M170.799 3.65499L165.968 0.355957L67.2494 8.3062C62.9136 15.329 68.3245 22.3023 68.3245 22.3023L167.666 14.0264L171.153 10.607L178.042 9.42476C178.467 8.55982 178.68 7.6062 178.664 6.64253C178.72 5.58769 178.391 4.54854 177.738 3.71871L170.799 3.65499Z" fill="#495E4C"/>
<path d="M99.8491 6.61413L143.871 3.00366C143.961 3.21111 144 3.43707 143.985 3.66265C143.969 3.88822 143.9 4.10684 143.783 4.30022C143.666 4.4936 143.505 4.65612 143.312 4.77417C143.119 4.89223 142.901 4.9624 142.676 4.9788L101.405 8.51847C101.208 8.53832 101.009 8.51643 100.82 8.45422C100.632 8.39201 100.459 8.29087 100.312 8.15736C100.165 8.02385 100.048 7.86096 99.9686 7.67925C99.8888 7.49754 99.8481 7.30107 99.8491 7.1026V6.61413Z" fill="#92E3A9"/>
<path opacity="0.3" d="M165.883 1.88513C165.883 1.88513 169.059 5.4248 166.817 12.5041" stroke="white" stroke-width="0.6" stroke-linecap="round" stroke-linejoin="round"/>
<path opacity="0.3" d="M171.181 4.60364C171.738 6.03096 171.883 7.58627 171.598 9.09194" stroke="white" stroke-width="0.6" stroke-linecap="round" stroke-linejoin="round"/>
<path opacity="0.3" d="M67.9991 9.62988C67.9991 9.62988 71.3588 12.5749 69.1167 20.9568" stroke="white" stroke-width="0.6" stroke-linecap="round" stroke-linejoin="round"/>
<path opacity="0.3" d="M69.8876 9.07073C69.8876 9.07073 70.9485 9.21232 71.3729 14.5361L165.883 5.76461C165.665 4.06629 164.996 2.45763 163.945 1.10632L69.8876 9.07073Z" fill="white"/>
<path opacity="0.3" d="M172.101 4.24963C172.58 5.02455 172.839 5.91536 172.85 6.82651L178.07 6.3168C177.976 5.59492 177.756 4.89523 177.419 4.24963H172.101Z" fill="white"/>
<path d="M217.007 22.8117L206.249 20.0861L204.361 21.0914L197.069 18.4933C197.069 18.4933 195.902 11.2015 201.815 4.24963L209.177 7.18048L210.535 9.08482L220.353 13.9625C220.353 13.9625 221.399 20.4542 217.007 22.8117Z" fill="#5CCD6A"/>
<path d="M217.007 22.8117L206.249 20.0861L204.361 21.0914L197.069 18.4933C197.069 18.4933 195.902 11.2015 201.815 4.24963L209.177 7.18048L210.535 9.08482L220.353 13.9625C220.353 13.9625 221.399 20.4542 217.007 22.8117Z" stroke="#495E4C" stroke-width="0.6" stroke-linecap="round" stroke-linejoin="round"/>
<path d="M198.384 17.566C198.384 17.566 203.88 11.7184 202.133 5.17712" stroke="#495E4C" stroke-width="0.6" stroke-linecap="round" stroke-linejoin="round"/>
<path d="M205.79 18.9818C205.79 18.9818 210.09 14.0263 209.489 8.76636" stroke="#495E4C" stroke-width="0.6" stroke-linecap="round" stroke-linejoin="round"/>
<path d="M223.435 273.815C223.435 273.815 217.821 223.359 213.945 212.655C210.069 201.951 204.877 166.44 204.877 166.44C204.877 166.44 216.788 165.485 220.395 165.449C224.003 165.414 228.664 161.959 228.664 161.959C228.268 162.667 227.369 162.235 226.705 157.902C226.259 155 221.852 154.122 221.852 154.122C221.852 154.122 211.278 154.915 202.359 153.711C200.198 154.393 197.879 154.393 195.717 153.711C192.471 152.529 191.813 151.262 193.596 149.542C193.596 149.542 191.07 146.243 199.7 141.542C199.7 141.542 193.963 136.381 196.764 133.046C199.565 129.712 206.164 126.37 206.164 126.37C206.164 126.37 206.44 123.85 207.657 123.199C208.873 122.548 215.494 119.836 219.129 117.316C222.765 114.796 224.349 114.98 231.069 114.796C237.788 114.611 245.993 112.927 249.07 114.328C251.46 115.419 252.571 119.687 252.571 119.687C254.806 120.395 255.032 124.055 255.174 124.955C255.832 128.969 260.45 145.605 262.501 148.494C264.553 151.382 265.762 156.43 265.394 159.049C265.027 161.669 264.086 164.713 263.152 170.065C262.219 175.417 259.05 193.866 257.494 199.19C255.938 204.514 255.068 213.752 255.902 218.234L277.516 261.383" fill="white"/>
<path opacity="0.4" d="M250.533 137.11C250.533 137.11 246.07 139.807 246.07 141.52C246.07 141.52 237.582 147.984 236.606 155.594C236.606 155.594 231.903 160.365 230.87 162.532C229.838 164.698 225.353 167.239 225.353 167.239C224.086 167.12 222.813 167.072 221.541 167.098C219.389 166.773 217.262 166.3 215.175 165.682C217.297 165.547 219.249 165.441 220.374 165.434C223.366 165.434 227.079 163.027 228.26 162.213C227.808 162.213 227.178 161.123 226.683 157.88C226.237 154.985 221.831 154.1 221.831 154.1C221.831 154.1 211.257 154.893 202.338 153.697C200.877 154.15 199.341 154.308 197.818 154.164C197.853 153.603 197.775 153.04 197.591 152.509C197.406 151.978 197.118 151.489 196.743 151.07C196.743 151.07 200.839 148.345 199.77 146.242C199.261 145.237 197.429 144.614 195.64 144.239C196.882 143.189 198.237 142.279 199.679 141.527C199.679 141.527 193.942 136.366 196.743 133.032C199.544 129.698 206.164 126.37 206.164 126.37C206.164 126.37 206.44 123.857 207.657 123.199C207.657 123.199 206.95 127.085 212.318 126.738C217.686 126.392 225.417 123.199 225.417 123.199C225.417 123.199 239.987 123.602 242.944 121.358C242.944 121.358 246.48 124.381 249.069 124.898C251.658 125.415 250.533 137.11 250.533 137.11Z" fill="#92E3A9"/>
<path opacity="0.4" d="M265.38 159.071C265.006 161.683 264.072 164.734 263.138 170.086C262.205 175.438 259.036 193.894 257.48 199.211C255.924 204.528 255.054 213.774 255.888 218.255L257.869 222.984C253.575 215.367 253.915 205.37 254.262 202.744C254.679 199.523 257.091 187.615 259.213 181.456C261.335 175.297 261.526 162.412 261.526 161.966C261.526 161.52 260.408 164.798 259.269 168.43C258.13 172.061 253.95 182.298 253.95 182.298C253.809 180.174 255.556 167.75 255.874 166.334C256.192 164.918 258.753 155.396 259.213 152.706C259.672 150.016 257.543 147.043 257.013 144.919C256.482 142.795 254.389 133.323 253.83 126.802C253.608 123.258 252.728 119.787 251.234 116.565C251.816 117.566 252.267 118.636 252.578 119.751C254.813 120.459 255.04 124.112 255.181 125.011C255.839 129.025 260.458 145.662 262.509 148.558C264.56 151.453 265.748 156.458 265.38 159.071Z" fill="#92E3A9"/>
<path opacity="0.4" d="M224.01 275.556C221.711 257.461 217.114 223.019 214.214 213.575C216.215 216.011 218.493 219.947 220.091 227.529C223.31 242.792 224.293 249.511 224.427 256.512C224.555 260.987 224.456 269.234 224.01 275.556Z" fill="#92E3A9"/>
<path d="M223.435 273.815C223.435 273.815 217.821 223.359 213.945 212.655C210.069 201.951 204.877 166.44 204.877 166.44C204.877 166.44 216.788 165.485 220.395 165.449C224.003 165.414 228.664 161.959 228.664 161.959C228.268 162.667 227.369 162.235 226.705 157.902C226.259 155 221.852 154.122 221.852 154.122C221.852 154.122 211.278 154.915 202.359 153.711C200.198 154.393 197.879 154.393 195.717 153.711C192.471 152.529 191.813 151.262 193.596 149.542C193.596 149.542 191.07 146.243 199.7 141.542C199.7 141.542 193.963 136.381 196.764 133.046C199.565 129.712 206.164 126.37 206.164 126.37C206.164 126.37 206.44 123.85 207.657 123.199C208.873 122.548 215.494 119.836 219.129 117.316C222.765 114.796 224.349 114.98 231.069 114.796C237.788 114.611 245.993 112.927 249.07 114.328C251.46 115.419 252.571 119.687 252.571 119.687C254.806 120.395 255.032 124.055 255.174 124.955C255.832 128.969 260.45 145.605 262.501 148.494C264.553 151.382 265.762 156.43 265.394 159.049C265.027 161.669 264.086 164.713 263.152 170.065C262.219 175.417 259.05 193.866 257.494 199.19C255.938 204.514 255.068 213.752 255.902 218.234L277.516 261.383" stroke="#495E4C" stroke-width="0.6" stroke-linecap="round" stroke-linejoin="round"/>
<path d="M193.56 149.541C193.56 149.541 195.42 152.069 201.857 151.035C208.293 150.002 216.003 143.566 216.003 143.566L220.621 141.613C220.621 141.613 226.499 142.264 228.642 141.237" stroke="#495E4C" stroke-width="0.6" stroke-linecap="round" stroke-linejoin="round"/>
<path d="M225.354 141.797C225.354 141.797 229.187 145.903 232.264 146.837" stroke="#495E4C" stroke-width="0.6" stroke-linecap="round" stroke-linejoin="round"/>
<path d="M228.629 161.959C231.239 160.281 234.69 155.587 237.859 155.24" stroke="#495E4C" stroke-width="0.5" stroke-linecap="round" stroke-linejoin="round"/>
<path d="M228.091 156.266C229.506 151.587 233.749 146.837 233.749 146.837C234.448 145.278 235.324 143.806 236.359 142.448C237.411 140.893 239.01 139.794 240.837 139.368C240.837 139.368 237.13 128.869 238.227 126.76" stroke="#495E4C" stroke-width="0.6" stroke-linecap="round" stroke-linejoin="round"/>
<path d="M221.817 154.122C221.817 154.122 224.696 153.209 225.354 151.29" stroke="#495E4C" stroke-width="0.6" stroke-linecap="round" stroke-linejoin="round"/>
<path d="M221.166 150.2C221.166 150.2 220.99 153.187 216.505 154.122" stroke="#495E4C" stroke-width="0.6" stroke-linecap="round" stroke-linejoin="round"/>
<path d="M220.608 141.612C220.608 141.612 222.836 140.126 223.585 138.625" stroke="#495E4C" stroke-width="0.6" stroke-linecap="round" stroke-linejoin="round"/>
<path d="M206.165 126.37C206.165 126.37 205.365 128.615 208.704 129.542C212.042 130.469 220.997 129.45 224.724 126.37C224.724 126.37 225.643 123.758 225.368 122.08" stroke="#495E4C" stroke-width="0.6" stroke-linecap="round" stroke-linejoin="round"/>
<path d="M224.222 126.76C224.222 126.76 235.164 126.37 235.999 126.37C236.833 126.37 240.193 124.601 240.844 122.732" stroke="#495E4C" stroke-width="0.6" stroke-linecap="round" stroke-linejoin="round"/>
<path d="M240.823 139.368C240.823 139.368 243.284 140.218 244.989 139.85" stroke="#495E4C" stroke-width="0.6" stroke-linecap="round" stroke-linejoin="round"/>
<path d="M235.369 156.267C235.369 156.267 234.973 152.125 237.859 146.264" stroke="#495E4C" stroke-width="0.6" stroke-linecap="round" stroke-linejoin="round"/>
<path d="M252.557 119.709C254.042 125.485 256.327 144.486 257.869 148.083C259.411 151.679 259.594 152.904 258.477 156.266C257.359 159.629 255.556 167.749 255.556 167.749" stroke="#495E4C" stroke-width="0.6" stroke-linecap="round" stroke-linejoin="round"/>
<path d="M255.86 218.255C254.651 214.425 253.908 209.384 254.368 207.055" stroke="#495E4C" stroke-width="0.6" stroke-linecap="round" stroke-linejoin="round"/>
<path d="M184.945 136.947C184.945 136.947 181.847 137.528 180.801 139.205C180.801 139.205 181.713 140.621 185.455 140.239C189.196 139.857 184.945 136.947 184.945 136.947Z" fill="#495E4C"/>
<path d="M195.986 131.092L283.473 118.102L284.591 133.726L196.729 142.448L192.627 140.6L185.907 140.77C185.282 140.204 184.874 139.437 184.754 138.602C184.634 137.767 184.809 136.916 185.249 136.197L192.167 134.71L195.986 131.092Z" fill="#5CCD6A"/>
<path d="M211.031 131.914L247.103 126.788C247.466 126.738 247.836 126.761 248.19 126.857C248.544 126.953 248.875 127.119 249.163 127.345C249.452 127.572 249.692 127.854 249.869 128.176C250.046 128.497 250.156 128.851 250.194 129.216L250.264 129.924C250.338 130.634 250.13 131.344 249.686 131.902C249.241 132.459 248.595 132.819 247.888 132.905L211.752 137.301C211.392 137.344 211.027 137.315 210.678 137.215C210.33 137.115 210.004 136.946 209.722 136.719C209.439 136.491 209.205 136.21 209.032 135.89C208.86 135.571 208.753 135.22 208.718 134.859C208.654 134.165 208.859 133.473 209.289 132.925C209.719 132.378 210.342 132.016 211.031 131.914Z" fill="#495E4C"/>
<path opacity="0.3" d="M284.591 133.726L196.729 142.455L192.627 140.6L185.907 140.77C185.549 140.447 185.26 140.055 185.058 139.616L192.132 139.375L195.244 139.659L207.473 138.632L211.052 131.914C211.052 131.914 214.192 131.517 216.71 134.71C219.228 137.903 220.629 137.492 220.629 137.492L280.814 131.192L281.521 130.484C281.521 130.484 279.095 124.976 281.521 120.48C282.129 119.355 282.83 118.902 283.537 118.909L284.591 133.726Z" fill="black" fill-opacity="0.7"/>
<path d="M195.986 131.092L283.473 118.102L284.591 133.726L196.729 142.448L192.627 140.6L185.907 140.77C185.282 140.204 184.874 139.437 184.754 138.602C184.634 137.767 184.809 136.916 185.249 136.197L192.167 134.71L195.986 131.092Z" stroke="#495E4C" stroke-width="0.6" stroke-linecap="round" stroke-linejoin="round"/>
<path d="M283.473 118.102C289.535 117.62 290.836 133.103 284.591 133.726C278.614 134.32 277.32 118.583 283.473 118.102Z" fill="#5CCD6A"/>
<path opacity="0.3" d="M284.591 133.726C282.957 133.889 281.67 132.827 280.793 131.191L281.5 130.483C281.5 130.483 279.074 124.976 281.5 120.48C282.108 119.355 282.808 118.902 283.516 118.909C285.638 118.909 287.802 123.015 287.71 125.23L288.629 125.457C288.962 129.344 287.731 133.45 284.591 133.726Z" fill="black" fill-opacity="0.7"/>
<path d="M283.473 118.102C289.535 117.62 290.836 133.103 284.591 133.726C278.614 134.32 277.32 118.583 283.473 118.102Z" stroke="#495E4C" stroke-width="0.6" stroke-linecap="round" stroke-linejoin="round"/>
<path d="M195.986 131.092C195.986 131.092 194.254 133.273 194.72 137.407C194.881 139.248 195.58 141.001 196.729 142.448" stroke="#495E4C" stroke-width="0.6" stroke-linecap="round" stroke-linejoin="round"/>
<path d="M192.167 134.71C191.85 135.673 191.727 136.69 191.806 137.701C191.885 138.712 192.164 139.698 192.627 140.6" stroke="#495E4C" stroke-width="0.6" stroke-linecap="round" stroke-linejoin="round"/>
<path d="M280.757 134.108C274.773 134.703 273.621 119.652 279.71 118.661" stroke="#495E4C" stroke-width="0.6" stroke-linecap="round" stroke-linejoin="round"/>
<path d="M283.593 119.079C288.389 118.661 289.422 132.048 284.478 132.579C279.725 133.096 278.727 119.503 283.593 119.079Z" stroke="#495E4C" stroke-width="0.6" stroke-linecap="round" stroke-linejoin="round"/>
<path d="M283.608 120.034C283.608 120.034 286.111 120.962 286.557 125.514C287.003 130.066 284.435 131.467 284.435 131.467" stroke="#495E4C" stroke-width="0.6" stroke-linecap="round" stroke-linejoin="round"/>
<path d="M228.629 167.099C228.629 167.099 222.263 167.467 221.556 167.099C220.848 166.73 216.887 159.255 216.703 156.925C216.52 154.596 216.145 147.12 215.954 142.448C215.763 137.775 215.777 130.498 207.006 132.048C203.088 132.756 202.43 136.459 201.129 144.791C199.827 153.124 201.037 155.34 200.103 165.98C199.169 176.62 200.287 180.847 202.529 186.206C204.771 191.565 205.599 205.193 211.568 210.234C217.538 215.274 219.879 224.98 219.879 224.98" fill="white"/>
<path opacity="0.4" d="M213.026 140.317C211.42 140.706 205.245 141.025 204.842 143.085C204.439 145.145 208.103 146.115 209.623 147.963C209.567 147.963 203.258 147.963 201.843 151.042C200.428 154.122 203.01 160.734 203.01 164.373C203.01 168.012 199.841 175.297 202.267 179.077C204.389 182.376 206.356 189.972 205.33 197.186C204.262 192.868 203.526 188.691 202.501 186.206C200.273 180.882 199.155 176.635 200.089 166.015C201.022 155.396 199.806 153.152 201.114 144.819C202.048 138.837 202.649 135.234 204.375 133.422C206.391 132.983 208.668 132.813 210.034 133.79C212.955 135.807 214.652 139.921 213.026 140.317Z" fill="#92E3A9"/>
<path d="M228.629 167.099C228.629 167.099 222.263 167.467 221.556 167.099C220.848 166.73 216.887 159.255 216.703 156.925C216.52 154.596 216.145 147.12 215.954 142.448C215.763 137.775 215.777 130.498 207.006 132.048C203.088 132.756 202.43 136.459 201.129 144.791C199.827 153.124 201.037 155.34 200.103 165.98C199.169 176.62 200.287 180.847 202.529 186.206C204.771 191.565 205.599 205.193 211.568 210.234C217.538 215.274 219.879 224.98 219.879 224.98" stroke="#495E4C" stroke-width="0.6" stroke-linecap="round" stroke-linejoin="round"/>
<path d="M216.689 156.925C216.689 156.925 216.088 156.734 215.734 153.095C215.62 152.025 215.248 150.998 214.651 150.103C214.053 149.208 213.248 148.471 212.304 147.956" stroke="#495E4C" stroke-width="0.6" stroke-linecap="round" stroke-linejoin="round"/>
<path d="M204.099 147.956C204.099 147.956 201.496 148.515 200.464 152.161" stroke="#495E4C" stroke-width="0.6" stroke-linecap="round" stroke-linejoin="round"/>
<path d="M23.7482 72.4733C23.5451 72.4737 23.3886 72.3783 23.2788 72.1872C23.169 71.9921 23.1135 71.6153 23.1123 71.0567C23.1102 70.0957 23.3323 68.0288 23.7786 64.856C23.8057 64.7192 23.7567 64.6373 23.6316 64.6102C23.5065 64.5792 22.9948 64.5647 22.0964 64.5667C20.8698 64.5693 20.1668 64.6431 19.9875 64.788C19.8081 64.9329 19.6689 65.5856 19.5698 66.7459C19.5317 67.207 19.4201 67.9553 19.2348 68.9908C19.0109 70.2335 18.8995 71.1185 18.9007 71.6458L18.9249 72.0149C18.9257 72.3665 18.7581 72.5426 18.4222 72.5434C18.0198 72.5442 17.8181 72.2927 17.817 71.7888C17.8161 71.3865 17.8486 71.0309 17.9143 70.7222C18.0226 70.1985 18.1133 69.6944 18.1864 69.2099C18.2327 68.9051 18.2866 68.5749 18.3484 68.2193C18.5953 66.8047 18.7181 65.7966 18.7168 65.195C18.7164 64.9919 18.6224 64.8808 18.4349 64.8617C18.0637 64.8195 17.8778 64.6676 17.8772 64.4058C17.8769 64.2301 17.9215 64.0874 18.0111 63.9778C18.1046 63.8682 18.2256 63.8094 18.374 63.8013C18.749 63.7848 19.0223 63.7237 19.1939 63.6178C19.35 63.5394 19.4671 63.5001 19.5452 63.4999C19.7054 63.4995 19.8441 63.5344 19.9615 63.6045C20.0905 63.6823 20.4656 63.7206 21.0867 63.7192C21.0945 63.7192 21.5086 63.7066 22.3288 63.6814C23.153 63.6562 23.6041 63.6357 23.6822 63.6199C23.7603 63.6041 23.8559 63.5726 23.9691 63.5255C24.1525 63.447 24.3028 63.4076 24.42 63.4073L24.8889 63.4766L25.4103 63.4404C25.7267 63.4397 25.8852 63.578 25.8858 63.8554C25.8862 64.035 25.828 64.1875 25.711 64.3128C25.5941 64.4341 25.4614 64.4988 25.313 64.507C25.2076 64.515 25.1159 64.5543 25.0379 64.6248C24.9599 64.6913 24.857 64.9884 24.7293 65.5161C24.6015 66.0437 24.4765 66.9678 24.3544 68.2884C24.2361 69.6089 24.1782 70.7966 24.1804 71.8512L24.1809 72.0622C24.1811 72.1442 24.1305 72.2283 24.0291 72.3145C23.9277 72.4045 23.8341 72.4575 23.7482 72.4733Z" fill="#495E4C"/>
<path d="M31.0928 68.3558C31.1356 68.2737 31.2029 67.7833 31.2947 66.8847C31.3635 66.1658 31.5912 65.8059 31.978 65.8051C32.2944 65.8044 32.4529 65.9623 32.4536 66.2787C32.4537 66.3529 32.4267 66.5034 32.3725 66.73C32.0744 67.9768 31.9263 69.022 31.9281 69.8658C31.9301 70.7798 32.0818 71.3713 32.3831 71.6402C32.5397 71.7844 32.6181 71.9014 32.6183 71.9912C32.6185 72.1006 32.5386 72.2004 32.3787 72.2906C32.2226 72.3808 32.0801 72.426 31.9512 72.4263C31.3419 72.4276 31.0351 71.4868 31.0311 69.604C31.0308 69.479 30.9838 69.4166 30.89 69.4168C30.5229 69.4176 30.0737 69.4401 29.5425 69.4842C29.0114 69.5283 28.6306 69.5838 28.4003 69.6507C28.1739 69.7176 28.0334 69.7804 27.9788 69.8391C27.9282 69.8939 27.8816 70.0444 27.8392 70.2906C27.8006 70.5329 27.7817 70.7849 27.7822 71.0466L27.7838 71.7673C27.7847 72.1853 27.5937 72.3947 27.2109 72.3955C26.8906 72.3962 26.73 72.1875 26.7291 71.7696C26.7285 71.4961 26.7629 71.1484 26.8323 70.7264C26.9595 69.9527 27.0856 68.6204 27.2104 66.7295C27.2255 66.4833 27.2466 66.327 27.2738 66.2606C27.301 66.1941 27.3712 66.1217 27.4843 66.0433C27.6013 65.961 27.7282 65.9197 27.8649 65.9194C28.1462 65.9188 28.287 66.0338 28.2875 66.2642C28.2876 66.2994 28.2433 66.5925 28.1547 67.1434C28.0621 67.6944 28.0161 68.1223 28.0168 68.4269C28.0173 68.6418 28.0917 68.749 28.2402 68.7487C28.537 68.7481 29.0799 68.6981 29.8687 68.5987C30.6576 68.4955 31.0656 68.4145 31.0928 68.3558Z" fill="#495E4C"/>
<path d="M53.7825 66.7345C53.7826 66.7931 53.9391 66.8943 54.2519 67.0382C54.5999 67.2015 54.8561 67.3572 55.0205 67.5053C55.1888 67.6494 55.3259 67.8445 55.4319 68.0903C55.5418 68.3323 55.5971 68.6232 55.5979 68.963C55.5985 69.2755 55.3885 69.7017 54.9678 70.2417C54.551 70.7778 54.009 71.2282 53.3418 71.5929C52.6785 71.9537 51.9856 72.1349 51.2629 72.1364C51.1262 72.1367 50.9347 72.0961 50.6884 72.0146C50.4461 71.9331 50.3248 71.8474 50.3246 71.7576C50.3235 71.2654 50.6706 71.0186 51.366 71.0171C51.5808 71.0205 51.7917 71.0181 51.9988 71.0098C52.2058 70.9977 52.4693 70.9288 52.7893 70.8031C53.1133 70.6735 53.4176 70.4931 53.7022 70.262C53.9869 70.0309 54.1915 69.8059 54.316 69.5869C54.4405 69.3639 54.5026 69.1509 54.5021 68.9478C54.5013 68.5884 54.3503 68.2704 54.0489 67.9937C53.7475 67.717 53.3371 67.5792 52.8175 67.5803C52.7394 67.5805 52.554 67.6434 52.2613 67.769C51.9686 67.8986 51.7773 67.9634 51.6875 67.9636C51.3828 67.9643 51.1913 67.9256 51.113 67.8477C51.0386 67.7697 51.0012 67.6311 51.0008 67.4319C51.0005 67.2952 51.3282 67.0972 51.9839 66.838C52.6279 66.5827 53.2071 66.1928 53.7216 65.6682C54.24 65.1437 54.4989 64.7251 54.4982 64.4126C54.4977 64.2017 54.388 64.0164 54.1689 63.8567C53.9537 63.6931 53.6586 63.6117 53.2836 63.6125C52.7992 63.6136 52.2368 63.6812 51.5965 63.8154C50.9562 63.9457 50.6049 64.0734 50.5426 64.1985C50.4843 64.3236 50.3223 65.2752 50.0566 67.0531C49.7909 68.8271 49.6584 69.8528 49.659 70.1301C49.6593 70.2786 49.6674 70.4211 49.6833 70.5578C49.6953 70.6984 49.7015 70.8312 49.7018 70.9562C49.7029 71.4914 49.4437 71.7595 48.9242 71.7606C48.7797 71.7609 48.6603 71.6577 48.5661 71.4508C48.4719 71.244 48.4246 71.0547 48.4243 70.8828C48.4241 70.8086 48.4879 70.5096 48.6157 69.9859C48.7704 69.2746 48.9245 68.3016 49.0781 67.0669C49.2317 65.8283 49.3084 65.168 49.3082 65.086C49.3079 64.9219 49.2842 64.8008 49.2371 64.7228C49.194 64.6448 49.0924 64.6059 48.9322 64.6063C48.8697 64.6064 48.8072 64.6085 48.7447 64.6126C48.6861 64.6166 48.6255 64.5796 48.5628 64.5016C48.5041 64.4236 48.4746 64.3299 48.4743 64.2206C48.4737 63.912 48.9847 63.5827 50.0074 63.2329C51.03 62.8791 52.2504 62.7007 53.6683 62.6976C54.1879 62.6965 54.6492 62.8713 55.0523 63.222C55.4593 63.5727 55.6632 63.9336 55.664 64.3047C55.6646 64.5703 55.4876 64.9476 55.1332 65.4367C54.7827 65.9218 54.3325 66.3544 53.7825 66.7345Z" fill="#495E4C"/>
<path d="M61.5762 67.0458C61.2129 67.0544 60.4379 68.1323 59.2511 70.2794C58.8503 71.0029 58.6168 71.3979 58.5505 71.4645C58.4843 71.5271 58.3613 71.584 58.1818 71.6352C58.0061 71.6863 57.8597 71.712 57.7425 71.7123C57.4808 71.7129 57.3488 71.2034 57.3466 70.1839C57.3454 69.6096 57.4662 68.5703 57.709 67.0659C57.8093 66.4563 57.8591 66.0206 57.8585 65.7589C57.858 65.5011 57.9729 65.3719 58.2034 65.3714C58.637 65.3705 58.8545 65.6825 58.8558 66.3075C58.8564 66.6005 58.7854 67.1749 58.6427 68.0307C58.4769 69.0076 58.3922 69.6015 58.3888 69.8125C58.6304 69.5776 58.9848 69.0631 59.4518 68.2691C60.1136 67.1818 60.6004 66.4932 60.9122 66.2035C61.228 65.9098 61.5539 65.7627 61.8898 65.7619C62.1437 65.7614 62.3452 65.9309 62.4944 66.2704C62.6475 66.6099 62.741 67.4203 62.775 68.7014C62.7836 69.0217 62.8134 69.2599 62.8645 69.4161C62.9156 69.5722 62.9529 69.6503 62.9763 69.6502C63.1599 69.6498 63.557 69.024 64.1676 67.7726C64.4943 67.1118 64.8116 66.6091 65.1194 66.2647C65.4312 65.9203 65.7765 65.7477 66.1554 65.7469C66.4718 65.7462 66.7026 65.9097 66.8479 66.2376C66.9931 66.5615 67.0977 67.0437 67.1615 67.6841C67.2215 68.3325 67.3127 68.926 67.4349 69.4648C67.5611 70.0036 67.7884 70.3488 68.1168 70.5005C68.3397 70.6054 68.4513 70.7282 68.4516 70.8689C68.4519 71.0056 68.3585 71.1464 68.1713 71.2914C67.9841 71.4363 67.8124 71.5089 67.6561 71.5093C67.3436 71.5099 67.0639 71.3191 66.817 70.9369C66.5701 70.5546 66.3827 69.7269 66.255 68.4537C66.1992 67.9421 66.1457 67.5789 66.0944 67.3642C66.0432 67.1495 65.9629 67.0422 65.8535 67.0424C65.6894 67.0428 65.4945 67.1995 65.2686 67.5125C65.0466 67.8254 64.6866 68.461 64.1887 69.4191C63.7997 70.166 63.5039 70.6647 63.3013 70.9151C63.1026 71.1617 62.9095 71.2851 62.722 71.2855C62.5541 71.2859 62.4035 71.2198 62.2704 71.0873C62.1373 70.9509 62.053 70.7889 62.0174 70.6015C61.9819 70.4102 61.9437 69.9435 61.9031 69.2014C61.8418 67.9671 61.7328 67.2486 61.5762 67.0458Z" fill="#495E4C"/>
<path d="M91.5382 69.2485C91.6905 69.2482 91.7669 69.3418 91.7673 69.5293C91.7677 69.7246 91.5515 70.0043 91.1187 70.3686C90.6859 70.7328 90.1846 71.0229 89.6147 71.239C89.0488 71.4551 88.5295 71.5636 88.0568 71.5646C87.3654 71.5661 86.7341 71.339 86.1628 70.8832C85.5954 70.4273 85.3108 69.7659 85.3089 68.8987C85.3055 67.3166 85.9818 65.7761 87.338 64.2771C88.698 62.7742 90.0089 62.0213 91.2706 62.0186C91.7433 62.0176 92.1205 62.1632 92.4024 62.4556C92.6882 62.7441 92.8315 63.0816 92.8323 63.4684C92.8331 63.8277 92.8122 64.111 92.7697 64.3181C92.7311 64.5252 92.6084 64.7013 92.4017 64.8462C92.195 64.9873 92.0291 65.058 91.9041 65.0583C91.8143 65.0584 91.7361 65.0196 91.6695 64.9416C91.6029 64.8636 91.5695 64.7582 91.5692 64.6254C91.569 64.5355 91.6018 64.348 91.6676 64.0627C91.7334 63.7813 91.7662 63.5722 91.7659 63.4355C91.765 63.0371 91.5907 62.8382 91.2431 62.839C90.704 62.8401 90.0367 63.1521 89.2412 63.7749C88.4496 64.3938 87.7774 65.1804 87.2248 66.1348C86.6722 67.0852 86.3967 67.9608 86.3984 68.7615C86.3996 69.2967 86.5588 69.7417 86.8759 70.0965C87.197 70.4473 87.6525 70.6221 88.2423 70.6209C88.5821 70.6201 88.9941 70.5352 89.4781 70.3662C89.966 70.1933 90.4128 69.9638 90.8184 69.6778C91.224 69.3918 91.464 69.2487 91.5382 69.2485Z" fill="#495E4C"/>
<path d="M94.8218 70.3313C94.6319 71.0348 94.4543 72.0215 94.2891 73.2914L94.1274 74.3992C94.1004 74.5555 94.0285 74.7099 93.9116 74.8625C93.7948 75.019 93.6875 75.0974 93.5899 75.0976C93.4688 75.0979 93.33 75.0357 93.1734 74.911C93.0208 74.7902 92.9445 74.6927 92.9443 74.6185C92.9438 74.4037 92.992 74.1067 93.0889 73.7276C93.7975 70.8393 94.1494 68.3034 94.1447 66.1198L94.1378 65.6277C94.1291 65.2058 94.2026 64.899 94.3585 64.7073C94.5143 64.5155 94.6938 64.4194 94.8969 64.419C94.9906 64.4188 95.0807 64.4928 95.1669 64.6411C95.2532 64.7854 95.2966 64.9923 95.2972 65.2619C95.298 65.6408 95.2599 66.0998 95.1829 66.6391C95.0828 67.319 95.031 67.7097 95.0273 67.8113C95.6071 66.7944 96.2226 66.0001 96.8737 65.4284C97.5248 64.8567 98.1297 64.5702 98.6882 64.569C99.0828 64.5682 99.4151 64.7159 99.6853 65.0122C99.9594 65.3045 100.097 65.6695 100.098 66.107C100.101 67.3804 99.6148 68.5377 98.6405 69.5789C97.6661 70.6201 96.7161 71.1416 95.7903 71.1436C95.5598 71.1441 95.3761 71.0859 95.2392 70.969C95.1061 70.8521 94.967 70.6395 94.8218 70.3313ZM98.4503 65.6066C97.8995 65.6078 97.2189 66.1249 96.4087 67.1579C95.5984 68.1909 95.1939 68.9945 95.1951 69.5687C95.1954 69.7094 95.2758 69.8459 95.4362 69.9784C95.5967 70.1108 95.7999 70.1768 96.046 70.1763C96.6046 70.1751 97.2463 69.7616 97.9711 68.9358C98.6959 68.1061 99.0574 67.2928 99.0557 66.4959C99.0551 66.2108 98.996 65.9922 98.8785 65.8401C98.7649 65.6841 98.6221 65.6063 98.4503 65.6066Z" fill="#495E4C"/>
<path d="M120.65 63.2977L120.633 63.5849C120.614 63.663 120.509 64.175 120.32 65.1207L120.285 65.2731C120.251 65.5232 120.161 66.498 120.016 68.1975L119.867 69.7389C119.844 69.9928 119.827 70.3444 119.817 70.7937C119.791 71.575 119.747 72.0165 119.685 72.1182C119.626 72.2199 119.527 72.3119 119.386 72.3942C119.25 72.4805 119.119 72.5237 118.994 72.524C118.854 72.5243 118.744 72.4405 118.665 72.2727C118.587 72.1088 118.547 71.9058 118.547 71.6636C118.546 71.3785 118.627 70.7201 118.789 69.6885C118.901 68.9812 118.973 68.151 119.006 67.1978C118.986 67.0689 118.929 67.0007 118.836 66.9931C118.73 66.9933 118.397 67.1639 117.835 67.505C117.183 67.9048 116.588 68.1815 116.05 68.335C115.515 68.4846 115.089 68.5597 114.773 68.5604C114.257 68.5615 113.874 68.3983 113.623 68.0707C113.372 67.7392 113.246 67.0422 113.244 65.9797C113.243 65.5071 113.316 64.9054 113.462 64.1746C113.613 63.4399 113.8 63.0176 114.022 62.9077C114.249 62.7979 114.418 62.7428 114.532 62.7426C114.625 62.7424 114.709 62.793 114.784 62.8944C114.858 62.9958 114.896 63.1402 114.896 63.3277C114.896 63.3668 114.792 63.7557 114.582 64.4944C114.369 65.2371 114.263 65.7978 114.264 66.1767C114.265 66.7783 114.305 67.1591 114.383 67.3191C114.462 67.4752 114.698 67.5528 115.093 67.5519C115.347 67.5514 115.712 67.4725 116.188 67.3152C116.664 67.1579 117.138 66.9479 117.61 66.6852C118.083 66.4224 118.445 66.1697 118.699 65.9269C118.952 65.6842 119.106 65.514 119.16 65.4162C119.215 65.3145 119.259 65.0703 119.294 64.6835C119.301 64.5702 119.311 64.4705 119.322 64.3846C119.361 64.0642 119.38 63.7575 119.379 63.4645C119.379 63.3434 119.458 63.1968 119.618 63.0246C119.782 62.8523 119.928 62.7661 120.057 62.7658C120.202 62.7655 120.336 62.8179 120.462 62.9231C120.587 63.0244 120.65 63.1493 120.65 63.2977Z" fill="#495E4C"/>
<path d="M126.852 67.298C126.489 67.3066 125.714 68.3845 124.527 70.5316C124.126 71.2551 123.893 71.6501 123.826 71.7167C123.76 71.7793 123.637 71.8362 123.458 71.8874C123.282 71.9385 123.136 71.9643 123.018 71.9645C122.757 71.9651 122.625 71.4556 122.622 70.4361C122.621 69.8618 122.742 68.8225 122.985 67.3181C123.085 66.7085 123.135 66.2728 123.134 66.0111C123.134 65.7533 123.249 65.6242 123.479 65.6237C123.913 65.6227 124.13 65.9348 124.132 66.5598C124.132 66.8527 124.061 67.4271 123.919 68.2829C123.753 69.2598 123.668 69.8537 123.665 70.0647C123.906 69.8298 124.261 69.3153 124.728 68.5214C125.389 67.434 125.876 66.7454 126.188 66.4557C126.504 66.1621 126.83 66.0149 127.166 66.0141C127.42 66.0136 127.621 66.1831 127.77 66.5226C127.923 66.8621 128.017 67.6725 128.051 68.9536C128.059 69.2739 128.089 69.5122 128.14 69.6683C128.191 69.8244 128.229 69.9025 128.252 69.9024C128.436 69.902 128.833 69.2762 129.443 68.0249C129.77 67.364 130.087 66.8614 130.395 66.5169C130.707 66.1725 131.052 65.9999 131.431 65.9991C131.748 65.9984 131.978 66.162 132.124 66.4898C132.269 66.8137 132.374 67.2959 132.437 67.9364C132.497 68.5847 132.589 69.1782 132.711 69.717C132.837 70.2558 133.064 70.601 133.393 70.7527C133.616 70.8577 133.727 70.9805 133.727 71.1211C133.728 71.2578 133.634 71.3986 133.447 71.5436C133.26 71.6885 133.088 71.7611 132.932 71.7615C132.619 71.7622 132.34 71.5713 132.093 71.1891C131.846 70.8068 131.659 69.9791 131.531 68.7059C131.475 68.1943 131.422 67.8311 131.37 67.6164C131.319 67.4017 131.239 67.2944 131.129 67.2947C130.965 67.295 130.77 67.4517 130.544 67.7647C130.322 68.0776 129.963 68.7132 129.465 69.6713C129.076 70.4182 128.78 70.9169 128.577 71.1674C128.378 71.4139 128.185 71.5373 127.998 71.5377C127.83 71.5381 127.679 71.472 127.546 71.3395C127.413 71.2031 127.329 71.0411 127.293 70.8537C127.258 70.6624 127.22 70.1957 127.179 69.4536C127.118 68.2193 127.009 67.5008 126.852 67.298Z" fill="#495E4C"/>
<path d="M152.616 72.6692C152.413 72.6696 152.256 72.5743 152.147 72.3831C152.037 72.188 151.981 71.8112 151.98 71.2526C151.978 70.2917 152.2 68.2248 152.646 65.0519C152.673 64.9151 152.624 64.8332 152.499 64.8061C152.374 64.7752 151.863 64.7606 150.964 64.7626C149.738 64.7652 149.035 64.839 148.855 64.9839C148.676 65.1288 148.537 65.7815 148.438 66.9419C148.4 67.4029 148.288 68.1512 148.103 69.1867C147.879 70.4294 147.767 71.3144 147.768 71.8418L147.793 72.2108C147.793 72.5624 147.626 72.7386 147.29 72.7393C146.888 72.7401 146.686 72.4886 146.685 71.9847C146.684 71.5824 146.716 71.2268 146.782 70.9181C146.89 70.3944 146.981 69.8903 147.054 69.4058C147.1 69.101 147.154 68.7708 147.216 68.4152C147.463 67.0006 147.586 65.9925 147.585 65.391C147.584 65.1878 147.49 65.0767 147.303 65.0576C146.931 65.0154 146.746 64.8635 146.745 64.6018C146.745 64.426 146.789 64.2833 146.879 64.1737C146.972 64.0642 147.093 64.0053 147.242 63.9972C147.617 63.9807 147.89 63.9196 148.062 63.8138C148.218 63.7353 148.335 63.696 148.413 63.6958C148.573 63.6955 148.712 63.7303 148.829 63.8004C148.958 63.8782 149.333 63.9165 149.955 63.9151C149.962 63.9151 150.376 63.9025 151.197 63.8773C152.021 63.8521 152.472 63.8316 152.55 63.8158C152.628 63.8 152.724 63.7685 152.837 63.7214C153.02 63.6429 153.171 63.6035 153.288 63.6033L153.757 63.6726L154.278 63.6363C154.595 63.6356 154.753 63.7739 154.754 64.0513C154.754 64.231 154.696 64.3834 154.579 64.5087C154.462 64.63 154.329 64.6948 154.181 64.7029C154.075 64.7109 153.984 64.7502 153.906 64.8207C153.828 64.8873 153.725 65.1844 153.597 65.712C153.469 66.2396 153.344 67.1637 153.222 68.4843C153.104 69.8048 153.046 70.9925 153.048 72.0472L153.049 72.2581C153.049 72.3401 152.998 72.4242 152.897 72.5104C152.796 72.6004 152.702 72.6534 152.616 72.6692Z" fill="#495E4C"/>
<path d="M159.894 67.7433C159.531 67.7519 158.756 68.8298 157.569 70.9769C157.169 71.7004 156.935 72.0954 156.869 72.162C156.803 72.2246 156.68 72.2815 156.5 72.3327C156.324 72.3838 156.178 72.4096 156.061 72.4098C155.799 72.4104 155.667 71.9009 155.665 70.8814C155.664 70.3071 155.784 69.2678 156.027 67.7634C156.128 67.1538 156.177 66.7181 156.177 66.4564C156.176 66.1986 156.291 66.0694 156.522 66.0689C156.955 66.068 157.173 66.38 157.174 67.005C157.175 67.298 157.104 67.8724 156.961 68.7282C156.795 69.7051 156.71 70.299 156.707 70.51C156.949 70.2751 157.303 69.7606 157.77 68.9667C158.432 67.8793 158.919 67.1907 159.231 66.901C159.546 66.6073 159.872 66.4602 160.208 66.4594C160.462 66.4589 160.664 66.6284 160.813 66.9679C160.966 67.3074 161.059 68.1178 161.093 69.3989C161.102 69.7192 161.132 69.9574 161.183 70.1136C161.234 70.2697 161.271 70.3478 161.295 70.3477C161.478 70.3473 161.875 69.7215 162.486 68.4701C162.813 67.8093 163.13 67.3066 163.438 66.9622C163.749 66.6178 164.095 66.4452 164.474 66.4444C164.79 66.4437 165.021 66.6073 165.166 66.9351C165.311 67.259 165.416 67.7412 165.48 68.3817C165.54 69.03 165.631 69.6235 165.753 70.1623C165.879 70.7011 166.107 71.0463 166.435 71.198C166.658 71.3029 166.77 71.4258 166.77 71.5664C166.77 71.7031 166.677 71.8439 166.49 71.9889C166.302 72.1338 166.131 72.2064 165.974 72.2068C165.662 72.2074 165.382 72.0166 165.135 71.6344C164.888 71.2521 164.701 70.4244 164.573 69.1512C164.517 68.6396 164.464 68.2764 164.413 68.0617C164.361 67.847 164.281 67.7397 164.172 67.7399C164.008 67.7403 163.813 67.897 163.587 68.21C163.365 68.5229 163.005 69.1585 162.507 70.1166C162.118 70.8635 161.822 71.3622 161.62 71.6126C161.421 71.8592 161.228 71.9826 161.04 71.983C160.872 71.9834 160.722 71.9173 160.589 71.7848C160.456 71.6484 160.371 71.4864 160.336 71.299C160.3 71.1077 160.262 70.641 160.221 69.8989C160.16 68.6646 160.051 67.9461 159.894 67.7433Z" fill="#495E4C"/>
<path d="M118.626 41.5845C118.561 41.9632 118.346 42.1539 117.981 42.1566L116.573 42.1669C116.413 42.168 115.537 42.2451 113.943 42.398C113.373 42.4523 113.032 42.4798 112.918 42.4807C112.836 42.4813 112.692 42.4481 112.486 42.3813C112.377 42.3456 112.297 42.3872 112.248 42.5061L112.255 42.4923C111.765 46.6022 111.521 48.7869 111.523 49.0467C111.525 49.2244 111.54 49.418 111.569 49.6274C111.602 49.8642 111.62 50.0851 111.621 50.2901C111.623 50.5454 111.47 50.7743 111.161 50.9771C110.858 51.1844 110.653 51.2885 110.548 51.2892C110.38 51.2904 110.174 51.2008 109.931 51.0203C109.693 50.8397 109.573 50.6196 109.571 50.3598C109.569 50.0362 109.596 49.692 109.652 49.327C109.67 49.2175 109.687 49.0806 109.704 48.9164C109.729 48.6473 109.814 48.0474 109.957 47.1167C110.123 46.0536 110.205 45.5015 110.205 45.4605L110.495 43.0111C110.488 42.0814 110.5 41.498 110.53 41.2608C110.56 41.019 110.67 40.8222 110.861 40.6704C111.055 40.5141 111.292 40.4349 111.57 40.4328C111.77 40.4314 111.992 40.4822 112.234 40.5852C112.632 40.7464 113.052 40.8254 113.494 40.8221L116.588 40.5534C117.098 40.5087 117.564 40.5645 117.984 40.721C118.409 40.8774 118.623 41.131 118.625 41.4819L118.626 41.5845Z" fill="#495E4C"/>
<path d="M122.715 50.2297C122.627 50.5995 122.518 51.2793 122.388 52.2692C122.259 53.2637 122.181 53.9296 122.157 54.2671C122.132 54.609 122.015 54.8993 121.807 55.1378C121.604 55.3763 121.42 55.4961 121.256 55.4973C121.051 55.4988 120.848 55.4228 120.646 55.2693C120.445 55.1158 120.343 54.948 120.342 54.7657C120.339 54.3965 120.393 53.97 120.503 53.4861C121.167 50.7514 121.52 47.9346 121.563 45.0358L121.562 44.8991C121.558 44.334 121.573 43.9533 121.608 43.7571C121.643 43.5563 121.756 43.3641 121.946 43.1804C122.136 42.9967 122.361 42.9039 122.62 42.902C122.839 42.9004 123.018 42.9971 123.156 43.1921C123.299 43.387 123.371 43.669 123.374 44.0382C123.377 44.4119 123.313 45.0663 123.183 46.0015C123.683 45.1548 124.282 44.4531 124.979 43.8966C125.682 43.3354 126.322 43.0528 126.901 43.0485C127.411 43.0448 127.846 43.2239 128.204 43.5859C128.566 43.9479 128.75 44.4045 128.754 44.956C128.765 46.4279 128.202 47.7719 127.067 48.9879C125.937 50.1993 124.813 50.8091 123.697 50.8172C123.177 50.821 122.85 50.6252 122.715 50.2297ZM126.646 44.6022C126.09 44.6063 125.371 45.1538 124.491 46.2449C123.614 47.336 123.179 48.1914 123.183 48.8112C123.184 48.9707 123.263 49.1137 123.419 49.2401C123.579 49.362 123.764 49.4222 123.974 49.4207C124.553 49.4164 125.212 48.9582 125.953 48.0458C126.698 47.1289 127.068 46.2466 127.062 45.399C127.06 45.1164 127.015 44.914 126.927 44.7915C126.84 44.6646 126.746 44.6015 126.646 44.6022Z" fill="#495E4C"/>
<path d="M137.329 48.2909C136.151 49.8718 135.013 50.6663 133.915 50.6743C133.505 50.6773 133.15 50.5181 132.852 50.1967C132.553 49.8753 132.402 49.4639 132.399 48.9627C132.39 47.755 132.918 46.466 133.984 45.0955C135.049 43.7205 136.129 43.029 137.222 43.021C137.778 43.017 138.145 43.2946 138.322 43.8538C138.846 43.85 139.11 44.0486 139.113 44.4497C139.114 44.6411 139.067 44.9878 138.97 45.4898C138.795 46.4299 138.709 47.1802 138.713 47.7407C138.717 48.3241 138.759 48.7339 138.838 48.9703C138.922 49.2067 138.982 49.3612 139.019 49.4339C139.056 49.5065 139.166 49.5832 139.349 49.6639C139.532 49.7491 139.624 49.8692 139.625 50.0242C139.627 50.2566 139.51 50.4511 139.274 50.6078C139.043 50.7645 138.8 50.8437 138.544 50.8456C138.116 50.8487 137.804 50.6368 137.61 50.2098C137.42 49.7828 137.323 49.2822 137.319 48.708L137.317 48.5029C137.317 48.4346 137.321 48.3639 137.329 48.2909ZM136.932 44.4861C136.472 44.4894 135.877 45.0042 135.146 46.0304C134.419 47.052 134.059 47.9183 134.064 48.6292C134.067 49.0029 134.146 49.1892 134.301 49.188C134.838 49.1841 135.496 48.7031 136.273 47.7449C137.054 46.7821 137.442 45.943 137.437 45.2275C137.435 44.9997 137.381 44.8201 137.276 44.6887C137.174 44.5527 137.06 44.4851 136.932 44.4861Z" fill="#495E4C"/>
<path d="M148.995 49.7439C148.951 49.9447 148.867 50.7246 148.745 52.0836L148.537 54.4641C148.52 54.6511 148.419 54.8341 148.233 55.0132C148.048 55.1923 147.864 55.2825 147.682 55.2839C147.39 55.286 147.166 55.2056 147.01 55.0427C146.854 54.8843 146.775 54.7208 146.774 54.5522C146.771 54.1694 146.906 53.2319 147.177 51.7396C147.273 51.1966 147.376 50.5874 147.485 49.9121C146.86 50.418 146.21 50.6734 145.536 50.6783C144.852 50.6833 144.32 50.4958 143.939 50.1157C143.562 49.7357 143.371 49.197 143.366 48.4998C143.358 47.406 143.767 46.2683 144.592 45.0864C145.418 43.9046 146.241 43.3107 147.061 43.3047C147.508 43.3014 147.877 43.6246 148.169 44.2742C148.198 43.9276 148.211 43.4809 148.207 42.934L148.164 40.8835C148.161 40.4369 148.138 40.1112 148.096 39.9064C148.068 39.8155 148.054 39.7518 148.053 39.7153C148.052 39.4783 148.127 39.259 148.281 39.0574C148.434 38.8557 148.623 38.7541 148.846 38.7525C149.006 38.7513 149.188 38.8206 149.395 38.9604C149.601 39.0956 149.729 39.261 149.781 39.4566C149.837 39.6476 149.866 39.9299 149.869 40.3036C149.882 42.1128 149.807 43.59 149.642 44.7351L149.506 45.782C149.882 44.927 150.372 44.2376 150.974 43.7136C151.581 43.1897 152.201 42.9254 152.835 42.9207C153.35 42.917 153.779 43.0984 154.124 43.465C154.473 43.8271 154.649 44.2815 154.653 44.8284C154.661 45.8993 154.479 46.8053 154.106 47.5463C153.733 48.2828 153.159 48.9592 152.384 49.5756C151.609 50.1919 150.81 50.5031 149.985 50.5091C149.561 50.5122 149.231 50.2571 148.995 49.7439ZM149.503 48.161C149.504 48.398 149.577 48.6003 149.719 48.7679C149.866 48.9308 150.065 49.0114 150.316 49.0096C150.885 49.0054 151.479 48.5978 152.098 47.7866C152.716 46.9754 153.022 46.1392 153.016 45.2779C153.014 44.9908 152.964 44.786 152.868 44.6637C152.776 44.5413 152.68 44.4805 152.579 44.4812C152.283 44.4834 151.995 44.6085 151.714 44.8567C151.433 45.1003 151.081 45.5199 150.657 46.1154C150.233 46.7064 149.848 47.3883 149.503 48.161ZM147.706 48.3245C147.809 47.4989 147.866 46.8787 147.877 46.4639C147.883 46.0855 147.861 45.8054 147.809 45.6235C147.762 45.437 147.643 45.2487 147.45 45.0587C147.257 44.8642 147.067 44.7676 146.88 44.7689C146.661 44.7705 146.298 45.197 145.789 46.0484C145.285 46.8952 145.035 47.7037 145.041 48.4739C145.043 48.7108 145.11 48.904 145.243 49.0535C145.377 49.2029 145.566 49.2767 145.812 49.2749C146.063 49.2731 146.402 49.1635 146.829 48.9462C147.255 48.7243 147.548 48.5171 147.706 48.3245Z" fill="#495E4C"/>
<path d="M163.5 47.8743C163.068 48.675 162.565 49.3121 161.99 49.7857C161.419 50.2593 160.837 50.4983 160.245 50.5026C159.894 50.5051 159.537 50.3232 159.174 49.9567C158.816 49.5901 158.634 49.0241 158.629 48.2585C158.625 47.7162 158.756 46.8971 159.021 45.8014C159.251 44.8974 159.365 44.2107 159.361 43.7413C159.541 43.3571 159.824 43.1637 160.212 43.1608C160.476 43.1589 160.686 43.2462 160.843 43.4228C161.003 43.5948 161.084 43.7697 161.086 43.9474C161.088 44.271 160.977 44.7321 160.754 45.3308C160.624 45.6872 160.485 46.1918 160.334 46.8446C160.189 47.4928 160.117 47.9081 160.118 48.0904C160.122 48.6965 160.25 48.9986 160.5 48.9968C160.897 48.9939 161.43 48.6094 162.099 47.8435C162.767 47.0775 163.202 46.295 163.401 45.496C163.6 44.7152 163.779 44.2035 163.936 43.9608C164.094 43.7181 164.319 43.5957 164.611 43.5936C165.084 43.5901 165.323 43.8527 165.327 44.3813C165.328 44.4588 165.29 44.614 165.214 44.847C164.951 45.6556 164.824 46.5657 164.831 47.5774C164.84 48.7623 165.045 49.4695 165.448 49.699C165.581 49.7755 165.648 49.8707 165.648 49.9846C165.65 50.1487 165.535 50.3045 165.303 50.452C165.072 50.5995 164.851 50.674 164.642 50.6756C164.282 50.6782 164.002 50.4273 163.802 49.9229C163.607 49.4139 163.506 48.731 163.5 47.8743Z" fill="#495E4C"/>
<path d="M173.424 46.8174C173.63 46.866 173.822 46.9535 174.001 47.0798C174.179 47.2061 174.393 47.437 174.641 47.7724C175.12 48.4252 175.497 48.8531 175.772 49.0562C176.047 49.2593 176.346 49.3596 176.67 49.3573C177.007 49.3548 177.176 49.4584 177.178 49.668C177.179 49.8685 177.065 50.0722 176.834 50.2789C176.603 50.4857 176.237 50.5909 175.735 50.5946C174.965 50.6002 174.179 49.9702 173.377 48.7045C172.911 47.9605 172.523 47.5896 172.213 47.5919C172.172 47.5922 172.061 47.6226 171.879 47.6832C171.702 47.7437 171.586 47.7993 171.532 47.8498C171.477 47.8958 171.434 48.1855 171.401 48.7189L171.335 49.9773C171.328 50.1824 171.245 50.3585 171.086 50.5055C170.928 50.657 170.73 50.7337 170.493 50.7354C170.242 50.7372 170.046 50.668 169.904 50.5278C169.761 50.3921 169.69 50.2536 169.689 50.1123C169.687 49.9392 169.742 49.5673 169.851 48.9969C170.114 47.5594 170.318 45.8033 170.462 43.7286C170.479 43.4641 170.586 43.2218 170.785 43.0016C170.984 42.7814 171.218 42.6703 171.487 42.6684C171.674 42.667 171.829 42.7456 171.954 42.9042C172.078 43.0628 172.141 43.2469 172.142 43.4566C172.143 43.6206 172.117 43.7872 172.064 43.9562C171.997 44.1526 171.902 44.5544 171.779 45.1614C171.66 45.7684 171.588 46.2315 171.563 46.5507C172.104 46.3827 172.524 46.1518 172.823 45.8579C173.121 45.564 173.492 45.0942 173.934 44.4484C174.303 43.917 174.651 43.5248 174.978 43.2718C175.304 43.0142 175.663 42.884 176.055 42.8811C176.269 42.8795 176.468 42.9692 176.652 43.1502C176.84 43.3266 176.935 43.515 176.936 43.7155C176.937 43.8841 176.886 44.0121 176.782 44.0995C176.682 44.1822 176.505 44.2633 176.25 44.3426C175.927 44.4407 175.583 44.703 175.217 45.1295C174.458 46.0146 173.86 46.5772 173.424 46.8174Z" fill="#495E4C"/>
<path d="M187.256 70.0173C187.409 70.017 187.485 70.1106 187.486 70.2981C187.486 70.4934 187.27 70.7731 186.837 71.1373C186.404 71.5016 185.903 71.7917 185.333 72.0078C184.767 72.2238 184.248 72.3324 183.775 72.3334C183.084 72.3349 182.452 72.1078 181.881 71.652C181.314 71.1961 181.029 70.5346 181.027 69.6675C181.024 68.0854 181.7 66.5449 183.056 65.0459C184.416 63.5429 185.727 62.7901 186.989 62.7874C187.462 62.7864 187.839 62.932 188.121 63.2244C188.406 63.5129 188.55 63.8504 188.551 64.2372C188.551 64.5965 188.531 64.8798 188.488 65.0869C188.449 65.294 188.327 65.4701 188.12 65.615C187.913 65.7561 187.747 65.8268 187.622 65.827C187.533 65.8272 187.454 65.7883 187.388 65.7104C187.321 65.6324 187.288 65.527 187.288 65.3942C187.287 65.3043 187.32 65.1168 187.386 64.8315C187.452 64.5501 187.484 64.341 187.484 64.2043C187.483 63.8059 187.309 63.607 186.961 63.6078C186.422 63.6089 185.755 63.9209 184.959 64.5437C184.168 65.1626 183.496 65.9492 182.943 66.9036C182.39 67.854 182.115 68.7296 182.117 69.5303C182.118 70.0655 182.277 70.5105 182.594 70.8653C182.915 71.2161 183.371 71.3909 183.961 71.3897C184.3 71.3889 184.712 71.304 185.196 71.135C185.684 70.9621 186.131 70.7326 186.537 70.4466C186.942 70.1606 187.182 70.0175 187.256 70.0173Z" fill="#495E4C"/>
<path d="M192.96 65.6866C192.811 65.2846 192.466 64.8498 191.926 64.3822C191.417 63.9458 191.162 63.5714 191.162 63.2589C191.161 63.0089 191.243 62.8075 191.407 62.6548C191.57 62.4982 191.875 62.3569 192.32 62.231C192.874 62.0774 193.438 61.9043 194.012 61.7117C194.586 61.5151 194.931 61.3894 195.048 61.3345C195.122 61.2991 195.199 61.2814 195.277 61.2812C195.406 61.2809 195.47 61.396 195.471 61.6265C195.471 61.7554 195.315 61.9315 195.003 62.1549C194.691 62.3782 194.139 62.5864 193.346 62.7795C192.847 62.9056 192.54 63 192.427 63.0628C192.318 63.1216 192.263 63.1823 192.263 63.2448C192.264 63.3854 192.416 63.5882 192.722 63.8531C193.872 64.8546 194.449 66.1131 194.453 67.6287C194.454 68.2811 194.284 68.9807 193.941 69.7275C193.599 70.4704 193.141 71.0241 192.568 71.3887C191.999 71.7532 191.44 71.936 190.893 71.9372C190.401 71.9383 190.028 71.6988 189.773 71.2189C189.518 70.739 189.39 70.21 189.388 69.6318C189.386 68.6084 189.699 67.6429 190.326 66.7353C190.956 65.8277 191.623 65.3731 192.327 65.3716C192.42 65.3714 192.538 65.4317 192.678 65.5525C192.808 65.6694 192.901 65.7141 192.96 65.6866ZM190.414 69.6531C190.415 70.0867 190.472 70.4264 190.586 70.6722C190.704 70.9181 190.856 71.0408 191.044 71.0404C191.294 71.0398 191.631 70.8848 192.057 70.5753C192.482 70.2658 192.822 69.808 193.079 69.202C193.339 68.596 193.469 68.0293 193.468 67.5019C193.467 67.0644 193.404 66.7111 193.278 66.4418C193.156 66.1686 193.043 66.0321 192.937 66.0324C192.242 66.0339 191.647 66.459 191.153 67.3077C190.659 68.1564 190.412 68.9382 190.414 69.6531Z" fill="#495E4C"/>
<path d="M220.664 66.0778C220.665 66.1364 220.821 66.2376 221.134 66.3814C221.482 66.5448 221.738 66.7004 221.902 66.8485C222.071 66.9927 222.208 67.1877 222.314 67.4336C222.424 67.6755 222.479 67.9664 222.48 68.3063C222.48 68.6188 222.27 69.045 221.85 69.585C221.433 70.121 220.891 70.5714 220.224 70.9361C219.56 71.297 218.868 71.4781 218.145 71.4797C218.008 71.48 217.817 71.4394 217.57 71.3579C217.328 71.2764 217.207 71.1907 217.207 71.1009C217.205 70.6087 217.553 70.3618 218.248 70.3603C218.463 70.3638 218.674 70.3614 218.881 70.3531C219.088 70.3409 219.351 70.272 219.671 70.1463C219.995 70.0167 220.3 69.8364 220.584 69.6053C220.869 69.3742 221.073 69.1492 221.198 68.9301C221.322 68.7072 221.385 68.4942 221.384 68.2911C221.383 67.9317 221.232 67.6137 220.931 67.337C220.629 67.0603 220.219 66.9225 219.699 66.9236C219.621 66.9238 219.436 66.9867 219.143 67.1123C218.851 67.2418 218.659 67.3067 218.569 67.3069C218.265 67.3076 218.073 67.2689 217.995 67.1909C217.921 67.113 217.883 66.9744 217.883 66.7752C217.882 66.6385 218.21 66.4405 218.866 66.1813C219.51 65.926 220.089 65.536 220.604 65.0115C221.122 64.4869 221.381 64.0684 221.38 63.7559C221.38 63.545 221.27 63.3597 221.051 63.2C220.836 63.0364 220.541 62.955 220.166 62.9558C219.681 62.9568 219.119 63.0245 218.478 63.1586C217.838 63.2889 217.487 63.4166 217.425 63.5418C217.366 63.6669 217.204 64.6184 216.939 66.3964C216.673 68.1704 216.54 69.196 216.541 69.4734C216.541 69.6218 216.549 69.7644 216.565 69.9011C216.577 70.0417 216.583 70.1745 216.584 70.2995C216.585 70.8346 216.326 71.1028 215.806 71.1039C215.662 71.1042 215.542 71.0009 215.448 70.7941C215.354 70.5873 215.307 70.3979 215.306 70.2261C215.306 70.1518 215.37 69.8529 215.498 69.3292C215.652 68.6179 215.807 67.6449 215.96 66.4102C216.114 65.1716 216.19 64.5112 216.19 64.4292C216.19 64.2652 216.166 64.1441 216.119 64.0661C216.076 63.9881 215.974 63.9492 215.814 63.9496C215.752 63.9497 215.689 63.9518 215.627 63.9558C215.568 63.9599 215.507 63.9229 215.445 63.8449C215.386 63.7669 215.357 63.6732 215.356 63.5638C215.356 63.2552 215.867 62.926 216.889 62.5761C217.912 62.2224 219.132 62.044 220.55 62.0409C221.07 62.0398 221.531 62.2146 221.934 62.5653C222.341 62.9159 222.545 63.2768 222.546 63.6479C222.547 63.9135 222.37 64.2909 222.015 64.7799C221.665 65.2651 221.214 65.6977 220.664 66.0778Z" fill="#495E4C"/>
<path d="M225.645 71.3639C225.059 71.3652 224.607 71.1982 224.29 70.8629C223.977 70.5277 223.82 70.0573 223.818 69.4518C223.816 68.4323 224.218 67.3572 225.024 66.2266C225.83 65.092 226.581 64.524 227.276 64.5225C227.593 64.5218 227.865 64.6931 228.092 65.0363C228.323 65.3757 228.439 65.7368 228.44 66.1196C228.44 66.35 228.39 66.5494 228.289 66.7176C228.192 66.8818 228.092 66.9641 227.991 66.9643C227.764 66.9648 227.603 66.7366 227.509 66.2798C227.402 65.7878 227.249 65.5421 227.05 65.5425C226.644 65.5434 226.164 66.0268 225.612 66.9929C225.059 67.9589 224.784 68.774 224.785 69.438C224.786 70.1021 225.164 70.4333 225.918 70.4317C226.492 70.4304 227.167 70.1594 227.944 69.6187C228.217 69.4267 228.418 69.3306 228.546 69.3303C228.679 69.33 228.746 69.406 228.746 69.5584C228.747 69.8553 228.398 70.231 227.7 70.6856C227.002 71.1364 226.317 71.3625 225.645 71.3639Z" fill="#495E4C"/>
</g>
<defs>
<clipPath id="clip0_86_2250">
<rect width="288.709" height="274.126" fill="white" transform="translate(0.338135 0.355957)"/>
</clipPath>
</defs>
</svg>
