<svg width="223" height="253" viewBox="0 0 223 253" fill="none" xmlns="http://www.w3.org/2000/svg">
<g clip-path="url(#clip0_86_2387)">
<path d="M169.933 20.5115L207.93 18.9335C209.567 18.8638 211.202 19.1211 212.738 19.6901C214.274 20.2591 215.682 21.1286 216.877 22.2475C218.073 23.3665 219.034 24.7125 219.702 26.2068C220.371 27.701 220.735 29.3136 220.772 30.95L222.115 89.5805C222.183 92.6743 221.084 95.6806 219.035 98.0018C216.987 100.323 214.139 101.79 211.058 102.11C210.024 102.215 209.069 102.711 208.388 103.495C207.708 104.279 207.352 105.294 207.393 106.331L212.132 230.204C212.288 234.259 210.832 238.211 208.081 241.198C205.33 244.184 201.508 245.961 197.45 246.142L52.3258 252.532C51.7852 252.557 51.2452 252.474 50.737 252.288C50.2288 252.102 49.7625 251.818 49.3651 251.451C48.9677 251.084 48.6471 250.642 48.4219 250.15C48.1967 249.659 48.0713 249.128 48.053 248.587L41.6321 33.5931C41.6008 32.5382 41.9784 31.5119 42.6862 30.7284C43.394 29.9448 44.3773 29.4646 45.4309 29.3878L169.933 20.5115Z" fill="#5CCD6A"/>
<g opacity="0.3">
<path d="M47.9346 244.5L48.053 248.572L204.329 234.212L201.343 19.1859C201.343 19.1859 163.433 24.9298 162.715 24.9298C161.996 24.9298 47.9346 244.5 47.9346 244.5Z" fill="black"/>
</g>
<path d="M150.149 8.96853L195.499 6.20703L200.182 229.076L40.5577 245.25L17.0536 23.5492L150.149 8.96853Z" fill="#EBEBEB"/>
<path d="M150.149 8.96847L147.78 9.25251L140.877 10.0415L114.372 12.9924L17.0696 23.6991L17.2039 23.5334C23.5222 82.9292 31.7202 160.093 40.7633 245.242L40.5422 245.061L76.3197 241.439L200.19 228.886L200.017 229.083C197.979 131.634 196.336 51.6849 195.404 6.20697L195.507 6.30165L161.751 8.28993L153.064 8.79489C151.121 8.90535 150.133 8.9448 150.133 8.9448C150.133 8.9448 151.121 8.8659 153.064 8.73966L161.751 8.18736L195.499 6.08862H195.602V6.19119C196.573 51.6928 198.295 131.642 200.34 229.06V229.241H200.159L76.3592 241.834L40.5817 245.455H40.3763V245.25C31.3648 160.109 23.1984 82.945 16.9196 23.5413V23.3914H17.0696L114.372 12.803L140.885 9.93894L147.796 9.20517C149.352 9.07893 150.149 8.96847 150.149 8.96847Z" fill="#495E4C"/>
<path d="M9.12427 16.1484L30.7329 240.445L197.9 224.72L173.796 0.581421L9.12427 16.1484Z" fill="white"/>
<path d="M9.12427 16.1799L173.78 0.399902H173.946V0.565592C180.722 63.4883 189.07 141.007 198.089 224.696V224.902H197.884L196.699 225.02L30.7487 240.634H30.5671V240.453C17.8593 107.656 9.28223 17.7579 9.12427 16.1799C9.28223 17.8131 18.0094 107.704 30.9146 240.461L30.7171 240.295L196.699 224.657L197.884 224.547L197.695 224.768C188.707 141.023 180.382 63.5198 173.63 0.597152L173.811 0.747062L9.12427 16.1799Z" fill="#495E4C"/>
<path d="M140.784 196.508C140.795 191.639 142.251 186.882 144.968 182.84C147.685 178.798 151.541 175.651 156.048 173.798C160.556 171.945 165.512 171.47 170.29 172.431C175.068 173.392 179.453 175.747 182.891 179.198C186.329 182.649 188.666 187.042 189.605 191.82C190.544 196.597 190.044 201.546 188.168 206.04C186.291 210.534 183.123 214.371 179.064 217.066C175.004 219.76 170.236 221.192 165.362 221.18C158.83 221.157 152.574 218.546 147.966 213.921C143.359 209.296 140.776 203.033 140.784 196.508ZM189.609 196.618C189.621 191.838 188.214 187.162 185.566 183.18C182.918 179.199 179.148 176.092 174.732 174.251C170.316 172.411 165.452 171.92 160.757 172.841C156.062 173.762 151.745 176.053 148.354 179.425C144.962 182.796 142.647 187.097 141.703 191.783C140.758 196.469 141.225 201.33 143.046 205.751C144.867 210.171 147.959 213.953 151.931 216.618C155.903 219.283 160.577 220.711 165.362 220.722C171.775 220.731 177.929 218.197 182.475 213.679C187.02 209.16 189.586 203.024 189.609 196.618Z" fill="#E0E0E0"/>
<path d="M143.619 196.508C143.63 192.262 144.901 188.115 147.271 184.59C149.641 181.066 153.004 178.323 156.935 176.708C160.865 175.093 165.187 174.679 169.353 175.517C173.52 176.355 177.343 178.409 180.342 181.419C183.34 184.428 185.377 188.258 186.196 192.424C187.016 196.59 186.58 200.905 184.945 204.824C183.309 208.743 180.548 212.089 177.009 214.44C173.469 216.791 169.312 218.041 165.062 218.032C159.363 218.013 153.904 215.736 149.884 211.7C145.864 207.665 143.611 202.201 143.619 196.508ZM183.433 196.602C183.442 192.982 182.376 189.44 180.37 186.424C178.364 183.408 175.508 181.055 172.163 179.661C168.818 178.267 165.135 177.896 161.578 178.593C158.022 179.291 154.753 181.027 152.184 183.581C149.615 186.135 147.862 189.393 147.147 192.942C146.432 196.492 146.786 200.173 148.165 203.522C149.545 206.87 151.887 209.734 154.896 211.752C157.905 213.771 161.446 214.852 165.07 214.86C169.921 214.858 174.574 212.935 178.01 209.513C181.446 206.091 183.384 201.449 183.401 196.602H183.433Z" fill="#E0E0E0"/>
<path d="M148.879 196.847C148.88 194.379 149.465 191.945 150.585 189.746L153.413 191.174C152.517 192.94 152.048 194.891 152.046 196.871C152.041 199.132 152.639 201.355 153.779 203.309C154.919 205.263 156.56 206.878 158.533 207.987C160.507 209.097 162.74 209.66 165.004 209.62C167.268 209.58 169.48 208.937 171.412 207.759L173.063 210.457C170.649 211.93 167.885 212.732 165.057 212.782C162.229 212.831 159.439 212.126 156.974 210.739C154.51 209.352 152.461 207.334 151.038 204.892C149.615 202.45 148.87 199.673 148.879 196.847Z" fill="#E0E0E0"/>
<path d="M157.441 182.771C160.54 181.165 164.081 180.622 167.52 181.225C170.958 181.829 174.102 183.546 176.467 186.111C178.832 188.676 180.287 191.948 180.606 195.421C180.926 198.894 180.093 202.375 178.236 205.329L175.551 203.632C177.037 201.268 177.704 198.481 177.447 195.701C177.191 192.921 176.027 190.302 174.133 188.249C172.239 186.196 169.722 184.822 166.97 184.34C164.217 183.857 161.382 184.293 158.902 185.58L157.441 182.771Z" fill="#E0E0E0"/>
<path d="M169.831 58.2887C169.831 58.3992 138.302 61.4447 99.3816 65.1372C60.4607 68.8297 28.8928 71.6938 28.8849 71.5833C28.877 71.4729 60.4133 68.4273 99.3421 64.7269C138.271 61.0265 169.823 58.1704 169.831 58.2887Z" fill="#495E4C"/>
<path d="M93.3554 56.5214C93.3554 56.6319 78.8074 58.0994 60.8397 59.7958C42.872 61.4921 28.3004 62.7703 28.2846 62.6598C28.2688 62.5494 42.8325 61.0818 60.8002 59.3855C78.7679 57.6891 93.3396 56.4189 93.3554 56.5214Z" fill="#495E4C"/>
<path d="M170.447 67.4648C170.447 67.5752 138.91 70.6208 99.9975 74.3133C61.0846 78.0058 29.5088 80.8699 29.5009 80.7594C29.493 80.649 61.0293 77.6034 99.958 73.9109C138.887 70.2184 170.439 67.3149 170.447 67.4648Z" fill="#495E4C"/>
<path d="M171.063 76.5622C171.063 76.6805 139.527 79.7182 100.614 83.4186C61.7008 87.119 30.125 89.9752 30.1171 89.8568C30.1092 89.7385 61.6455 86.7008 100.574 83.0083C139.503 79.3158 171.055 76.4517 171.063 76.5622Z" fill="#495E4C"/>
<path d="M171.679 85.7065C171.679 85.817 140.143 88.8625 101.23 92.555C62.3166 96.2475 30.7408 99.1116 30.7329 99.0248C30.725 98.938 62.2613 95.8688 101.19 92.1684C140.119 88.468 171.671 85.6118 171.679 85.7065Z" fill="#495E4C"/>
<path d="M172.295 94.8431C172.295 94.9535 140.759 97.9991 101.838 101.692C62.9169 105.384 31.3569 108.248 31.3411 108.138C31.3253 108.027 62.8695 104.982 101.798 101.281C140.727 97.5809 172.279 94.7326 172.295 94.8431Z" fill="#495E4C"/>
<path d="M172.903 103.98C172.903 104.098 141.375 107.136 102.454 110.836C63.5329 114.536 31.965 117.393 31.965 117.274C31.965 117.156 63.4934 114.118 102.422 110.426C141.351 106.733 172.895 103.869 172.903 103.98Z" fill="#495E4C"/>
<path d="M173.519 113.124C173.519 113.235 142.401 116.28 104.018 119.886C65.6338 123.492 34.4528 126.356 34.4449 126.245C34.437 126.135 65.5627 123.089 103.986 119.476C142.409 115.862 173.511 113.006 173.519 113.124Z" fill="#495E4C"/>
<path d="M119.213 130.703C119.213 130.814 100.424 132.597 77.2358 134.648C54.0476 136.699 35.2269 138.333 35.219 138.222C35.2111 138.112 54.0002 136.329 77.1963 134.238C100.392 132.147 119.197 130.585 119.213 130.703Z" fill="#495E4C"/>
<path d="M96.3882 206.242C96.3882 206.352 84.96 207.417 70.8385 208.609C56.7171 209.8 45.273 210.692 45.2572 210.573C45.2414 210.455 56.6855 209.398 70.8069 208.206C84.9284 207.015 96.3803 206.123 96.3882 206.242Z" fill="#495E4C"/>
<path d="M74.4162 214.96C74.4162 215.079 68.011 215.749 60.0894 216.388C52.1678 217.027 45.731 217.509 45.7152 217.398C45.6994 217.288 52.1283 216.649 60.0499 215.978C67.9715 215.307 74.4083 214.85 74.4162 214.96Z" fill="#495E4C"/>
<path d="M72.655 150.641C72.655 150.76 65.1204 151.588 55.793 152.511C46.4656 153.434 38.8994 154.089 38.8915 153.971C38.8836 153.853 46.4261 153.016 55.7535 152.101C65.0809 151.186 72.6471 150.531 72.655 150.641Z" fill="#5CCD6A"/>
<g opacity="0.3">
<path d="M27.2894 202.494L42.635 199.535L51.2122 186.612L26.7603 194.636L27.2894 202.494Z" fill="black"/>
</g>
<path d="M0.373413 185.98L41.3477 182.106L51.2122 186.612L43.338 195.456L1.71606 199.938L0.373413 185.98Z" fill="#5CCD6A"/>
<path d="M124.615 149.631L124.758 149.679C124.896 149.726 125.029 149.79 125.152 149.868C125.646 150.169 126.091 150.545 126.471 150.981C127.906 152.679 129.031 154.615 129.796 156.701C131.117 159.966 131.704 163.481 131.518 166.997C131.437 168.065 131.249 169.123 130.957 170.153C130.624 171.238 130.201 172.294 129.694 173.309C128.593 175.52 127.112 177.521 125.318 179.219C123.358 181.101 121.062 182.6 118.55 183.637C115.818 184.777 112.852 185.245 109.902 185.002C106.651 184.657 103.545 183.479 100.885 181.58C98.2255 179.682 96.1023 177.129 94.7218 174.169C93.989 172.584 93.5246 170.888 93.3476 169.151C93.1283 167.37 93.3173 165.562 93.9004 163.865C94.4446 162.088 95.5537 160.537 97.0596 159.446C97.8486 158.915 98.7532 158.579 99.6982 158.466C100.643 158.354 101.601 158.468 102.493 158.8C104.314 159.454 105.848 160.724 106.829 162.389C107.796 164.064 108.382 165.931 108.543 167.857C108.939 171.764 108.361 175.708 106.861 179.337C105.381 182.98 102.978 186.175 99.8871 188.608C96.8534 190.94 93.2355 192.392 89.4302 192.805C85.7593 193.253 82.0367 192.648 78.697 191.062C75.5186 189.484 72.8679 187.016 71.0676 183.961C69.3181 181.082 68.4225 177.766 68.485 174.398C68.4957 172.776 68.8091 171.171 69.409 169.664C69.972 168.195 70.8986 166.892 72.1022 165.877C72.6917 165.383 73.3768 165.016 74.1147 164.799C74.8526 164.582 75.6275 164.519 76.3908 164.614C77.8543 164.857 79.1884 165.598 80.166 166.713C81.1095 167.764 81.7627 169.042 82.0615 170.421C82.3142 171.724 82.3142 173.064 82.0615 174.366C81.5423 176.779 80.5897 179.078 79.2498 181.152C78.1154 183.03 76.7923 184.788 75.3009 186.399C74.0052 187.797 72.6002 189.089 71.0992 190.265C69.827 191.235 68.492 192.121 67.1029 192.916C65.1839 194.024 63.1501 194.921 61.0373 195.591C60.3058 195.835 59.5625 196.044 58.8101 196.214C58.8101 196.214 58.9996 196.143 59.3708 196.032C59.742 195.922 60.3028 195.78 61.0136 195.512C63.1055 194.81 65.1195 193.895 67.0239 192.782C68.396 191.975 69.715 191.082 70.9728 190.107C72.4555 188.93 73.842 187.637 75.1192 186.241C76.6006 184.657 77.9183 182.929 79.0524 181.081C80.3613 179.027 81.2921 176.756 81.8009 174.374C82.0497 173.098 82.0497 171.785 81.8009 170.508C81.5126 169.185 80.8807 167.96 79.9685 166.958C79.0373 165.903 77.7712 165.201 76.3829 164.969C75.6657 164.883 74.9385 164.946 74.2467 165.154C73.5549 165.361 72.9136 165.71 72.3629 166.177C71.2057 167.157 70.3148 168.414 69.7724 169.83C69.1948 171.29 68.8948 172.844 68.8878 174.414C68.84 177.718 69.73 180.968 71.4546 183.787C73.2287 186.767 75.8257 189.172 78.9339 190.715C82.2089 192.255 85.852 192.843 89.446 192.411C93.182 192 96.7334 190.573 99.7133 188.284C102.742 185.886 105.092 182.74 106.529 179.156C107.999 175.587 108.568 171.713 108.188 167.873C108.024 166.007 107.458 164.198 106.529 162.571C105.595 160.991 104.14 159.783 102.414 159.155C101.57 158.851 100.668 158.743 99.7765 158.839C98.901 158.953 98.0633 159.266 97.3281 159.754C95.8931 160.794 94.8367 162.273 94.319 163.967C93.7493 165.611 93.5655 167.363 93.782 169.088C93.9318 170.78 94.3671 172.433 95.0693 173.98C96.4221 176.881 98.5005 179.386 101.104 181.252C103.708 183.117 106.748 184.281 109.933 184.631C112.83 184.873 115.744 184.421 118.431 183.314C120.912 182.296 123.181 180.824 125.121 178.974C127.716 176.523 129.634 173.444 130.689 170.035C130.984 169.029 131.172 167.995 131.25 166.95C131.462 163.453 130.904 159.951 129.615 156.693C128.871 154.615 127.776 152.68 126.377 150.973C126.008 150.536 125.58 150.154 125.105 149.836C124.805 149.694 124.607 149.655 124.615 149.631Z" fill="#495E4C"/>
<path d="M137.236 39.2581C137.236 39.2581 137.236 39.124 137.181 38.8715C137.126 38.619 137.102 38.2324 137.047 37.7511C136.936 36.757 136.778 35.2973 136.565 33.4116L134.796 17.1425L134.93 17.2529L49.6326 26.2317L49.8142 26.0108C50.604 33.601 51.3938 41.0018 52.1204 48.1422L51.8993 47.9607L112.768 41.704L130.697 39.8893L135.53 39.408L136.786 39.2897H137.228L136.818 39.3449L135.585 39.4869L130.799 40.0155L112.926 41.9407L51.9546 48.3631H51.7492V48.1659C50.9594 41.0649 50.2249 33.6246 49.4272 26.0345V25.8293H49.6326L134.906 16.9689H135.033V17.0872C135.736 24.1014 136.296 29.6481 136.675 33.4511C136.857 35.3289 136.999 36.7727 137.094 37.7669C137.141 38.2482 137.173 38.6111 137.197 38.8715C137.22 39.1318 137.236 39.2581 137.236 39.2581Z" fill="#455A64"/>
<path d="M55.5907 40.9953L54.7246 31.8543L59.3212 31.4188C60.4268 31.314 61.2547 31.4771 61.805 31.9081C62.3545 32.3304 62.6787 33.0638 62.7777 34.1085C62.8767 35.1532 62.6964 35.9388 62.2369 36.4655C61.7765 36.9834 60.9935 37.2948 59.8879 37.3996L56.8714 37.6854L57.1708 40.8455L55.5907 40.9953ZM56.7303 36.1967L59.6554 35.9196C60.2387 35.8643 60.6541 35.7063 60.9017 35.4457C61.1485 35.1764 61.2471 34.7806 61.1976 34.2582C61.1473 33.7272 60.9761 33.3569 60.6839 33.1474C60.4005 32.9371 59.9628 32.86 59.3708 32.9161L56.4457 33.1933L56.7303 36.1967Z" fill="#78C081"/>
<path d="M66.8881 40.0434C66.0002 40.1275 65.3316 40.024 64.8824 39.7327C64.4323 39.4328 64.1731 38.9216 64.1046 38.199C64.0337 37.4503 64.2097 36.8978 64.6327 36.5415C65.0636 36.1757 65.7926 35.9441 66.8199 35.8468L69.0007 35.6401C68.9321 35.102 68.7426 34.7247 68.4322 34.5082C68.1297 34.2821 67.6738 34.198 67.0644 34.2557C66.5682 34.3027 66.193 34.4217 65.9388 34.6127C65.6837 34.795 65.5296 35.0687 65.4764 35.4339L64.0008 35.5737C64.0459 34.7525 64.3037 34.1352 64.7739 33.7217C65.2434 33.2995 65.983 33.0406 66.9929 32.9449C68.1246 32.8377 68.9648 32.9908 69.5135 33.4044C70.0708 33.8171 70.3978 34.5328 70.4943 35.5513L70.8729 39.5472L69.3842 39.6883L69.3112 38.9178C68.8624 39.5576 68.0547 39.9328 66.8881 40.0434ZM65.5753 38.0069C65.628 38.5641 66.142 38.7965 67.117 38.7041C67.7873 38.6406 68.2807 38.4709 68.5971 38.1949C68.9135 37.919 69.0905 37.5157 69.1281 36.9852L69.1058 36.7501L67.3168 36.9196C66.098 37.0351 65.5175 37.3975 65.5753 38.0069Z" fill="#78C081"/>
<path d="M72.0594 37.3003L73.535 37.1605C73.7764 37.7613 74.4194 38.0122 75.4641 37.9132C76.5088 37.8142 77.0092 37.534 76.9655 37.0726C76.9268 36.6634 76.281 36.4304 75.0283 36.3734C73.9443 36.3356 73.1655 36.181 72.6918 35.9096C72.226 35.6288 71.9626 35.1662 71.9015 34.522C71.8364 33.8343 72.0188 33.3031 72.4489 32.9286C72.8876 32.5532 73.6076 32.3181 74.6087 32.2233C75.6273 32.1268 76.4103 32.2326 76.9577 32.5409C77.5052 32.8492 77.8722 33.3853 78.0588 34.1494L76.5832 34.2892C76.4561 33.9675 76.2423 33.7506 75.9418 33.6385C75.6492 33.5169 75.2374 33.4813 74.7063 33.5316C73.7487 33.6223 73.2905 33.8853 73.3318 34.3206C73.3524 34.5383 73.5082 34.6992 73.7991 34.8034C74.098 34.898 74.5519 34.9604 75.1608 34.9906C76.3169 35.0479 77.1271 35.2083 77.5912 35.4717C78.0632 35.7257 78.3294 36.1704 78.3896 36.8059C78.4564 37.5111 78.263 38.0652 77.8093 38.4683C77.3556 38.8714 76.602 39.1229 75.5487 39.2227C74.5214 39.3201 73.7297 39.215 73.1735 38.9076C72.6261 38.5993 72.2547 38.0636 72.0594 37.3003Z" fill="#78C081"/>
<path d="M83.0626 38.5107C81.8786 38.6229 80.9903 38.426 80.3978 37.92C79.8053 37.414 79.4508 36.5472 79.3345 35.3197C79.2182 34.0922 79.4035 33.1743 79.8905 32.566C80.3774 31.9577 81.2129 31.5975 82.3969 31.4853C83.4503 31.3855 84.2627 31.5237 84.8341 31.9C85.4056 32.2762 85.7964 32.9243 86.0066 33.8443L84.5309 33.9841C84.3923 33.5405 84.1655 33.2326 83.8505 33.0604C83.5355 32.8882 83.1038 32.8281 82.5554 32.8801C81.8763 32.9444 81.4006 33.1608 81.128 33.5292C80.8547 33.8889 80.7531 34.4387 80.8232 35.1787C80.8933 35.9187 81.0968 36.444 81.4337 36.7546C81.7697 37.0566 82.2772 37.1754 82.9563 37.111C83.496 37.0599 83.9044 36.9202 84.1814 36.6919C84.4663 36.4541 84.6356 36.1087 84.6893 35.6556L86.1649 35.5158C86.1392 36.4493 85.8771 37.1593 85.3786 37.6457C84.888 38.1226 84.1159 38.4109 83.0626 38.5107Z" fill="#78C081"/>
<path d="M90.1358 37.8405C89.2478 37.9247 88.5792 37.8211 88.13 37.5299C87.6799 37.23 87.4207 36.7187 87.3522 35.9962C87.2813 35.2475 87.4573 34.695 87.8803 34.3387C88.3112 33.9729 89.0402 33.7413 90.0675 33.644L92.2483 33.4373C92.1797 32.8992 91.9902 32.5219 91.6799 32.3054C91.3774 32.0793 90.9214 31.9951 90.312 32.0529C89.8158 32.0999 89.4406 32.2189 89.1864 32.4099C88.9314 32.5921 88.7772 32.8659 88.724 33.2311L87.2484 33.3709C87.2935 32.5497 87.5513 31.9324 88.0215 31.5189C88.491 31.0967 89.2307 30.8378 90.2405 30.7421C91.3722 30.6348 92.2124 30.788 92.7611 31.2016C93.3184 31.6143 93.6454 32.3299 93.7419 33.3485L94.1205 37.3444L92.6318 37.4854L92.5588 36.715C92.11 37.3548 91.3023 37.73 90.1358 37.8405ZM88.8229 35.8041C88.8757 36.3613 89.3896 36.5937 90.3646 36.5013C91.0349 36.4378 91.5283 36.268 91.8447 35.9921C92.1612 35.7162 92.3382 35.3129 92.3757 34.7823L92.3534 34.5473L90.5644 34.7168C89.3456 34.8323 88.7651 35.1947 88.8229 35.8041Z" fill="#78C081"/>
<path d="M95.847 37.1808L94.919 27.3869L96.3946 27.2471L97.3226 37.041L95.847 37.1808Z" fill="#78C081"/>
<path d="M101.101 27.46L102.772 27.3016L106.811 34.4686L109.432 26.6706L111.103 26.5122L107.869 36.0416L106.067 36.2124L101.101 27.46Z" fill="#78C081"/>
<path d="M111.968 32.2276C111.852 31.0088 112.043 30.0948 112.538 29.4857C113.033 28.8679 113.89 28.5012 115.109 28.3857C116.327 28.2702 117.233 28.4655 117.826 28.9715C118.418 29.4775 118.773 30.3443 118.889 31.5718C118.898 31.6675 118.904 31.8207 118.906 32.0313L113.539 32.5398C113.649 33.1443 113.874 33.571 114.214 33.8198C114.562 34.0679 115.046 34.1626 115.664 34.1041C116.578 34.0175 117.136 33.6527 117.339 33.0099L118.88 32.8639C118.784 33.7074 118.469 34.3214 117.934 34.7058C117.4 35.0903 116.68 35.3254 115.774 35.4112C114.556 35.5266 113.645 35.3318 113.044 34.8266C112.443 34.3214 112.084 33.4551 111.968 32.2276ZM113.447 31.4286L117.325 31.0611C117.194 30.5114 116.961 30.1339 116.625 29.9285C116.289 29.7145 115.829 29.6351 115.245 29.6903C114.662 29.7456 114.221 29.9104 113.922 30.1846C113.632 30.4581 113.473 30.8728 113.447 31.4286Z" fill="#78C081"/>
<path d="M119.981 28.0426L121.457 27.9027L121.534 28.7124C121.954 28.0489 122.708 27.6656 123.796 27.5625C124.763 27.4709 125.491 27.6479 125.981 28.0933C126.479 28.5292 126.779 29.2782 126.879 30.3403L127.246 34.2056L125.77 34.3454L125.404 30.4801C125.349 29.9056 125.166 29.5013 124.854 29.2674C124.551 29.0326 124.099 28.9437 123.498 29.0006C122.819 29.0649 122.343 29.2769 122.069 29.6366C121.805 29.9955 121.708 30.5493 121.779 31.2979L122.1 34.6931L120.625 34.833L119.981 28.0426Z" fill="#78C081"/>
<path d="M130.306 27.0643L132.278 26.8774L132.409 28.2616L130.437 28.4485L130.714 31.3736C130.751 31.7566 130.869 32.0265 131.068 32.1833C131.267 32.3401 131.576 32.3987 131.994 32.3591L132.882 32.275L133.013 33.6592L132.086 33.747C131.172 33.8336 130.488 33.7139 130.036 33.3879C129.591 33.0523 129.331 32.484 129.255 31.6831L128.962 28.5883L127.891 28.6897L127.76 27.3055L128.83 27.2041L128.689 25.7154L130.165 25.5756L130.306 27.0643Z" fill="#78C081"/>
</g>
<defs>
<clipPath id="clip0_86_2387">
<rect width="221.742" height="252.132" fill="white" transform="translate(0.373413 0.399902)"/>
</clipPath>
</defs>
</svg>
