<svg width="529" height="80" viewBox="0 0 529 80" fill="none" xmlns="http://www.w3.org/2000/svg">
<path d="M528 66.6853C515.96 55.3466 448.29 35.7152 440.257 28.5159C427.87 17.415 414.863 9.4214 397.882 4.03228C367.469 -5.61996 328.117 9.56017 309.564 24.4669C296.911 35.8996 294.037 46.161 294.037 56.4232C294.037 69.7639 309.564 79 321.137 79C332.71 79.0002 343.43 79 353.575 66.6853C370.328 46.3484 350.341 20.5337 326.043 15.9894C294.438 10.0786 275.215 3.06165 245.586 12.9803C218.935 21.9018 200.099 29.5414 175.506 36.8851C157.876 42.1494 131.964 35.5523 119.607 32.0256C77.0371 19.8771 45.7194 35.4412 1 3.43751" stroke="#5CCD6A" stroke-linecap="round" stroke-dasharray="8 8"/>
</svg>
