<svg width="239" height="221" viewBox="0 0 239 221" fill="none" xmlns="http://www.w3.org/2000/svg">
<g clip-path="url(#clip0_86_2175)">
<path d="M85.0871 8.20229L10.6387 104.909L210.857 55.1363L99.3292 4.61243C96.8989 3.5134 94.168 3.27 91.5817 3.92192C88.9953 4.57383 86.7061 6.0826 85.0871 8.20229Z" fill="#EBEBEB"/>
<path d="M9.58325 105.598L84.7591 7.94432C86.4302 5.74178 88.8019 4.17438 91.4833 3.50048C94.1647 2.82659 96.9956 3.08642 99.5095 4.23715L212.132 55.2538L9.58325 105.598ZM94.4415 3.92431C92.6927 3.92549 90.9679 4.33137 89.4021 5.1102C87.8364 5.88902 86.4721 7.01965 85.416 8.41358L11.6871 104.229L209.606 55.027L99.1732 4.97232C97.6862 4.30191 96.0727 3.95788 94.4415 3.96341V3.92431Z" fill="#E0E0E0"/>
<path d="M10.637 104.937L211.56 54.9896L238.624 163.861C239.16 166.017 238.818 168.298 237.672 170.201C236.527 172.104 234.672 173.475 232.516 174.011L47.8582 219.914C45.7023 220.45 43.4218 220.108 41.5183 218.962C39.6149 217.817 38.2445 215.962 37.7085 213.806L10.6446 104.935L10.637 104.937Z" fill="#F0F0F0"/>
<path d="M199.188 60.9315L129.581 132.048L24.3414 108.366L12.3048 52.563C11.6341 49.6823 12.1235 46.6533 13.6674 44.1304C15.2112 41.6076 17.6856 39.7933 20.556 39.0795L172.753 1.26484C174.188 0.906891 175.68 0.835445 177.142 1.05459C178.605 1.27373 180.01 1.77915 181.276 2.54193C182.543 3.30471 183.648 4.30987 184.525 5.49987C185.403 6.68986 186.038 8.04133 186.393 9.47692L199.188 60.9315Z" fill="white"/>
<path d="M120.024 126.456L37.3711 212.832C37.6621 214.006 38.1817 215.112 38.9003 216.085C39.6188 217.058 40.5222 217.881 41.5587 218.505C42.5953 219.129 43.7447 219.542 44.9411 219.721C46.1376 219.901 47.3577 219.843 48.5317 219.55L231.779 173.977C234.149 173.387 236.189 171.881 237.448 169.788C238.708 167.695 239.085 165.187 238.497 162.816L238.325 162.128L130.238 124.016C128.481 123.395 126.583 123.295 124.771 123.728C122.959 124.161 121.31 125.109 120.024 126.456Z" fill="#E0E0E0"/>
<path d="M93.6157 47.3419L34.0745 62.1541L35.5868 68.2334L95.1281 53.4212L93.6157 47.3419Z" fill="#E0E0E0"/>
<path d="M170.014 44.703L37.9076 77.5674L39.6163 84.4361L171.723 51.5717L170.014 44.703Z" fill="#E0E0E0"/>
<path d="M174.193 61.4835L42.0862 94.3479L43.7949 101.217L175.901 68.3522L174.193 61.4835Z" fill="#E0E0E0"/>
<path d="M176.977 83.7144L172.839 87.8517L61.9293 116.844L47.4369 113.458L46.8894 111.886L178.572 79.1312L179.143 81.4072L176.977 83.7144Z" fill="#E0E0E0"/>
<path d="M148.602 112.613L98.6412 125.033L83.3667 121.545L158.034 102.97L148.602 112.613Z" fill="#E0E0E0"/>
<path d="M117.005 129.6C117.005 129.6 116.95 129.686 116.817 129.835L116.223 130.484L113.923 132.932L105.406 141.95C98.1951 149.544 88.1999 160.04 77.1331 171.545C66.0663 183.049 55.899 193.389 48.4925 200.787C44.7853 204.487 41.7664 207.474 39.6703 209.516L37.2536 211.862L36.6123 212.464C36.5454 212.539 36.4692 212.605 36.3855 212.66C36.4433 212.578 36.5087 212.502 36.581 212.433L37.1911 211.799L39.5374 209.398L48.2578 200.576C55.6252 193.154 65.7378 182.776 76.8281 171.255C87.9183 159.735 97.9449 149.356 105.179 141.746L113.782 132.823L116.129 130.414L116.754 129.796L117.005 129.6Z" fill="#FAFAFA"/>
<path d="M238.325 162.128C238.286 162.238 215.237 154.237 186.847 144.257C158.456 134.277 135.47 126.097 135.509 125.987C135.548 125.878 158.597 133.871 186.987 143.882C215.378 153.893 238.364 162.011 238.325 162.128Z" fill="#FAFAFA"/>
<path d="M202.497 57.5062C202.453 57.5759 202.404 57.6414 202.348 57.7018L201.871 58.2414L200.018 60.2983L193.119 67.7987C187.261 74.1103 179.112 82.7604 169.977 92.2003C160.842 101.64 152.45 110.064 146.334 116.117L139.053 123.25L137.05 125.166L136.526 125.659C136.401 125.768 136.339 125.823 136.331 125.815C136.38 125.748 136.435 125.686 136.495 125.627L136.988 125.103L138.935 123.133L146.115 115.906C152.184 109.798 160.537 101.335 169.664 91.9032C178.791 82.471 186.98 73.8444 192.893 67.5954L199.931 60.1888L201.785 58.1867L202.293 57.6705C202.354 57.6077 202.423 57.5525 202.497 57.5062Z" fill="#FAFAFA"/>
<path d="M117.005 129.6C116.912 129.595 116.82 129.579 116.731 129.553L115.949 129.366L112.821 128.584C110.146 127.911 106.259 126.965 101.449 125.838C91.8367 123.562 78.5019 120.63 63.767 117.439C49.0322 114.248 35.7052 111.268 26.1088 108.914C21.3066 107.741 17.4274 106.755 14.7604 106.036L11.7337 105.23L10.9516 105.003C10.8592 104.984 10.7698 104.952 10.6857 104.909L10.9594 104.964L11.7415 105.144L14.8308 105.926C17.5134 106.599 21.4005 107.537 26.2104 108.671C35.8225 110.947 49.1495 113.88 63.8922 117.071C78.6348 120.262 91.954 123.242 101.55 125.596C106.353 126.769 110.232 127.747 112.899 128.474L115.965 129.311L116.747 129.538L117.005 129.6Z" fill="#FAFAFA"/>
<path d="M199.188 60.9318C199.188 60.9318 199.11 60.6737 198.977 60.1497L198.406 57.9364C197.906 55.9733 197.178 53.103 196.24 49.4036L188.364 18.0256C187.952 16.3675 187.527 14.6704 187.089 12.9341C186.878 12.0738 186.659 11.19 186.432 10.3062C186.323 9.86044 186.221 9.41464 186.08 8.98449C185.952 8.54629 185.792 8.11769 185.603 7.70184C184.828 5.94724 183.609 4.42502 182.066 3.2853C180.523 2.14558 178.71 1.42774 176.805 1.20256C175.814 1.07874 174.812 1.0919 173.825 1.24166C172.839 1.41372 171.838 1.68746 170.829 1.92991L164.69 3.49412L151.879 6.65382L94.8323 20.8568L37.7387 35.0285L24.9357 38.2039L21.8464 38.986C20.8317 39.1893 19.8371 39.4825 18.8744 39.8619C17.9406 40.2558 17.0686 40.7827 16.2856 41.4261C15.5075 42.0526 14.8205 42.7844 14.2443 43.6004C13.6763 44.4007 13.2137 45.2707 12.8678 46.1892C12.5442 47.0957 12.334 48.0388 12.2421 48.9969C12.0075 50.9131 12.5393 52.7588 12.9147 54.5811C13.6969 58.2309 14.4451 61.7269 15.1594 65.0691C17.9906 78.4509 20.3369 89.2596 21.9011 96.7443C22.6832 100.483 23.2933 103.377 23.7156 105.347C23.9189 106.325 24.0675 107.076 24.177 107.592C24.2865 108.108 24.3178 108.374 24.3178 108.374C24.3178 108.374 24.2474 108.116 24.1301 107.592C24.0128 107.068 23.8486 106.333 23.6296 105.363C23.1916 103.384 22.5581 100.491 21.7369 96.76C20.1023 89.2831 17.7481 78.4744 14.8387 65.1317C14.1192 61.7895 13.3605 58.2935 12.5628 54.6437C12.1874 52.8449 11.6399 50.9365 11.8746 48.9578C11.9696 47.9885 12.1851 47.0348 12.5159 46.1188C12.8732 45.1711 13.3488 44.2724 13.9315 43.444C14.524 42.6008 15.2323 41.8452 16.0353 41.1993C16.8395 40.5289 17.7382 39.9807 18.7023 39.5726C19.6809 39.1732 20.6941 38.8642 21.7291 38.6497L24.8575 37.8676L37.6683 34.6766L94.7619 20.4736L151.855 6.30187L164.604 3.10307L170.743 1.58579C171.752 1.33551 172.738 1.0696 173.77 0.889714C175.278 0.664535 176.815 0.742224 178.292 1.11824C179.769 1.49425 181.157 2.16104 182.373 3.0796C183.921 4.25124 185.143 5.79935 185.924 7.5767C186.12 8.00383 186.282 8.44579 186.409 8.89845C186.55 9.34425 186.659 9.79005 186.769 10.2359C186.988 11.1196 187.207 12.0034 187.418 12.8715C187.848 14.6078 188.262 16.305 188.677 17.963L196.42 49.3958C197.327 53.1029 197.984 55.9811 198.508 57.9442C198.735 58.9218 198.915 59.6648 199.032 60.1732C199.149 60.6815 199.188 60.9318 199.188 60.9318Z" fill="#E0E0E0"/>
<path d="M111.741 19.6525L104.006 25.5417L104.382 36.7884L97.3036 31.1651L93.393 34.5125L78.5331 16.1643L111.741 19.6525Z" fill="#5CCD6A"/>
<g opacity="0.3">
<path d="M101.105 27.9344C101.105 28.2786 104.382 36.7879 104.382 36.7879L97.3036 31.1645L101.105 27.9344Z" fill="black"/>
</g>
<path d="M78.5331 16.1643L101.097 27.935L104.382 36.7884L104.006 25.5417L78.5331 16.1643Z" fill="#54BE61"/>
<path d="M141.101 167.908C139.711 167.862 138.345 167.529 137.089 166.93C138.48 166.976 139.846 167.309 141.101 167.908Z" fill="#495D4C"/>
<path d="M147.499 169.472C147.499 169.59 146.913 169.55 146.256 169.394C145.599 169.238 145.082 169.003 145.106 168.886C145.129 168.768 145.692 168.807 146.357 168.972C147.022 169.136 147.53 169.355 147.499 169.472Z" fill="#495D4C"/>
<path d="M121.095 35.3178C120.402 35.3279 119.711 35.2194 119.054 34.9971C118.366 34.915 117.698 34.7083 117.083 34.3871C117.78 34.2955 118.489 34.365 119.156 34.5904C119.851 34.6734 120.517 34.9229 121.095 35.3178Z" fill="#495D4C"/>
<path d="M128.666 38.5632C127.989 38.4153 127.344 38.1507 126.758 37.7811C126.11 37.5374 125.509 37.1827 124.982 36.733C125.681 36.7994 126.353 37.0299 126.945 37.4056C127.97 37.9062 128.729 38.4615 128.666 38.5632Z" fill="#495D4C"/>
<path d="M135.228 43.5375C135.142 43.6235 134.446 43.0369 133.57 42.3018C132.694 41.5666 132.006 40.9409 132.107 40.8392C132.769 41.077 133.366 41.4653 133.851 41.9733C134.72 42.7241 135.306 43.4593 135.228 43.5375Z" fill="#495D4C"/>
<path d="M140.233 50.068C140.124 50.1228 139.608 49.3641 138.982 48.4256C138.547 47.8853 138.204 47.2777 137.965 46.6268C138.051 46.5564 138.708 47.229 139.342 48.191C139.783 48.7374 140.089 49.3806 140.233 50.068Z" fill="#495D4C"/>
<path d="M143.072 57.7877C142.737 57.1811 142.504 56.523 142.384 55.8402C142.123 55.1956 141.977 54.5098 141.954 53.8146C142.383 54.3735 142.671 55.0284 142.791 55.7229C143.054 56.3774 143.15 57.0867 143.072 57.7877Z" fill="#495D4C"/>
<path d="M143.495 65.9997C143.355 65.3206 143.326 64.6234 143.409 63.935C143.35 63.2436 143.413 62.5473 143.596 61.8781C143.84 62.5374 143.923 63.2451 143.839 63.9428C143.888 64.646 143.77 65.3509 143.495 65.9997Z" fill="#495D4C"/>
<path d="M141.36 73.9303C141.444 73.2436 141.639 72.5753 141.938 71.9515C142.098 71.2809 142.362 70.6396 142.72 70.051C142.759 70.7557 142.616 71.4584 142.306 72.0923C142.147 72.7736 141.822 73.4049 141.36 73.9303Z" fill="#495D4C"/>
<path d="M136.581 80.6095C136.503 80.5157 137.113 79.8274 137.856 78.9827C138.599 78.1381 139.193 77.4185 139.295 77.5046C139.073 78.1744 138.689 78.7789 138.176 79.2643C137.418 80.1324 136.659 80.6955 136.581 80.6095Z" fill="#495D4C"/>
<path d="M129.683 85.0518C130.211 84.6048 130.808 84.2457 131.45 83.9881C132.028 83.6051 132.665 83.3197 133.335 83.1434C132.881 83.6846 132.301 84.1062 131.646 84.3713C131.057 84.7566 130.383 84.9903 129.683 85.0518Z" fill="#495D4C"/>
<path d="M121.659 86.7881C122.309 86.5572 122.994 86.4356 123.684 86.4283C124.361 86.2729 125.058 86.228 125.749 86.2953C125.136 86.6449 124.445 86.8358 123.739 86.8506C123.051 87.005 122.336 86.9835 121.659 86.7881Z" fill="#495D4C"/>
<path d="M113.603 85.2236C114.292 85.2937 114.966 85.465 115.605 85.732C116.282 85.8651 116.935 86.097 117.545 86.4203C116.844 86.5077 116.132 86.4106 115.48 86.1387C114.784 86.0061 114.136 85.6902 113.603 85.2236Z" fill="#495D4C"/>
<path d="M107.932 79.5925C108.05 79.5925 108.41 80.3746 109.051 81.2975C109.692 82.2204 110.31 82.8617 110.224 82.979C110.138 83.0963 109.372 82.5098 108.699 81.5478C108.231 81.0009 107.961 80.312 107.932 79.5925Z" fill="#495D4C"/>
<path d="M111.366 73.1874C111.366 73.3125 110.513 73.5862 109.622 74.2197C108.73 74.8532 108.253 75.6432 108.144 75.5806C108.034 75.518 108.378 74.5795 109.372 73.8756C109.924 73.4006 110.638 73.1545 111.366 73.1874Z" fill="#495D4C"/>
<path d="M118.436 76.12C118.327 76.1826 117.826 75.4161 117.013 74.6653C116.199 73.9145 115.37 73.5391 115.449 73.4218C116.167 73.4848 116.835 73.8173 117.318 74.3525C117.888 74.7905 118.285 75.4169 118.436 76.12Z" fill="#495D4C"/>
<path d="M118.702 84.1054C118.76 83.4239 118.889 82.7503 119.086 82.0953C119.144 81.4114 119.273 80.7353 119.469 80.0775C119.625 80.7664 119.635 81.4802 119.501 82.1736C119.366 82.8669 119.089 83.5247 118.687 84.1054H118.702Z" fill="#495D4C"/>
<path d="M113.345 90.2447C113.274 90.143 113.986 89.5564 114.839 88.8291C115.691 88.1017 116.403 87.476 116.458 87.5542C116.512 87.6324 116.004 88.3989 115.12 89.1184C114.236 89.838 113.407 90.3463 113.345 90.2447Z" fill="#495D4C"/>
<path d="M106.032 94.0459C106.549 93.5778 107.156 93.2187 107.815 92.9901C108.419 92.6338 109.09 92.4074 109.786 92.3253C109.264 92.7917 108.656 93.1505 107.995 93.3812C107.393 93.7348 106.725 93.9611 106.032 94.0459Z" fill="#495D4C"/>
<path d="M98.6801 97.7842C98.6175 97.6825 99.3605 97.1272 100.346 96.5328C100.921 96.1317 101.578 95.8645 102.27 95.7507C102.332 95.868 101.535 96.3451 100.557 96.9082C99.9995 97.3281 99.3601 97.6265 98.6801 97.7842Z" fill="#495D4C"/>
<path d="M92.4467 103.165C92.3607 103.087 92.9004 102.321 93.7216 101.515C94.5428 100.709 95.2858 100.185 95.3953 100.271C95.5048 100.357 94.8322 101.054 94.0266 101.836C93.221 102.618 92.5406 103.212 92.4467 103.165Z" fill="#495D4C"/>
<path d="M87.7227 109.907C87.8538 109.217 88.1429 108.566 88.5673 108.006C89.1695 107.029 89.7874 106.325 89.8891 106.395C89.6774 107.057 89.3547 107.679 88.9349 108.233C88.3796 109.195 87.8322 109.962 87.7227 109.907Z" fill="#495D4C"/>
<path d="M84.7199 117.572C84.68 116.871 84.8087 116.171 85.0953 115.53C85.2425 114.842 85.5507 114.199 85.9947 113.653C85.9489 114.347 85.7822 115.027 85.502 115.663C85.3543 116.34 85.0896 116.986 84.7199 117.572Z" fill="#495D4C"/>
<path d="M83.6403 125.737C83.3566 124.366 83.454 122.943 83.9218 121.623C84.0456 122.306 84.0456 123.005 83.9218 123.688C83.9489 124.382 83.8536 125.076 83.6403 125.737Z" fill="#495D4C"/>
<path d="M84.7196 133.894C84.3686 133.289 84.1475 132.618 84.0705 131.923C83.836 131.258 83.7794 130.544 83.9062 129.851C84.2004 130.48 84.3981 131.149 84.4928 131.837C84.7095 132.5 84.7867 133.2 84.7196 133.894Z" fill="#495D4C"/>
<path d="M87.9028 141.48C87.3851 141.006 86.9859 140.417 86.7374 139.76C86.3602 139.166 86.1321 138.49 86.0726 137.789C86.5232 138.318 86.8779 138.921 87.1206 139.572C87.4953 140.155 87.7604 140.802 87.9028 141.48Z" fill="#495D4C"/>
<path d="M92.8457 148.074C92.7675 148.152 92.0636 147.558 91.2815 146.682C90.7779 146.191 90.3928 145.592 90.1553 144.93C90.2569 144.852 90.8748 145.54 91.61 146.4C92.3452 147.26 92.9317 147.988 92.8457 148.074Z" fill="#495D4C"/>
<path d="M99.1963 153.314C98.5166 153.131 97.8896 152.791 97.3662 152.321C96.4433 151.648 95.802 150.975 95.8646 150.881C96.5103 151.141 97.1058 151.512 97.6243 151.976C98.5472 152.641 99.2589 153.212 99.1963 153.314Z" fill="#495D4C"/>
<path d="M106.626 156.864C105.923 156.86 105.231 156.685 104.609 156.356C103.93 156.166 103.31 155.812 102.802 155.323C103.487 155.425 104.15 155.639 104.765 155.957C105.43 156.159 106.058 156.465 106.626 156.864Z" fill="#495D4C"/>
<path d="M110.764 157.959C110.764 158.069 110.693 158.163 110.654 158.155C110.615 158.147 110.599 158.045 110.654 157.928C110.709 157.811 110.725 157.725 110.764 157.733C110.803 157.74 110.787 157.803 110.764 157.959Z" fill="#495D4C"/>
<path d="M104.781 137.442L96.2284 134.633L94.4812 139.953L103.034 142.762L104.781 137.442Z" fill="#43AF55"/>
<path d="M104.804 137.453C103.205 138.255 101.547 138.934 99.8457 139.486L99.6971 139.541L99.6033 139.416L99.4547 139.228C98.2712 137.783 97.2017 136.248 96.2559 134.637C97.5451 135.989 98.7295 137.438 99.7988 138.97L99.9396 139.158L99.6971 139.087C101.353 138.406 103.061 137.859 104.804 137.453Z" fill="#2A9348"/>
<path d="M98.68 137.898C98.0913 138.428 97.4099 138.844 96.67 139.126C95.9885 139.53 95.2424 139.813 94.4645 139.963C95.0584 139.437 95.7418 139.021 96.4823 138.735C97.1619 138.333 97.9052 138.05 98.68 137.898Z" fill="#2A9348"/>
<path d="M103.169 142.818C102.691 142.228 102.32 141.558 102.074 140.839C101.558 139.674 101.214 138.673 101.371 138.688C101.85 139.279 102.224 139.948 102.473 140.667C102.838 141.334 103.074 142.064 103.169 142.818Z" fill="#2A9348"/>
<path d="M139.649 158.291L117.654 151.068L113.159 164.755L135.154 171.978L139.649 158.291Z" fill="#5CCD6A"/>
<path d="M139.639 158.295C139.325 158.475 138.995 158.625 138.653 158.741L135.916 159.813C133.57 160.697 130.371 161.901 126.765 163.223L126.617 163.277L126.523 163.152L126.155 162.667C123.762 159.5 121.604 156.622 120.063 154.518L118.256 152.023C118.022 151.724 117.815 151.405 117.638 151.069C117.928 151.325 118.19 151.611 118.42 151.921L120.337 154.338C121.94 156.387 124.13 159.242 126.531 162.409L126.898 162.886L126.656 162.816C130.254 161.502 133.499 160.345 135.846 159.531L138.63 158.585C138.957 158.459 139.295 158.362 139.639 158.295Z" fill="#43AF55"/>
<path d="M123.997 159.461C122.287 160.53 120.504 161.478 118.663 162.3C116.883 163.244 115.041 164.065 113.149 164.756C114.852 163.678 116.633 162.727 118.475 161.909C120.253 160.959 122.099 160.141 123.997 159.461Z" fill="#43AF55"/>
<path d="M135.253 171.715C134.352 170.098 133.565 168.416 132.899 166.683C132.115 165.001 131.453 163.261 130.918 161.479C131.825 163.095 132.612 164.78 133.273 166.518C134.057 168.198 134.719 169.935 135.253 171.715Z" fill="#43AF55"/>
<path d="M118.882 154.432C118.334 154.834 117.68 155.064 117.002 155.094C116.324 155.124 115.652 154.952 115.071 154.6C114.491 154.249 114.027 153.732 113.74 153.117C113.453 152.502 113.354 151.816 113.457 151.145C113.56 150.473 113.859 149.848 114.317 149.347C114.775 148.846 115.372 148.492 116.031 148.33C116.69 148.168 117.383 148.205 118.021 148.436C118.66 148.668 119.215 149.083 119.617 149.63C119.884 149.994 120.077 150.406 120.185 150.845C120.293 151.283 120.313 151.738 120.245 152.184C120.176 152.63 120.021 153.058 119.787 153.444C119.553 153.83 119.246 154.166 118.882 154.432Z" fill="#495D4C"/>
<path d="M118.984 151.038C118.257 151.578 117.485 152.054 116.677 152.461L116.129 152.766L116.027 152.821L115.973 152.727C115.603 152.14 115.288 151.519 115.034 150.874C115.47 151.415 115.85 152 116.168 152.618L116.02 152.571L116.567 152.258C117.336 151.782 118.144 151.373 118.984 151.038Z" fill="white"/>
<path d="M125.528 139.841L114.003 136.057L111.649 143.227L123.174 147.012L125.528 139.841Z" fill="#43AF55"/>
<path d="M125.514 139.846C125.349 139.939 125.176 140.017 124.998 140.08L123.559 140.644C122.347 141.105 120.657 141.739 118.772 142.427H118.694L118.639 142.356L118.452 142.106C117.193 140.448 116.105 138.939 115.253 137.836L114.307 136.53C114.185 136.372 114.078 136.205 113.986 136.029C114.134 136.162 114.265 136.311 114.377 136.475L115.386 137.742C116.223 138.813 117.372 140.307 118.632 141.965L118.819 142.223H118.694C120.579 141.535 122.276 140.925 123.512 140.503L124.967 140.01C125.142 139.933 125.326 139.878 125.514 139.846Z" fill="#2A9348"/>
<path d="M117.318 140.456C116.422 141.013 115.489 141.51 114.526 141.942C113.593 142.439 112.626 142.87 111.632 143.233C112.526 142.669 113.459 142.17 114.424 141.739C115.357 141.242 116.324 140.813 117.318 140.456Z" fill="#2A9348"/>
<path d="M123.363 147.08C122.859 146.201 122.42 145.287 122.05 144.343C121.615 143.426 121.244 142.48 120.939 141.512C121.888 143.304 122.698 145.165 123.363 147.08Z" fill="#2A9348"/>
<path d="M32.952 50.0838C32.158 53.2136 30.4539 56.0378 28.0553 58.1993C25.6566 60.3609 22.6709 61.7629 19.4756 62.228C16.2804 62.6931 13.0189 62.2006 10.1035 60.8126C7.1881 59.4246 4.7496 57.2035 3.0962 54.43C1.4428 51.6565 0.648731 48.4551 0.814347 45.2304C0.979964 42.0057 2.09783 38.9025 4.02667 36.3129C5.95551 33.7234 8.60873 31.7638 11.651 30.6818C14.6933 29.5998 17.988 29.444 21.1188 30.234C23.1993 30.7601 25.1558 31.6909 26.8765 32.9732C28.5973 34.2556 30.0485 35.8643 31.1474 37.7076C32.2462 39.5509 32.9712 41.5927 33.2808 43.7162C33.5905 45.8397 33.4788 48.0035 32.952 50.0838Z" fill="#5CCD6A"/>
<path d="M23.1759 37.2107C23.4653 37.328 21.6117 42.7949 19.0308 49.4271C18.6475 50.3891 18.2878 51.312 17.928 52.2192L17.7325 52.7119L17.2085 52.5242C11.9136 50.483 8.04222 48.8014 8.13607 48.559C8.22992 48.3165 12.2499 49.5835 17.5839 51.5153L16.8956 51.8282C17.2398 50.9209 17.5995 49.9902 17.9671 49.0282C20.5715 42.396 22.8944 37.1012 23.1759 37.2107Z" fill="white"/>
</g>
<defs>
<clipPath id="clip0_86_2175">
<rect width="238.088" height="219.404" fill="white" transform="translate(0.784302 0.756836)"/>
</clipPath>
</defs>
</svg>
