<svg width="280" height="247" viewBox="0 0 280 247" fill="none" xmlns="http://www.w3.org/2000/svg">
<g clip-path="url(#clip0_86_2007)">
<path d="M12.5265 42.2032C13.4711 41.6029 14.493 41.1335 15.564 40.8077L16.129 37.7741L21.2564 37.58L22.0583 40.5711C23.1496 40.8184 24.2036 41.208 25.1931 41.7299L27.7507 39.9826L31.5112 43.4651L29.9621 46.1408C30.5577 47.0863 31.0255 48.1063 31.3533 49.1743L34.3908 49.7447L34.5852 54.8654L31.5902 55.6602C31.3463 56.7531 30.956 57.8081 30.4299 58.7969L32.1795 61.3451L28.7106 65.125L26.0072 63.5414C25.0625 64.1417 24.0407 64.6111 22.9696 64.9369L22.3985 67.9705L17.2772 68.1646L16.4753 65.1735C15.3834 64.9282 14.3292 64.5385 13.3405 64.0147L10.8194 65.7742L7.05886 62.2916L8.60801 59.616C8.01052 58.6706 7.54069 57.6506 7.21073 56.5824L4.13672 56.0242L3.95447 50.8914L6.9495 50.0966C7.19343 49.0037 7.58372 47.9486 8.10985 46.9598L6.35414 44.4116L9.84126 40.65L12.5265 42.2032ZM15.4 48.9681C14.6612 49.7648 14.1755 50.7625 14.0044 51.8349C13.8333 52.9073 13.9844 54.0063 14.4387 54.993C14.893 55.9796 15.6301 56.8095 16.5567 57.3778C17.4832 57.9461 18.5578 58.2273 19.6443 58.1857C20.7309 58.1441 21.7807 57.7817 22.6611 57.1443C23.5414 56.5068 24.2127 55.623 24.5901 54.6046C24.9675 53.5861 25.034 52.4788 24.7812 51.4226C24.5285 50.3664 23.9678 49.4087 23.1701 48.6708C22.0995 47.6826 20.6802 47.1589 19.2235 47.2147C17.7668 47.2704 16.3917 47.901 15.4 48.9681V48.9681Z" fill="#B4FFCD"/>
<path d="M247.543 150.533C248.489 149.937 249.51 149.47 250.58 149.143L251.145 146.11L256.273 145.916L257.074 148.907C258.167 149.151 259.221 149.541 260.209 150.065L262.767 148.312L266.527 151.795L264.972 154.476C265.573 155.42 266.043 156.44 266.369 157.51L269.407 158.08L269.601 163.195L266.606 163.996C266.36 165.086 265.969 166.139 265.446 167.126L267.196 169.681L263.709 173.436L261.048 171.907C260.101 172.504 259.08 172.973 258.01 173.303L257.439 176.336L252.312 176.531L251.516 173.539C250.423 173.297 249.368 172.907 248.381 172.381L245.823 174.134L242.057 170.651L243.612 167.97C243.011 167.026 242.541 166.006 242.215 164.936L239.177 164.366L238.977 159.251L241.972 158.45C242.218 157.36 242.609 156.307 243.132 155.32L241.382 152.765L244.87 149.01L247.549 150.557L247.543 150.533ZM250.416 157.298C249.675 158.094 249.188 159.093 249.016 160.166C248.843 161.24 248.993 162.341 249.447 163.329C249.901 164.317 250.638 165.149 251.566 165.719C252.493 166.289 253.568 166.571 254.656 166.53C255.744 166.49 256.796 166.127 257.678 165.49C258.56 164.852 259.232 163.968 259.611 162.948C259.989 161.929 260.057 160.82 259.804 159.762C259.552 158.705 258.991 157.746 258.192 157.006C257.122 156.016 255.702 155.49 254.244 155.544C252.786 155.599 251.409 156.23 250.416 157.298V157.298Z" fill="#B4FFCD"/>
<path d="M19.3245 14.822C19.7676 14.5368 20.248 14.3143 20.7522 14.1607L21.0134 12.7409L23.3949 12.656L23.7715 14.0454C24.2772 14.1579 24.7655 14.3375 25.2235 14.5793L26.4385 13.7663L28.1881 15.3862L27.4409 16.6482C27.7198 17.0883 27.9385 17.5638 28.0909 18.0619L29.5064 18.3228L29.5976 20.7011L28.2064 21.0773C28.0906 21.5841 27.9088 22.0737 27.6657 22.5334L28.4798 23.7468L26.8577 25.4638L25.6427 24.7418C25.1896 25.0256 24.6988 25.2441 24.1846 25.391L23.9173 26.8047L21.5541 26.9017L21.1835 25.5124C20.6757 25.3978 20.1854 25.2162 19.7255 24.9724L18.5105 25.7854L16.7669 24.1715L17.502 22.9156C17.2244 22.4769 17.0059 22.0037 16.852 21.508L15.4365 21.2411L15.3453 18.8627L16.7426 18.4926C16.8552 17.9857 17.035 17.496 17.2772 17.0365L16.4692 15.8534L18.1095 14.1061L19.3245 14.822ZM20.6611 17.9709C20.3218 18.343 20.1001 18.807 20.024 19.3046C19.9479 19.8022 20.0206 20.3111 20.2332 20.7675C20.4457 21.2239 20.7885 21.6074 21.2185 21.8699C21.6485 22.1324 22.1466 22.2621 22.6503 22.2429C23.1539 22.2236 23.6406 22.0561 24.0492 21.7615C24.4579 21.4669 24.7703 21.0583 24.9472 20.587C25.1241 20.1157 25.1576 19.6027 25.0436 19.1124C24.9295 18.6222 24.673 18.1765 24.3061 17.8313C24.0593 17.6006 23.769 17.4211 23.4522 17.3032C23.1354 17.1853 22.7984 17.1312 22.4605 17.1442C22.1227 17.1572 21.7908 17.2369 21.484 17.3788C21.1772 17.5207 20.9016 17.7219 20.6732 17.9709H20.6611Z" fill="#B4FFCD"/>
<path d="M34.9193 228.532L28.583 231.117C28.583 231.117 30.7579 236.432 25.2659 238.786C24.2197 239.262 23.051 239.401 21.922 239.184C20.793 238.967 19.7598 238.403 18.966 237.573C18.2906 236.881 17.7888 236.039 17.5016 235.116C17.2144 234.194 17.15 233.216 17.3136 232.264C17.666 230.055 19.3609 227.483 23.9416 226.488L18.1094 212.2L11.846 214.76L15.2541 223.114C15.2541 223.114 7.39293 228.975 11.36 238.646C15.1509 247.899 24.3364 246.649 27.8965 245.199C30.612 244.107 39.6093 239.641 34.9193 228.532Z" fill="#EBEBEB"/>
<path d="M10.5651 211.842L16.9244 209.243L14.4953 203.313L8.13593 205.912L10.5651 211.842Z" fill="#EBEBEB"/>
<path d="M256.358 69.4872L262.22 71.9141C262.22 71.9141 264.286 66.9997 269.437 69.0504C270.437 69.4291 271.294 70.1091 271.89 70.9963C272.485 71.8834 272.79 72.9336 272.76 74.0012C272.746 74.9003 272.518 75.7831 272.095 76.5772C271.673 77.3713 271.068 78.0542 270.33 78.5698C268.648 79.7832 265.841 80.3899 262.184 78.0177L256.637 91.2199L262.439 93.6467L265.683 85.9111C265.683 85.9111 274.698 87.2216 278.441 78.2664C282.037 69.7056 275.184 64.5 271.892 63.0985C269.413 62.0913 260.58 59.1063 256.358 69.4872Z" fill="#EBEBEB"/>
<path d="M261.377 96.4358L255.495 93.9723L253.19 99.4611L259.072 101.925L261.377 96.4358Z" fill="#EBEBEB"/>
<path d="M243.843 8.31185L236.698 28.4488C236.416 29.2442 236.434 30.1156 236.751 30.8982C237.068 31.6807 237.661 32.3203 238.418 32.6959V32.6959C239.212 33.0934 240.129 33.1702 240.979 32.9104C241.828 32.6506 242.545 32.074 242.98 31.3004L253.587 12.5285C253.776 12.1935 253.892 11.8222 253.926 11.4393C253.96 11.0563 253.913 10.6704 253.786 10.3073C253.66 9.94407 253.458 9.61188 253.193 9.33271C252.928 9.05354 252.607 8.83379 252.251 8.68802L247.433 6.71012C247.093 6.57067 246.728 6.50166 246.36 6.50728C245.993 6.51289 245.63 6.59301 245.294 6.74278C244.959 6.89255 244.657 7.10885 244.407 7.37857C244.158 7.64828 243.966 7.96579 243.843 8.31185V8.31185Z" fill="#E0E0E0"/>
<path d="M238.904 45.9465C238.221 46.7177 237.324 47.2693 236.327 47.5315C235.33 47.7936 234.277 47.7546 233.303 47.4194C232.328 47.0842 231.475 46.4678 230.85 45.6482C230.226 44.8286 229.86 43.8426 229.797 42.8149C229.734 41.7872 229.978 40.7639 230.497 39.8745C231.017 38.9852 231.789 38.2696 232.715 37.8183C233.642 37.3671 234.682 37.2004 235.703 37.3394C236.725 37.4784 237.682 37.9168 238.454 38.5992C238.967 39.0517 239.386 39.6009 239.687 40.2153C239.987 40.8297 240.163 41.4973 240.205 42.1797C240.247 42.8622 240.153 43.5462 239.93 44.1926C239.707 44.8389 239.358 45.4349 238.904 45.9465V45.9465Z" fill="#E0E0E0"/>
<path d="M244.961 104.98C249.43 97.4001 251.05 88.4781 249.529 79.8135C249.475 79.4677 249.402 79.1279 249.317 78.7882C248.709 75.8092 248.205 73.3884 246.759 70.8644C246.613 70.5429 246.467 70.2577 246.309 69.9179C246.151 69.5782 245.994 69.3112 245.829 68.9897C242.775 63.4798 238.366 58.8379 233.017 55.5015C227.669 52.1652 221.557 50.2445 215.259 49.9205C213.121 29.6986 198.972 11.2058 180.024 3.80992C161.075 -3.58598 138.105 0.52757 122.851 13.9906C106.703 1.95943 84.4317 -1.38966 65.4956 5.39345C46.5594 12.1766 31.4749 28.8917 26.6755 48.428C25.2114 54.4042 24.6039 60.7322 21.5542 66.0713C19.2456 70.106 15.716 73.267 12.7027 76.7981C7.86889 82.4543 4.33187 89.0976 2.33946 96.2627C0.347047 103.428 -0.0525566 110.941 1.16864 118.277C2.38984 125.612 5.2023 132.592 9.40899 138.728C13.6157 144.864 19.1149 150.007 25.5212 153.797C15.3211 167.788 18.8994 189.818 33.0058 199.871C41.1039 205.641 51.9055 207.855 58.0778 215.646C60.7023 218.964 62.2211 223.005 64.4992 226.567C72.245 238.701 89.4558 243.634 102.469 237.487L171.592 219.959C195.106 221.727 218.391 214.322 236.553 199.301C243.181 193.749 249.134 187.075 252.002 178.903C254.869 170.73 254.189 161.017 248.679 154.373C261.722 140.965 259.833 116.271 244.961 104.98Z" fill="#E9E9E9"/>
<path d="M41.8259 179.932C41.7153 178.772 41.7605 177.602 41.9601 176.453L39.4026 174.479L41.6281 169.621L44.7867 170.285C45.5316 169.384 46.3926 168.586 47.3472 167.911L46.9236 164.715L51.9431 162.855L53.7045 165.557C54.866 165.447 56.0367 165.492 57.186 165.69L59.1612 163.129L64.0136 165.351L63.3137 168.51C64.2126 169.252 65.0079 170.113 65.6784 171.067L68.8777 170.642L70.7305 175.664L68.0239 177.427C68.1455 178.577 68.116 179.738 67.9359 180.881L70.4935 182.855L68.2624 187.711L65.1039 187.047C64.3627 187.949 63.5022 188.746 62.5462 189.416L62.967 192.617L57.9475 194.477L56.1834 191.767C55.0232 191.881 53.8533 191.838 52.7046 191.642L50.7294 194.203L45.8797 191.976L46.5416 188.811C45.6423 188.069 44.8469 187.209 44.177 186.254L40.9831 186.681L39.1302 181.66L41.8342 179.889L41.8259 179.932ZM49.4743 180.444C49.868 181.507 50.568 182.428 51.4856 183.093C52.4033 183.757 53.4975 184.134 54.6297 184.175C55.762 184.217 56.8816 183.922 57.8468 183.327C58.8121 182.732 59.5797 181.864 60.0525 180.833C60.5253 179.802 60.6822 178.654 60.5033 177.534C60.3244 176.415 59.8176 175.374 59.0472 174.543C58.2768 173.712 57.2774 173.129 56.1752 172.867C55.073 172.605 53.9176 172.677 52.8551 173.072C52.1493 173.334 51.5017 173.732 50.9496 174.244C50.3975 174.757 49.9517 175.373 49.6377 176.058C49.3236 176.742 49.1475 177.482 49.1195 178.235C49.0915 178.987 49.212 179.738 49.4743 180.444V180.444Z" fill="white"/>
<path d="M177.278 51.7346C177.812 51.3994 178.388 51.1362 178.991 50.952L179.307 49.2349L182.199 49.1257L182.648 50.8124C183.262 50.9479 183.855 51.1663 184.41 51.4616L185.85 50.4787L187.97 52.4384L187.095 53.9431C187.433 54.4761 187.698 55.0514 187.885 55.654L189.598 55.9756L189.708 58.8575L188.025 59.3065C187.883 59.9209 187.663 60.5143 187.369 61.072L188.353 62.5099L186.391 64.6274L184.884 63.7537C184.35 64.089 183.774 64.3522 183.171 64.5364L182.849 66.2534L179.963 66.3626L179.513 64.6759C178.898 64.5395 178.303 64.3212 177.746 64.0267L176.306 65.0096L174.186 63.0499L175.06 61.5392C174.712 61.01 174.436 60.4366 174.24 59.8343L172.521 59.5128L172.418 56.6308L174.107 56.1758C174.243 55.5618 174.463 54.9696 174.763 54.4163L173.785 52.9905L175.747 50.8731L177.278 51.7346ZM178.894 55.5448C178.478 55.9941 178.205 56.5565 178.109 57.1608C178.013 57.7651 178.098 58.3843 178.355 58.94C178.611 59.4958 179.027 59.9631 179.549 60.283C180.071 60.6029 180.677 60.761 181.289 60.7372C181.901 60.7135 182.493 60.509 182.989 60.1496C183.484 59.7903 183.863 59.2921 184.075 58.7182C184.287 58.1443 184.325 57.5203 184.182 56.9253C184.04 56.3302 183.724 55.7907 183.274 55.3749C182.975 55.0959 182.623 54.8789 182.24 54.7363C181.856 54.5937 181.448 54.5284 181.039 54.5442C180.63 54.56 180.229 54.6566 179.857 54.8283C179.486 55.0001 179.152 55.2436 178.876 55.5448H178.894Z" fill="#78C081"/>
<path d="M78.6762 211.537C78.5889 210.721 78.6123 209.897 78.7455 209.087L76.9557 207.719L78.5117 204.319L80.7296 204.76C81.2505 204.132 81.8519 203.575 82.5184 203.105L82.223 200.866L85.7225 199.565L86.9506 201.452C87.7626 201.374 88.5813 201.406 89.3847 201.546L90.7562 199.748L94.1491 201.307L93.7063 203.527C94.3352 204.045 94.8918 204.644 95.3611 205.31L97.5936 205.009L98.895 208.513L97.0052 209.749C97.074 210.568 97.0343 211.393 96.887 212.202L98.674 213.575L97.1208 216.97L94.9029 216.529C94.384 217.158 93.7843 217.715 93.1195 218.187L93.4205 220.402L89.9155 221.7L88.6874 219.812C87.8877 219.887 87.0817 219.853 86.2914 219.71L84.9199 221.508L81.527 219.949L81.9697 217.729C81.3408 217.212 80.7843 216.612 80.315 215.946L78.0961 216.247L76.7947 212.743L78.6899 211.51L78.6762 211.537ZM84.0157 211.895C84.2914 212.638 84.7812 213.282 85.423 213.746C86.0647 214.21 86.8297 214.473 87.6213 214.501C88.4128 214.53 89.1953 214.323 89.8699 213.907C90.5444 213.491 91.0808 212.884 91.411 212.163C91.7413 211.442 91.8507 210.64 91.7255 209.857C91.6002 209.075 91.2458 208.347 90.7072 207.766C90.1685 207.186 89.4698 206.778 88.6993 206.595C87.9288 206.412 87.1212 206.462 86.3785 206.738C85.383 207.11 84.5751 207.862 84.1322 208.829C83.6892 209.796 83.6473 210.898 84.0157 211.895V211.895Z" fill="#78C081"/>
<path d="M182.755 185.579C183.445 185.144 184.191 184.803 184.973 184.566L185.386 182.345L189.122 182.206L189.729 184.384C190.525 184.562 191.293 184.845 192.014 185.227L193.879 183.953L196.619 186.489L195.489 188.443C195.907 189.134 196.234 189.876 196.461 190.651L198.678 191.07L198.824 194.795L196.643 195.402C196.463 196.196 196.179 196.963 195.798 197.683L197.074 199.546L194.535 202.282L192.579 201.154C191.893 201.57 191.156 201.895 190.386 202.118L189.972 204.339L186.236 204.478L185.629 202.3C184.833 202.123 184.065 201.839 183.344 201.457L181.485 202.731L178.739 200.195L179.876 198.241C179.438 197.554 179.095 196.811 178.855 196.033L176.637 195.62L176.492 191.889L178.679 191.282C178.856 190.487 179.14 189.72 179.523 189.001L178.247 187.138L180.787 184.402L182.737 185.531L182.755 185.579ZM184.851 190.506C184.312 191.086 183.957 191.814 183.832 192.596C183.707 193.378 183.817 194.179 184.147 194.899C184.478 195.618 185.015 196.224 185.691 196.639C186.366 197.054 187.149 197.259 187.942 197.23C188.734 197.2 189.5 196.936 190.142 196.472C190.784 196.008 191.275 195.364 191.55 194.621C191.826 193.879 191.876 193.072 191.692 192.301C191.508 191.531 191.1 190.832 190.519 190.293C190.133 189.935 189.68 189.657 189.186 189.474C188.693 189.291 188.167 189.207 187.641 189.227C187.115 189.246 186.597 189.37 186.119 189.589C185.64 189.808 185.209 190.12 184.851 190.506V190.506Z" fill="white"/>
<path d="M54.0743 109.106C53.6415 108.015 52.9694 107.035 52.1072 106.238C51.2451 105.441 50.215 104.848 49.0927 104.501C47.1608 103.949 44.8826 104.167 43.376 102.839C42.6591 102.232 42.2338 101.31 41.602 100.594C40.3894 99.3673 38.7777 98.6141 37.0578 98.4702C31.3837 97.7057 26.1773 101.583 24.1117 106.121C21.791 107.656 19.4278 109.221 17.6782 111.381C15.9286 113.541 14.8472 116.423 15.4911 119.123C15.9711 121.107 17.3137 122.8 17.8058 124.778C18.2493 126.598 17.9516 128.491 18.0974 130.347C18.2432 132.204 19.0329 134.242 20.7704 134.922C22.9089 135.753 25.5637 134.182 27.5442 135.353C28.8868 136.147 29.3181 137.889 30.4177 138.993C32.3192 140.916 35.5269 140.425 38.0906 139.539C41.055 138.518 43.894 137.164 46.5533 135.504C48.3322 134.476 49.9074 133.132 51.2007 131.536C51.8408 130.736 52.3144 129.816 52.594 128.83C52.8736 127.845 52.9534 126.814 52.8289 125.797C52.6223 124.583 52.0269 123.406 51.954 122.156C51.8143 119.96 53.2663 118.025 54.0439 115.968C54.909 113.764 54.9198 111.317 54.0743 109.106V109.106Z" fill="white"/>
<path d="M49.8338 132.926L44.2872 136.742L44.2811 136.748L49.9553 138.756L49.8338 132.926Z" fill="#F5F5F5"/>
<path d="M31.7543 119.177C31.7543 119.629 31.6203 120.07 31.3693 120.445C31.1183 120.82 30.7616 121.112 30.3442 121.285C29.9268 121.458 29.4675 121.503 29.0244 121.415C28.5813 121.327 28.1743 121.11 27.8548 120.791C27.5354 120.472 27.3178 120.065 27.2297 119.623C27.1415 119.18 27.1868 118.721 27.3597 118.304C27.5326 117.888 27.8253 117.531 28.201 117.281C28.5766 117.03 29.0183 116.896 29.47 116.896C30.0759 116.896 30.6569 117.137 31.0852 117.564C31.5136 117.992 31.7543 118.572 31.7543 119.177V119.177Z" fill="#495E4C"/>
<path d="M38.856 119.177C38.8572 119.63 38.7239 120.073 38.473 120.45C38.2221 120.827 37.8648 121.121 37.4464 121.295C37.028 121.469 36.5673 121.515 36.1226 121.428C35.6779 121.34 35.2693 121.123 34.9484 120.803C34.6274 120.483 34.4087 120.076 34.3198 119.632C34.231 119.188 34.276 118.728 34.4491 118.31C34.6223 117.891 34.9159 117.534 35.2926 117.282C35.6694 117.031 36.1125 116.896 36.5657 116.896C37.1721 116.896 37.7537 117.136 38.1831 117.564C38.6124 117.992 38.8544 118.572 38.856 119.177V119.177Z" fill="#495E4C"/>
<path d="M45.9518 119.177C45.9518 119.629 45.8178 120.07 45.5668 120.445C45.3158 120.82 44.9591 121.112 44.5417 121.285C44.1243 121.458 43.665 121.503 43.2219 121.415C42.7788 121.327 42.3718 121.11 42.0523 120.791C41.7329 120.472 41.5153 120.065 41.4272 119.623C41.3391 119.18 41.3843 118.721 41.5572 118.304C41.7301 117.888 42.0228 117.531 42.3985 117.281C42.7741 117.03 43.2158 116.896 43.6675 116.896C44.2734 116.896 44.8544 117.137 45.2828 117.564C45.7111 117.992 45.9518 118.572 45.9518 119.177V119.177Z" fill="#495E4C"/>
<path d="M227.975 70.5854C227.458 69.7542 226.359 69.554 225.381 69.4691C221.845 69.1491 218.284 69.2734 214.779 69.8392C213.564 70.0333 211.778 69.9241 211.657 68.6743C211.674 68.3049 211.808 67.9504 212.04 67.6617C212.271 67.3729 212.588 67.1646 212.945 67.0665C214.16 66.6053 215.478 66.8238 216.76 66.7934C218.042 66.7631 219.494 66.3384 220.01 65.1674C220.794 63.3897 218.759 61.5271 216.833 61.2662C214.907 61.0053 212.884 61.515 211.031 60.9386L206.979 61.0235C203.984 61.074 201.007 61.5062 198.121 62.3098C197.313 62.5343 196.36 62.965 196.299 63.7962C196.238 64.6274 197.083 65.1735 197.471 65.8955C198.255 67.3516 196.979 69.1778 195.43 69.7482C193.881 70.3185 192.162 70.094 190.515 70.2153C188.869 70.3367 187.034 71.0344 186.488 72.5937C186.056 73.8071 186.573 75.2208 186.196 76.4645C185.716 78.0481 183.966 78.8914 182.338 79.1705C180.71 79.4496 178.985 79.4132 177.478 80.1048C176.376 80.6075 175.477 81.4683 174.928 82.5469C174.379 83.6254 174.212 84.858 174.454 86.0435C174.697 87.2289 175.334 88.2974 176.263 89.0744C177.192 89.8514 178.357 90.2912 179.568 90.322C180.734 90.322 181.883 90.0004 183.043 89.9397C183.897 89.8754 184.75 90.0882 185.473 90.5465C185.537 91.7883 185.978 92.9812 186.738 93.9664C187.498 94.9516 188.54 95.6824 189.726 96.0615C191.336 96.4923 193.061 96.2193 194.689 96.5651C196.317 96.9109 198 98.2942 197.69 99.9263C197.465 101.097 196.305 101.953 196.214 103.136C196.098 104.586 197.672 105.642 199.124 105.775C200.576 105.909 202.022 105.46 203.474 105.545C204.926 105.629 206.548 106.552 206.584 108.002C206.621 109.622 204.713 110.762 204.683 112.376C204.652 113.729 205.946 114.73 207.21 115.216C208.473 115.701 209.895 115.956 210.891 116.872C211.888 117.788 212.052 119.748 210.812 120.294C212.817 120.227 213.99 117.321 212.635 115.883C211.772 114.991 210.326 114.748 209.664 113.699C208.923 112.534 209.567 110.92 210.636 110.059C211.705 109.197 213.066 108.803 214.342 108.238C215.618 107.674 216.863 106.776 217.191 105.435C217.677 103.427 215.751 101.522 213.728 101.073C211.705 100.624 209.61 101.134 207.544 101.255C205.478 101.376 203.127 100.958 201.961 99.2468L208.716 96.0373C209.041 95.9323 209.341 95.7632 209.599 95.5402C209.856 95.3172 210.067 95.0447 210.217 94.7389C210.594 93.58 209.269 92.6336 208.158 92.13L203.759 90.1339C203.743 89.8653 203.683 89.6011 203.583 89.3512C206.256 88.2591 209.275 88.6778 212.137 89.0661C214.998 89.4544 218.054 89.7577 220.642 88.4593C223.23 87.161 224.895 83.6541 223.224 81.294C222.331 80.026 220.599 79.1523 220.557 77.593C220.557 76.3068 221.772 75.336 222.987 74.9235C224.202 74.5109 225.551 74.4259 226.681 73.8071C227.811 73.1882 228.655 71.6532 227.975 70.5854Z" fill="white"/>
<path d="M195.892 80.1291C197.1 80.1291 198.079 79.1512 198.079 77.9449C198.079 76.7386 197.1 75.7607 195.892 75.7607C194.684 75.7607 193.705 76.7386 193.705 77.9449C193.705 79.1512 194.684 80.1291 195.892 80.1291Z" fill="#495E4C"/>
<path d="M204.865 77.9449C204.865 78.3769 204.737 78.7992 204.496 79.1584C204.256 79.5176 203.914 79.7975 203.515 79.9629C203.115 80.1282 202.675 80.1714 202.251 80.0871C201.827 80.0029 201.437 79.7948 201.131 79.4894C200.825 79.1839 200.617 78.7947 200.533 78.371C200.448 77.9473 200.492 77.5082 200.657 77.1091C200.823 76.71 201.103 76.3688 201.463 76.1288C201.822 75.8888 202.245 75.7607 202.678 75.7607C203.258 75.7607 203.814 75.9909 204.224 76.4005C204.634 76.8101 204.865 77.3656 204.865 77.9449V77.9449Z" fill="#495E4C"/>
<path d="M209.47 80.1291C210.678 80.1291 211.657 79.1512 211.657 77.9449C211.657 76.7386 210.678 75.7607 209.47 75.7607C208.262 75.7607 207.283 76.7386 207.283 77.9449C207.283 79.1512 208.262 80.1291 209.47 80.1291Z" fill="#495E4C"/>
<path d="M56.3827 27.6298C53.9363 27.6189 51.5408 28.3275 49.4949 29.6672C47.4491 31.007 45.8434 32.9186 44.8781 35.1636C43.9128 37.4087 43.6307 39.8878 44.0668 42.292C44.503 44.6961 45.6382 46.9188 47.3308 48.6829C41.3529 49.957 37.5499 56.9524 39.1233 62.8376C40.6968 68.7228 47.021 72.7453 53.0961 72.3267C59.1712 71.9081 64.6388 67.4729 66.8806 61.7759C67.7116 64.1432 69.2406 66.2039 71.2665 67.6869C73.2925 69.1699 75.7204 70.0057 78.231 70.0845C80.7417 70.1633 83.2174 69.4813 85.3325 68.1283C87.4477 66.7752 89.1033 64.8145 90.0814 62.5039C92.7727 67.5093 100.44 68.3406 104.832 64.7366C109.224 61.1327 110.227 54.4224 108.125 49.1622C106.023 43.9019 101.339 39.9825 96.193 37.5921C99.4797 34.6313 99.8928 29.2072 97.5478 25.4577C95.2028 21.7082 90.5918 19.6939 86.1508 19.9244C81.7099 20.155 77.5667 22.3938 74.4441 25.5184C73.7446 23.616 72.4292 22.0011 70.7066 20.9299C68.984 19.8587 66.9526 19.3924 64.9345 19.6049C62.9164 19.8173 61.027 20.6965 59.566 22.1029C58.1049 23.5093 57.1556 25.3626 56.8688 27.3689" fill="white"/>
<path d="M63.1322 38.4658L68.8428 48.507C69.0677 48.9041 69.4306 49.205 69.8629 49.3527C70.2951 49.5003 70.7666 49.4843 71.1878 49.3079C71.631 49.1241 71.9866 48.7774 72.1811 48.3393C72.3756 47.9011 72.3941 47.4051 72.2328 46.9538L68.3082 36.0025C68.2375 35.8068 68.1262 35.6283 67.9814 35.4787C67.8367 35.329 67.6619 35.2117 67.4686 35.1343C67.2752 35.0569 67.0676 35.0213 66.8595 35.0298C66.6513 35.0383 66.4473 35.0906 66.2609 35.1835L63.7519 36.4515C63.5761 36.5403 63.42 36.6636 63.293 36.814C63.1661 36.9644 63.0708 37.1389 63.0129 37.327C62.9551 37.5151 62.9358 37.7129 62.9563 37.9085C62.9768 38.1042 63.0366 38.2938 63.1322 38.4658V38.4658Z" fill="#495E4C"/>
<path d="M76.777 53.8036C76.8491 54.3555 76.7557 54.9163 76.5087 55.4153C76.2617 55.9142 75.8722 56.3288 75.3894 56.6067C74.9066 56.8846 74.3521 57.0133 73.796 56.9766C73.2399 56.94 72.7072 56.7395 72.2652 56.4006C71.8232 56.0616 71.4917 55.5995 71.3125 55.0724C71.1334 54.5454 71.1147 53.9772 71.2589 53.4396C71.403 52.902 71.7034 52.4191 72.1222 52.0519C72.541 51.6848 73.0594 51.4498 73.6119 51.3768C73.9793 51.3282 74.3527 51.3525 74.7108 51.4482C75.0688 51.5439 75.4044 51.7092 75.6984 51.9346C75.9924 52.16 76.239 52.4412 76.4241 52.7619C76.6092 53.0826 76.7291 53.4366 76.777 53.8036Z" fill="#495E4C"/>
<path d="M81.5945 32.4895L81.7828 42.4579C81.7897 42.8511 81.9406 43.2282 82.2071 43.5177C82.4735 43.8073 82.837 43.9893 83.2287 44.0293V44.0293C83.6402 44.0732 84.0528 43.9571 84.3809 43.7051C84.7089 43.4532 84.9272 43.0848 84.9905 42.6763L86.5457 32.7383C86.5734 32.5608 86.5629 32.3794 86.515 32.2062C86.4672 32.033 86.383 31.872 86.2682 31.7337C86.1533 31.5955 86.0103 31.4832 85.8487 31.4043C85.6871 31.3254 85.5105 31.2817 85.3307 31.2761L82.9006 31.2033C82.7293 31.1984 82.5588 31.2281 82.3993 31.2908C82.2398 31.3534 82.0946 31.4477 81.9726 31.5679C81.8505 31.6881 81.7541 31.8317 81.6891 31.9901C81.6242 32.1485 81.592 32.3184 81.5945 32.4895V32.4895Z" fill="#E0E0E0"/>
<path d="M85.6163 49.7385C85.4443 50.1865 85.1432 50.5735 84.751 50.8506C84.3588 51.1277 83.8932 51.2825 83.413 51.2955C82.9328 51.3084 82.4595 51.1789 82.0529 50.9234C81.6463 50.6678 81.3247 50.2976 81.1288 49.8595C80.9328 49.4215 80.8712 48.9352 80.9518 48.4623C81.0324 47.9893 81.2516 47.5508 81.5817 47.2022C81.9117 46.8535 82.3378 46.6104 82.8062 46.5036C83.2745 46.3967 83.7641 46.4309 84.213 46.6018C84.5115 46.7155 84.7847 46.8868 85.0169 47.1061C85.2491 47.3253 85.4357 47.5881 85.5661 47.8795C85.6964 48.1708 85.768 48.485 85.7766 48.804C85.7852 49.123 85.7307 49.4406 85.6163 49.7385Z" fill="#E0E0E0"/>
<path d="M201.557 140.326L196.387 154.887C196.184 155.464 196.199 156.095 196.428 156.663C196.657 157.23 197.085 157.694 197.632 157.969V157.969C198.208 158.256 198.872 158.31 199.487 158.122C200.102 157.933 200.621 157.516 200.937 156.956L208.616 143.366C208.753 143.123 208.837 142.854 208.862 142.576C208.888 142.299 208.853 142.019 208.762 141.756C208.671 141.492 208.524 141.251 208.333 141.049C208.141 140.846 207.908 140.687 207.65 140.581L204.163 139.149C203.915 139.048 203.649 138.999 203.382 139.005C203.115 139.01 202.851 139.069 202.607 139.179C202.364 139.29 202.145 139.448 201.964 139.645C201.784 139.842 201.645 140.074 201.557 140.326V140.326Z" fill="white"/>
<path d="M197.985 167.568C197.49 168.126 196.841 168.525 196.119 168.715C195.397 168.905 194.635 168.876 193.93 168.633C193.224 168.39 192.606 167.944 192.155 167.35C191.703 166.757 191.438 166.043 191.393 165.299C191.348 164.555 191.525 163.814 191.902 163.171C192.278 162.527 192.837 162.009 193.509 161.683C194.18 161.357 194.933 161.237 195.672 161.339C196.412 161.44 197.104 161.758 197.663 162.253C198.034 162.58 198.336 162.978 198.553 163.422C198.77 163.867 198.897 164.35 198.927 164.844C198.957 165.337 198.889 165.832 198.728 166.299C198.566 166.767 198.313 167.198 197.985 167.568V167.568Z" fill="white"/>
<path d="M117.966 33.4116H122.887C122.887 33.4116 122.887 28.8794 127.182 28.8005C128.039 28.7923 128.875 29.0582 129.57 29.5594C130.264 30.0605 130.779 30.7705 131.04 31.5854C131.301 32.2954 131.405 33.0534 131.345 33.8074C131.285 34.5613 131.063 35.2935 130.694 35.9537C129.855 37.4645 128.027 38.8356 124.71 38.1986V50.3633H129.57V43.2343C129.57 43.2343 136.398 41.305 136.398 33.0536C136.398 25.1663 129.94 23.3461 127.176 23.3461C125.074 23.3279 117.875 23.8679 117.966 33.4116Z" fill="white"/>
<path d="M129.643 52.869H124.697V57.929H129.643V52.869Z" fill="white"/>
<path d="M242.44 120.755C242.44 120.755 242.506 120.688 242.646 120.573C242.867 120.403 243.119 120.278 243.387 120.203C243.829 120.085 244.294 120.085 244.736 120.203C245.358 120.342 245.913 120.694 246.303 121.198C246.793 121.839 247.069 122.618 247.093 123.424C247.115 124.394 246.882 125.351 246.419 126.203C245.21 128.285 243.569 130.085 241.607 131.482C240.464 132.334 239.275 133.123 238.047 133.848C236.765 134.618 235.405 135.407 233.934 136.147C232.405 136.928 230.809 137.572 229.165 138.071C228.293 138.34 227.401 138.543 226.498 138.677C225.56 138.82 224.61 138.871 223.661 138.829C222.663 138.866 221.675 138.614 220.818 138.101C220.381 137.805 220.075 137.354 219.962 136.839C219.865 136.318 219.93 135.78 220.15 135.298C220.616 134.35 221.269 133.506 222.07 132.816C222.853 132.079 223.687 131.398 224.566 130.778C226.347 129.516 228.248 128.351 230.204 127.138C232.204 125.872 234.35 124.854 236.595 124.104C237.767 123.729 238.978 123.49 240.204 123.394C241.464 123.272 242.737 123.391 243.952 123.746C245.229 124.084 246.332 124.887 247.044 125.997C247.366 126.588 247.54 127.248 247.553 127.92C247.565 128.593 247.416 129.259 247.117 129.862C246.523 131.089 245.567 132.106 244.377 132.774C243.193 133.463 241.925 133.999 240.605 134.37C237.893 135.098 235.077 135.369 232.276 135.171C229.392 134.966 226.525 134.56 223.698 133.957C222.239 133.689 220.796 133.337 219.378 132.901C218.661 132.674 217.959 132.403 217.276 132.088C216.555 131.803 215.906 131.361 215.375 130.796C215.105 130.492 214.928 130.117 214.865 129.716C214.804 129.301 214.874 128.877 215.065 128.503C215.45 127.806 216.031 127.237 216.736 126.865C218.117 126.117 219.645 125.68 221.213 125.584C224.362 125.311 227.529 125.311 230.678 125.584C232.282 125.73 233.877 125.969 235.453 126.3C236.249 126.464 237.039 126.664 237.822 126.907C238.638 127.088 239.411 127.424 240.101 127.896C240.461 128.148 240.746 128.492 240.926 128.893C241.106 129.293 241.173 129.735 241.121 130.171C241.002 130.588 240.797 130.975 240.519 131.308C240.24 131.64 239.895 131.91 239.505 132.101C238.033 132.925 236.416 133.458 234.742 133.672C233.902 133.777 233.054 133.804 232.209 133.751C231.353 133.716 230.506 133.559 229.694 133.284C228.846 133.014 228.118 132.459 227.634 131.712C227.419 131.315 227.306 130.871 227.306 130.42C227.306 129.969 227.419 129.524 227.634 129.128C228.061 128.343 228.708 127.701 229.497 127.282C230.285 126.862 231.18 126.683 232.069 126.767C232.979 126.838 233.826 127.258 234.432 127.938C235.022 128.642 235.31 129.549 235.234 130.462C235.194 130.923 235.042 131.366 234.791 131.755C234.531 132.136 234.177 132.446 233.764 132.653C232.936 133.051 231.994 133.145 231.103 132.92C230.644 132.839 230.21 132.655 229.834 132.38C229.458 132.106 229.15 131.748 228.935 131.336C228.838 131.11 228.8 130.862 228.824 130.617C228.849 130.372 228.935 130.138 229.074 129.935C229.36 129.543 229.779 129.268 230.253 129.164C231.161 129.045 232.084 129.156 232.938 129.486C233.812 129.723 234.642 130.098 235.398 130.596C236.169 131.114 236.766 131.852 237.112 132.713C237.288 133.15 237.367 133.621 237.342 134.092C237.317 134.562 237.188 135.022 236.966 135.437C236.5 136.24 235.815 136.894 234.991 137.324C234.185 137.781 233.294 138.068 232.373 138.168C230.516 138.379 228.645 137.919 227.1 136.869C225.57 135.8 224.387 134.307 223.698 132.574C222.939 130.853 222.809 128.92 223.333 127.113C223.624 126.2 224.196 125.402 224.967 124.832C225.737 124.294 226.607 123.917 227.525 123.722C229.319 123.327 231.159 123.182 232.993 123.291C234.816 123.317 236.633 123.52 238.418 123.898C240.236 124.28 241.854 125.306 242.974 126.786C243.503 127.548 243.816 128.439 243.879 129.364C243.928 130.28 243.783 131.196 243.454 132.052C242.762 133.727 241.592 135.162 240.088 136.178C239.368 136.698 238.613 137.168 237.828 137.585C237.056 138.015 236.259 138.398 235.441 138.732C233.804 139.444 231.996 139.669 230.235 139.381C226.816 138.586 223.778 136.633 221.638 133.854C220.638 132.441 220.034 130.786 219.889 129.061C219.745 127.361 219.975 125.651 220.563 124.049C221.133 122.464 222.031 121.017 223.2 119.802C224.35 118.6 225.711 117.617 227.215 116.902C228.706 116.207 230.304 115.77 231.942 115.61C233.582 115.46 235.235 115.623 236.814 116.089C238.386 116.518 239.78 117.436 240.793 118.71C241.696 120.03 242.208 121.578 242.269 123.176C242.45 126.27 241.905 129.363 240.678 132.21C240.091 133.604 239.334 134.921 238.424 136.129C237.525 137.331 236.39 138.336 235.089 139.084C233.792 139.806 232.318 140.149 230.836 140.073C229.371 139.957 227.983 139.369 226.881 138.398C225.822 137.461 224.848 136.431 223.971 135.322C223.019 134.294 222.229 133.128 221.626 131.864C221.358 131.222 221.202 130.538 221.164 129.844C221.141 129.152 221.24 128.462 221.456 127.805C221.908 126.535 222.596 125.361 223.485 124.347C225.131 122.302 227.38 120.827 229.913 120.13C231.123 119.804 232.387 119.723 233.63 119.892C234.872 120.061 236.068 120.476 237.148 121.113C239.154 122.431 240.669 124.371 241.461 126.634C242.271 128.734 242.553 131.001 242.282 133.235C242.05 135.373 241.076 137.363 239.53 138.859C238.006 140.174 236.154 141.05 234.171 141.395C232.349 141.787 230.474 141.867 228.625 141.632C226.898 141.402 225.285 140.643 224.008 139.46C222.854 138.372 221.993 137.012 221.505 135.504C221.055 134.136 220.916 132.686 221.098 131.257C221.405 128.862 222.415 126.612 224.002 124.79C225.158 123.461 226.54 122.346 228.084 121.495C229.024 120.968 230.01 120.528 231.03 120.179C231.723 119.942 232.087 119.851 232.087 119.851L231.82 119.942L231.043 120.209C230.03 120.572 229.051 121.021 228.114 121.55C226.586 122.408 225.219 123.524 224.074 124.85C222.509 126.664 221.515 128.899 221.219 131.275C221.046 132.682 221.187 134.11 221.632 135.456C222.121 136.941 222.976 138.28 224.117 139.351C225.374 140.508 226.96 141.248 228.655 141.468C230.479 141.693 232.327 141.608 234.123 141.22C236.069 140.875 237.886 140.014 239.384 138.726C240.892 137.252 241.84 135.3 242.063 133.205C242.334 130.995 242.056 128.753 241.255 126.676C240.471 124.458 238.976 122.56 237.002 121.277C235.955 120.66 234.794 120.26 233.589 120.098C232.384 119.937 231.159 120.018 229.986 120.336C227.503 121.021 225.3 122.471 223.692 124.48C222.822 125.471 222.15 126.618 221.711 127.86C221.506 128.488 221.411 129.147 221.432 129.807C221.472 130.473 221.624 131.127 221.881 131.743C222.455 132.987 223.215 134.136 224.135 135.152C225.004 136.246 225.968 137.261 227.015 138.186C228.076 139.122 229.413 139.69 230.824 139.806C232.26 139.875 233.687 139.541 234.943 138.841C236.21 138.108 237.316 137.125 238.193 135.953C239.089 134.764 239.834 133.468 240.41 132.094C241.617 129.289 242.151 126.242 241.972 123.194C241.913 121.649 241.421 120.152 240.55 118.874C239.574 117.649 238.231 116.769 236.717 116.362C235.194 115.908 233.598 115.747 232.015 115.889C230.411 116.042 228.845 116.469 227.385 117.151C224.383 118.535 222.049 121.047 220.891 124.14C220.322 125.692 220.098 127.348 220.235 128.994C220.366 130.682 220.952 132.302 221.93 133.684C224.02 136.401 226.99 138.31 230.332 139.084C232.034 139.374 233.784 139.163 235.368 138.477C236.173 138.148 236.959 137.771 237.719 137.349C238.491 136.938 239.233 136.476 239.943 135.965C241.397 134.984 242.532 133.598 243.205 131.979C243.516 131.165 243.652 130.295 243.606 129.425C243.551 128.553 243.257 127.714 242.755 126.998C241.679 125.58 240.126 124.599 238.381 124.237C236.619 123.861 234.825 123.658 233.023 123.631C231.214 123.521 229.399 123.662 227.628 124.049C226.756 124.239 225.93 124.6 225.198 125.111C224.479 125.641 223.946 126.384 223.673 127.235C223.174 128.978 223.3 130.841 224.032 132.501C224.698 134.177 225.84 135.622 227.319 136.657C228.806 137.653 230.601 138.083 232.379 137.87C233.258 137.777 234.107 137.504 234.876 137.07C235.64 136.656 236.271 136.036 236.699 135.28C236.9 134.904 237.016 134.488 237.039 134.063C237.062 133.637 236.991 133.212 236.832 132.816C236.509 132.015 235.952 131.328 235.234 130.845C234.503 130.367 233.702 130.007 232.859 129.777C232.057 129.469 231.191 129.361 230.338 129.461C229.939 129.549 229.585 129.777 229.342 130.104C229.232 130.266 229.165 130.452 229.147 130.646C229.128 130.84 229.16 131.036 229.238 131.215C229.435 131.579 229.713 131.894 230.05 132.136C230.386 132.377 230.774 132.54 231.182 132.61C231.995 132.813 232.854 132.729 233.612 132.374C233.981 132.191 234.296 131.915 234.525 131.573C234.754 131.232 234.89 130.836 234.919 130.426C234.958 130.015 234.915 129.6 234.79 129.206C234.665 128.812 234.462 128.447 234.192 128.134C233.923 127.82 233.592 127.565 233.221 127.382C232.85 127.199 232.446 127.093 232.033 127.071C231.206 126.992 230.374 127.157 229.64 127.545C228.906 127.933 228.301 128.528 227.902 129.255C227.711 129.608 227.612 130.003 227.612 130.405C227.612 130.806 227.711 131.201 227.902 131.555C228.347 132.24 229.017 132.748 229.797 132.992C230.582 133.256 231.4 133.409 232.227 133.447C233.054 133.495 233.884 133.467 234.706 133.363C236.339 133.158 237.916 132.641 239.353 131.84C239.706 131.671 240.019 131.429 240.273 131.131C240.526 130.833 240.714 130.486 240.824 130.111C240.867 129.729 240.806 129.343 240.646 128.993C240.487 128.644 240.235 128.344 239.918 128.127C239.26 127.678 238.521 127.359 237.743 127.186C236.96 126.968 236.182 126.767 235.392 126.579C233.828 126.249 232.246 126.01 230.654 125.863C227.524 125.579 224.375 125.566 221.243 125.827C219.718 125.909 218.23 126.324 216.881 127.041C216.224 127.385 215.681 127.915 215.32 128.563C215.158 128.879 215.097 129.237 215.145 129.588C215.193 129.94 215.347 130.268 215.587 130.529C216.099 131.062 216.721 131.476 217.41 131.743C218.082 132.054 218.774 132.321 219.482 132.543C220.89 132.976 222.322 133.326 223.771 133.593C226.578 134.225 229.426 134.661 232.294 134.898C235.067 135.1 237.854 134.833 240.538 134.109C241.836 133.752 243.082 133.228 244.244 132.55C245.392 131.909 246.317 130.933 246.893 129.753C247.175 129.185 247.317 128.559 247.308 127.926C247.298 127.292 247.137 126.671 246.838 126.112C246.16 125.05 245.105 124.283 243.885 123.964C242.704 123.617 241.466 123.499 240.24 123.619C239.029 123.713 237.833 123.945 236.674 124.31C234.448 125.054 232.319 126.06 230.332 127.307C228.382 128.521 226.474 129.68 224.7 130.948C223.828 131.561 223 132.234 222.222 132.962C221.439 133.637 220.8 134.462 220.344 135.389C220.138 135.834 220.074 136.332 220.162 136.815C220.269 137.285 220.549 137.699 220.946 137.974C221.772 138.467 222.724 138.709 223.686 138.671C224.624 138.715 225.564 138.666 226.492 138.526C227.387 138.391 228.271 138.188 229.135 137.919C230.772 137.425 232.362 136.788 233.886 136.014C235.35 135.286 236.711 134.503 237.999 133.739C239.224 133.017 240.41 132.231 241.553 131.385C243.507 130.007 245.143 128.228 246.352 126.167C246.815 125.33 247.049 124.386 247.032 123.431C247.014 122.639 246.748 121.874 246.273 121.24C245.891 120.745 245.351 120.396 244.742 120.251C244.306 120.138 243.848 120.138 243.412 120.251C243.052 120.34 242.719 120.512 242.44 120.755V120.755Z" fill="#F5F5F5"/>
<path d="M178.225 17.4065C178.331 17.3011 178.443 17.2018 178.56 17.1092C178.91 16.8338 179.31 16.6279 179.738 16.5025C180.447 16.3164 181.192 16.3164 181.901 16.5025C182.893 16.7294 183.776 17.2934 184.398 18.0982C185.18 19.122 185.62 20.3659 185.655 21.6535C185.684 23.201 185.309 24.7293 184.568 26.0887C183.013 29.0494 180.315 31.9192 176.871 34.522C175.039 35.8874 173.134 37.1532 171.166 38.314C169.107 39.5275 166.914 40.8076 164.575 41.9907C162.126 43.2505 159.57 44.2921 156.938 45.1032C155.547 45.5248 154.125 45.8392 152.686 46.0436C151.186 46.2705 149.669 46.3538 148.154 46.2924C146.558 46.3419 144.981 45.9289 143.615 45.1032C142.931 44.6304 142.45 43.9179 142.267 43.1071C142.112 42.2863 142.218 41.4376 142.571 40.6802C143.304 39.1693 144.337 37.8233 145.608 36.7244C146.861 35.5464 148.194 34.4577 149.599 33.4663C151.021 32.4471 152.503 31.4884 154.016 30.5298C155.529 29.5712 157.054 28.5944 158.633 27.6419C161.834 25.6195 165.267 23.9898 168.858 22.7881C170.733 22.1989 172.669 21.8204 174.629 21.6596C176.641 21.4663 178.672 21.6578 180.613 22.2239C181.599 22.522 182.535 22.9657 183.389 23.5404C184.265 24.1178 184.995 24.8904 185.522 25.7974C186.029 26.7358 186.303 27.7819 186.322 28.8481C186.341 29.9142 186.104 30.9694 185.631 31.9253C184.681 33.876 183.16 35.4924 181.269 36.5606C179.378 37.6582 177.355 38.5105 175.249 39.0967C170.911 40.2683 166.407 40.7011 161.926 40.3769C157.308 40.0343 152.721 39.3693 148.196 38.3868C145.864 37.9538 143.558 37.3907 141.289 36.7002C140.147 36.334 139.029 35.8983 137.941 35.3957C136.792 34.9372 135.756 34.2355 134.904 33.3389C134.497 32.8613 134.234 32.2787 134.144 31.6583C134.058 31.0231 134.17 30.3766 134.466 29.8078C135.077 28.7086 135.992 27.8089 137.103 27.2171C139.305 26.0276 141.742 25.3358 144.241 25.1907C149.283 24.7682 154.353 24.7824 159.393 25.2332C161.958 25.4679 164.508 25.8528 167.029 26.3859C168.299 26.6468 169.562 26.9927 170.82 27.3142C172.124 27.6003 173.362 28.1337 174.465 28.8856C175.005 29.297 175.443 29.8262 175.747 30.4328C176.069 31.0497 176.18 31.7551 176.063 32.441C175.923 33.1165 175.592 33.7377 175.109 34.2308C174.641 34.7201 174.105 35.1391 173.517 35.4746C171.172 36.7856 168.596 37.6342 165.929 37.9743C164.588 38.143 163.233 38.1877 161.883 38.1077C160.505 38.0554 159.142 37.802 157.837 37.3554C156.497 36.9354 155.347 36.0595 154.587 34.88C154.235 34.2614 154.059 33.5587 154.077 32.8475C154.105 32.1419 154.285 31.4506 154.605 30.8211C155.28 29.583 156.305 28.5704 157.551 27.9092C158.798 27.2479 160.211 26.9672 161.616 27.1019C162.33 27.1435 163.029 27.3285 163.67 27.6459C164.311 27.9633 164.881 28.4066 165.347 28.9492C165.813 29.4918 166.164 30.1226 166.38 30.8039C166.596 31.4851 166.672 32.2029 166.604 32.9142C166.554 33.6384 166.315 34.3368 165.911 34.9403C165.507 35.5437 164.952 36.0312 164.301 36.3543C162.991 36.9788 161.504 37.1248 160.097 36.7669C159.379 36.6404 158.699 36.3517 158.109 35.9227C157.52 35.4936 157.036 34.9357 156.695 34.2915C156.544 33.9431 156.484 33.5619 156.521 33.184C156.558 32.806 156.691 32.4438 156.908 32.1316C157.347 31.5186 157.995 31.087 158.73 30.9181C159.445 30.7664 160.184 30.7664 160.899 30.9181C161.61 31.0455 162.296 31.2336 162.983 31.4278C164.376 31.8053 165.699 32.4034 166.901 33.1994C168.124 34.0165 169.071 35.184 169.617 36.5485C169.881 37.2369 170.003 37.9716 169.975 38.7084C169.931 39.4521 169.724 40.1771 169.368 40.8319C168.643 42.1191 167.563 43.1719 166.257 43.8655C165.623 44.2312 164.951 44.5262 164.253 44.7452C163.553 44.9693 162.833 45.1217 162.102 45.2003C159.15 45.5364 156.176 44.8045 153.718 43.1374C151.281 41.4362 149.398 39.056 148.305 36.2937C147.736 34.922 147.379 33.4713 147.248 31.992C147.099 30.5028 147.26 28.9988 147.722 27.5751C148.18 26.1218 149.083 24.8485 150.304 23.9348C151.532 23.086 152.915 22.4862 154.375 22.1693C157.249 21.5383 160.197 21.3096 163.135 21.4897C166.045 21.6353 168.967 21.7506 171.81 22.4605C174.653 23.1703 177.363 24.6325 179.052 27.0473C179.898 28.2579 180.397 29.6758 180.498 31.1487C180.579 32.5957 180.351 34.0434 179.829 35.3957C178.815 38.1259 176.755 40.3041 174.465 41.9665C173.314 42.7967 172.108 43.5487 170.856 44.2174C169.622 44.8994 168.348 45.5072 167.041 46.0376C165.73 46.5679 164.362 46.9446 162.965 47.16C161.566 47.3575 160.144 47.3267 158.755 47.069C156.021 46.5086 153.42 45.4294 151.094 43.8898C148.73 42.4365 146.668 40.5437 145.019 38.314C143.427 36.063 142.466 33.4279 142.236 30.6815C141.914 26.6026 142.91 22.5278 145.08 19.0568C145.414 18.4804 145.839 17.9586 146.216 17.4065C146.592 16.8544 147.06 16.369 147.528 15.8958C149.366 13.9796 151.538 12.4131 153.937 11.2726C156.315 10.1575 158.867 9.45965 161.482 9.20975C164.071 8.98479 166.678 9.25034 169.167 9.99242C171.671 10.6707 173.891 12.1313 175.504 14.1606C176.936 16.2673 177.749 18.7328 177.849 21.2774C178.132 26.2207 177.261 31.1621 175.303 35.7112C174.367 37.9377 173.157 40.039 171.701 41.9665C170.27 43.8837 168.461 45.488 166.385 46.6807C164.314 47.8332 161.961 48.3819 159.593 48.2642C158.426 48.1842 157.281 47.903 156.209 47.433C155.16 46.9628 154.181 46.3503 153.299 45.6128C151.605 44.1141 150.046 42.4696 148.64 40.6984C147.151 39.0442 145.922 37.1746 144.995 35.153C144.573 34.1292 144.325 33.0425 144.259 31.9374C144.224 30.8404 144.383 29.7459 144.727 28.7036C145.444 26.6771 146.541 24.8054 147.959 23.1885C150.587 19.9235 154.177 17.5673 158.22 16.454C160.151 15.9299 162.168 15.7984 164.15 16.0673C166.133 16.3361 168.042 16.9999 169.763 18.0193C171.398 19.0433 172.827 20.3621 173.979 21.9084C175.092 23.4147 175.99 25.0688 176.646 26.8228C177.946 30.1931 178.391 33.8324 177.94 37.4161C177.722 39.1286 177.238 40.7968 176.506 42.3608C175.784 43.8806 174.783 45.2513 173.554 46.4016C171.124 48.6525 168.001 49.8235 165.006 50.4484C162.092 51.072 159.093 51.1992 156.136 50.8246C154.739 50.6215 153.38 50.2126 152.102 49.6111C150.877 49.0357 149.75 48.2721 148.761 47.3481C146.914 45.6072 145.533 43.4315 144.745 41.02C144.028 38.8372 143.803 36.5226 144.089 34.2429C144.334 32.2085 144.913 30.2284 145.803 28.382C146.576 26.7568 147.558 25.2394 148.725 23.8681C150.576 21.7453 152.784 19.9612 155.249 18.5957C156.755 17.7463 158.335 17.0355 159.97 16.4722C161.069 16.0899 161.653 15.9443 161.653 15.9443L161.233 16.0839C160.948 16.1688 160.529 16.3084 159.982 16.5025C158.354 17.0788 156.781 17.7975 155.28 18.6503C152.829 20.0214 150.636 21.8074 148.798 23.9287C147.637 25.2897 146.661 26.7971 145.894 28.4124C145.015 30.2483 144.444 32.216 144.205 34.2369C143.926 36.497 144.152 38.7907 144.867 40.9533C145.651 43.3414 147.024 45.4944 148.858 47.2146C150.878 49.0751 153.424 50.2661 156.148 50.6243C159.086 50.9923 162.065 50.859 164.957 50.23C167.934 49.6233 171.033 48.4098 173.414 46.2196C174.62 45.0835 175.605 43.734 176.318 42.2395C177.038 40.6899 177.513 39.0382 177.727 37.3433C178.167 33.794 177.725 30.1911 176.439 26.8531C175.783 25.1219 174.891 23.4888 173.791 21.9994C172.654 20.4776 171.245 19.1795 169.635 18.171C166.373 16.1203 162.151 15.6592 158.269 16.642C154.275 17.7492 150.732 20.0843 148.141 23.316C146.742 24.9174 145.662 26.7707 144.958 28.7764C144.621 29.7908 144.469 30.8573 144.509 31.9253C144.568 33.0019 144.811 34.0605 145.225 35.0559C146.158 37.0491 147.387 38.89 148.87 40.5164C150.264 42.2681 151.811 43.8925 153.494 45.3702C155.207 46.881 157.364 47.7964 159.642 47.9791C161.957 48.094 164.258 47.5557 166.282 46.4259C168.326 45.2512 170.108 43.6717 171.519 41.7845C172.954 39.8706 174.15 37.7882 175.079 35.5838C177.013 31.0755 177.874 26.1804 177.594 21.2834C177.495 18.7911 176.7 16.3761 175.297 14.3123C173.722 12.3357 171.555 10.9136 169.113 10.2533C166.64 9.52475 164.05 9.27151 161.482 9.50704C158.903 9.75328 156.386 10.4408 154.04 11.5395C151.676 12.6677 149.536 14.2134 147.722 16.1021C147.261 16.5692 146.86 17.091 146.428 17.5885C145.997 18.086 145.639 18.6442 145.31 19.2145C143.189 22.6298 142.216 26.6327 142.534 30.639C142.759 33.3328 143.701 35.9176 145.262 38.1259C146.886 40.3215 148.915 42.1871 151.24 43.6228C153.527 45.1588 156.089 46.2421 158.785 46.8142C160.142 47.0637 161.531 47.0924 162.898 46.8991C164.288 46.6919 165.648 46.3213 166.95 45.7949C168.247 45.2648 169.511 44.657 170.735 43.9747C171.973 43.3098 173.167 42.5639 174.307 41.742C176.567 40.1038 178.56 37.9682 179.556 35.3168C180.063 34.001 180.287 32.5931 180.212 31.1851C180.119 29.7756 179.642 28.4182 178.833 27.2596C178.009 26.1015 176.951 25.1282 175.729 24.402C174.499 23.6692 173.166 23.1271 171.774 22.7942C168.942 22.1997 166.059 21.8787 163.165 21.8356C160.258 21.6553 157.34 21.882 154.496 22.509C153.076 22.8138 151.73 23.3952 150.535 24.22C149.371 25.0877 148.506 26.2966 148.062 27.6783C147.617 29.0616 147.462 30.5218 147.607 31.9678C147.734 33.4157 148.082 34.8358 148.64 36.1784C149.714 38.8742 151.558 41.195 153.943 42.8523C156.326 44.4875 159.216 45.2151 162.09 44.903C162.8 44.8242 163.5 44.6737 164.18 44.454C164.86 44.2467 165.515 43.9616 166.13 43.6046C167.382 42.9413 168.418 41.9325 169.113 40.6984C169.441 40.0846 169.631 39.4064 169.669 38.7114C169.707 38.0164 169.592 37.3216 169.331 36.6759C168.809 35.3716 167.905 34.2551 166.737 33.4724C165.557 32.7004 164.261 32.1209 162.898 31.7554C161.555 31.3853 160.146 30.9363 158.809 31.2458C158.149 31.3912 157.564 31.7705 157.163 32.3136C156.977 32.5831 156.862 32.8955 156.831 33.2213C156.799 33.5472 156.85 33.8758 156.981 34.1762C157.268 34.7894 157.723 35.309 158.293 35.6748C158.862 36.0572 159.499 36.327 160.17 36.4696C161.503 36.8116 162.913 36.6764 164.155 36.0874C164.762 35.7906 165.279 35.3392 165.654 34.7788C166.03 34.2184 166.25 33.5689 166.294 32.896C166.357 32.2261 166.284 31.5504 166.08 30.9093C165.875 30.2683 165.543 29.675 165.103 29.1651C164.664 28.6553 164.126 28.2393 163.521 27.9421C162.917 27.6449 162.258 27.4726 161.586 27.4356C160.247 27.3119 158.901 27.582 157.713 28.2126C156.526 28.8433 155.549 29.8069 154.903 30.9849C154.6 31.5717 154.43 32.218 154.405 32.8778C154.391 33.534 154.554 34.1818 154.879 34.7526C155.601 35.8705 156.693 36.6994 157.965 37.0945C159.222 37.5196 160.533 37.7647 161.859 37.8226C163.189 37.9016 164.523 37.859 165.844 37.6952C168.472 37.3606 171.011 36.5243 173.323 35.2319C173.887 34.9027 174.4 34.494 174.848 34.0185C175.296 33.564 175.6 32.988 175.723 32.3621C175.789 31.7381 175.686 31.1078 175.426 30.5368C175.165 29.9659 174.755 29.4753 174.24 29.1162C173.174 28.3927 171.981 27.878 170.723 27.5994C169.471 27.2536 168.214 26.932 166.95 26.6711C164.439 26.1425 161.899 25.7596 159.344 25.5244C154.325 25.0727 149.276 25.0544 144.253 25.4698C141.795 25.6112 139.397 26.2905 137.231 27.4598C136.166 28.0253 135.287 28.8846 134.697 29.9352C134.428 30.4539 134.326 31.0431 134.406 31.6219C134.493 32.2004 134.749 32.7405 135.141 33.1751C135.958 34.0389 136.953 34.7157 138.057 35.1591C139.141 35.6563 140.255 36.0859 141.392 36.4453C143.651 37.1331 145.947 37.6942 148.269 38.1259C152.781 39.1125 157.357 39.7795 161.962 40.122C166.413 40.4439 170.885 40.0173 175.194 38.8601C177.279 38.2821 179.282 37.44 181.154 36.3543C182.999 35.3153 184.483 33.7383 185.406 31.8343C185.866 30.9139 186.097 29.8968 186.081 28.8685C186.066 27.8402 185.803 26.8307 185.315 25.9248C184.807 25.0478 184.102 24.3002 183.256 23.7407C182.418 23.1798 181.504 22.7444 180.54 22.4483C178.629 21.8912 176.629 21.7038 174.647 21.8962C172.704 22.0515 170.784 22.4239 168.924 23.0065C165.35 24.1998 161.931 25.8171 158.743 27.8239C157.169 28.7703 155.638 29.7472 154.125 30.7058C152.613 31.6644 151.13 32.6169 149.721 33.6302C148.317 34.6119 146.987 35.6948 145.742 36.87C144.475 37.9445 143.442 39.2658 142.704 40.753C142.371 41.4794 142.269 42.2907 142.413 43.0768C142.581 43.8436 143.038 44.5166 143.688 44.9576C145.023 45.752 146.558 46.1458 148.111 46.0922C149.616 46.1584 151.124 46.0772 152.613 45.8495C154.052 45.6487 155.474 45.3384 156.865 44.9212C159.486 44.1335 162.033 43.1184 164.477 41.8876C166.829 40.7166 169.01 39.4607 171.069 38.2473C173.034 37.091 174.936 35.8313 176.767 34.4735C180.206 31.8828 182.897 29.013 184.452 26.0947C185.192 24.7499 185.569 23.2362 185.546 21.7021C185.521 20.4288 185.096 19.1956 184.331 18.177C183.803 17.4978 183.09 16.986 182.277 16.7038C181.464 16.4217 180.586 16.3812 179.75 16.5874C179.183 16.7322 178.659 17.0134 178.225 17.4065V17.4065Z" fill="#495E4C"/>
<path d="M67.9614 88.4065C67.9614 88.4065 67.8459 88.4065 67.6272 88.3701L66.6431 88.2184C65.387 88.0275 64.1614 87.6726 62.998 87.1627C62.1484 86.7776 61.3858 86.2245 60.7563 85.5367C59.9889 84.7206 59.509 83.6769 59.3894 82.5638C59.338 81.9376 59.4555 81.3091 59.7296 80.7436C60.0386 80.1512 60.4946 79.6477 61.0539 79.2814C61.6513 78.8831 62.3681 78.7031 63.083 78.7718C63.4569 78.8294 63.8137 78.9679 64.1285 79.1775C64.4433 79.3871 64.7085 79.6627 64.9056 79.9852C65.3046 80.6645 65.4789 81.4522 65.4037 82.2361C65.3415 83.0438 65.1097 83.8294 64.7233 84.5417C64.5237 84.9085 64.2788 85.2489 63.9943 85.5549C63.7149 85.8741 63.4101 86.1704 63.083 86.4407C62.3939 86.9719 61.6305 87.3992 60.817 87.7087C59.9694 88.016 59.0809 88.1959 58.1804 88.2427C57.2519 88.3009 56.3202 88.2066 55.4223 87.9636C54.4938 87.7172 53.6172 87.3062 52.8343 86.7501C52.0327 86.1697 51.3622 85.4277 50.866 84.572C49.8342 82.7922 49.45 80.711 49.7785 78.6808C49.9452 77.6364 50.3102 76.6336 50.8538 75.7261C51.1321 75.2668 51.4601 74.8396 51.8319 74.4519C52.1948 74.0399 52.6343 73.702 53.1259 73.4569C53.6356 73.1761 54.2348 73.1043 54.7966 73.2567C55.0778 73.3519 55.3349 73.5072 55.5499 73.7118C55.7509 73.9298 55.8985 74.1915 55.9812 74.4762C56.1179 75.0322 56.1179 75.613 55.9812 76.169C55.8601 76.7167 55.6746 77.2483 55.4284 77.7525C54.9059 78.7414 54.3409 79.6819 53.7334 80.6283C53.1197 81.587 52.3959 82.4707 51.5768 83.2615C50.7459 84.0601 49.7595 84.6797 48.6789 85.0816C47.6018 85.4813 46.4293 85.5489 45.3133 85.2758C44.2243 84.9825 43.2353 84.3996 42.4519 83.5891C41.6773 82.8067 41.0588 81.8843 40.6294 80.871C39.899 78.8866 39.5187 76.7907 39.5055 74.6764C39.4203 73.6559 39.4386 72.6294 39.5602 71.6125C39.6449 70.5583 40.114 69.5717 40.8785 68.8398C41.2752 68.5099 41.7577 68.2995 42.2697 68.2331C42.7702 68.1657 43.2797 68.2241 43.752 68.403C44.677 68.7522 45.4362 69.4367 45.8783 70.3202C46.2727 71.1792 46.42 72.1308 46.3035 73.0686C46.2101 73.9652 45.97 74.8404 45.5928 75.6593C45.2434 76.4518 44.8031 77.2011 44.2805 77.892C43.7721 78.5527 43.2003 79.1623 42.5734 79.7122C41.3819 80.7414 40.0074 81.5379 38.5213 82.0602C37.177 82.5357 35.7545 82.7518 34.3295 82.6972C33.059 82.6471 31.807 82.3761 30.6297 81.8964C28.7382 81.1345 27.0674 79.9123 25.7696 78.341C24.9509 77.3489 24.3078 76.2245 23.8681 75.0162C23.7482 74.7055 23.6488 74.3873 23.5704 74.0637C23.5158 73.8513 23.4915 73.736 23.4915 73.736C23.4915 73.736 23.6069 74.185 23.9289 74.9919C24.3941 76.1713 25.0509 77.2659 25.8729 78.2318C27.1691 79.7661 28.8237 80.958 30.6905 81.7022C31.8522 82.1652 33.0855 82.4238 34.3355 82.4667C35.7346 82.5098 37.1295 82.2917 38.4484 81.8236C40.682 81.033 42.6353 79.6073 44.0679 77.7222C44.5743 77.0434 45.0003 76.3084 45.3376 75.5319C45.7044 74.7406 45.9364 73.8937 46.0241 73.0262C46.1313 72.1377 45.9904 71.2369 45.6171 70.4233C45.2052 69.606 44.5003 68.9735 43.6426 68.6517C43.2145 68.4808 42.7482 68.4284 42.2927 68.4999C41.8373 68.5714 41.4096 68.7643 41.0546 69.0582C40.3677 69.7366 39.9473 70.6387 39.87 71.6004C39.7481 72.6071 39.7318 73.6238 39.8214 74.634C39.8379 76.7048 40.2119 78.7573 40.9271 80.7011C41.3451 81.6765 41.9474 82.5623 42.701 83.31C43.4427 84.0829 44.3817 84.6388 45.4166 84.9178C46.4706 85.1742 47.5775 85.1087 48.5939 84.7297C49.632 84.3461 50.5823 83.7581 51.3884 83.0006C53.0105 81.4656 54.1222 79.4816 55.1671 77.5826C55.6799 76.6595 55.8701 75.5921 55.7078 74.549C55.6305 74.3247 55.5086 74.1183 55.3494 73.9423C55.1764 73.7746 54.9692 73.6463 54.7419 73.5661C54.2572 73.4364 53.7411 73.4995 53.3021 73.7421C52.8411 73.9733 52.4287 74.2905 52.0871 74.6764C51.7334 75.0469 51.4198 75.4537 51.1515 75.8899C50.6265 76.7629 50.2758 77.7292 50.1187 78.7354C49.7936 80.6965 50.1585 82.7096 51.1515 84.4325C51.6287 85.2398 52.2616 85.9446 53.0134 86.5059C53.7653 87.0673 54.6212 87.474 55.5317 87.7027C56.7981 88.0503 58.128 88.1003 59.417 87.8487C60.7061 87.5972 61.9193 87.0508 62.9615 86.2526C63.5975 85.7483 64.135 85.1313 64.5471 84.4325C64.9145 83.7395 65.1299 82.9763 65.179 82.1937C65.2568 81.4581 65.0995 80.7169 64.7294 80.0762C64.5429 79.785 64.2964 79.5369 64.0061 79.3486C63.7159 79.1602 63.3888 79.036 63.0466 78.9841C62.3817 78.9171 61.714 79.0822 61.1572 79.4513C60.6165 79.7982 60.1749 80.2789 59.8754 80.8468C59.6105 81.3784 59.4951 81.9718 59.5412 82.5638C59.6528 83.6421 60.1111 84.6553 60.8474 85.4517C61.4574 86.1291 62.1968 86.6779 63.0223 87.0656C64.1847 87.5873 65.4099 87.9565 66.6674 88.1638L67.6454 88.3519L67.9614 88.4065Z" fill="#495E4C"/>
<path d="M148.293 202.586H110.988C109.516 202.586 108.322 203.779 108.322 205.25V205.462C108.322 206.933 109.516 208.125 110.988 208.125H148.293C149.765 208.125 150.959 206.933 150.959 205.462V205.25C150.959 203.779 149.765 202.586 148.293 202.586Z" fill="#495E4C"/>
<path d="M118.547 211.44H141.526C141.526 211.44 138.469 217.544 129.563 217.544C120.276 217.544 118.547 211.44 118.547 211.44Z" fill="#495E4C"/>
<path d="M140.914 82.4303C140.065 81.077 138.835 80.0045 137.378 79.3474C135.922 78.6903 134.303 78.478 132.726 78.7371C131.148 78.9962 129.683 79.7152 128.514 80.8038C127.344 81.8923 126.523 83.3019 126.153 84.8553C125.783 86.4088 125.88 88.0368 126.434 89.535C126.987 91.0331 127.971 92.3344 129.262 93.2755C130.554 94.2166 132.095 94.7554 133.692 94.8243C135.288 94.8932 136.87 94.4891 138.238 93.6627L138.339 93.5952L132.848 116.084L150.544 120.393L150.472 120.292C149.658 118.931 149.264 117.362 149.339 115.779C149.414 114.196 149.955 112.671 150.893 111.393C151.831 110.116 153.126 109.143 154.614 108.596C156.103 108.05 157.72 107.954 159.263 108.321C160.806 108.688 162.207 109.501 163.289 110.659C164.372 111.816 165.089 113.268 165.351 114.83C165.613 116.393 165.407 117.998 164.761 119.445C164.114 120.892 163.055 122.116 161.715 122.965L161.546 123.071L180.565 127.708C184.68 118.54 187.061 106.251 182.014 92.2056C179.389 84.6703 174.995 77.8724 169.202 72.3802C163.409 66.888 156.383 62.8611 148.714 60.636L146.511 60.1005L141.02 82.604L140.914 82.4303Z" fill="#E9E9E9"/>
<path d="M140.914 82.4301C140.954 82.4845 140.991 82.5408 141.025 82.599C141.218 81.7064 143.174 73.5908 146.449 60.0858V60.0134H146.521L148.332 60.4525C148.951 60.5924 149.564 60.7999 150.192 60.9881C151.438 61.3982 152.713 61.8614 153.998 62.4018C156.732 63.5377 159.36 64.9134 161.851 66.5126C164.601 68.2866 167.181 70.3104 169.559 72.5583C172.096 75.043 174.379 77.7746 176.374 80.7124C176.89 81.4748 177.34 82.2902 177.822 83.0815L178.552 84.2877C178.774 84.7026 178.977 85.1321 179.194 85.5567L180.479 88.1284L181.575 90.8303C183.075 94.5687 184.1 98.48 184.628 102.473C185.152 106.676 185.09 110.932 184.444 115.119C184.299 116.19 184.058 117.252 183.845 118.323C183.633 119.394 183.328 120.446 183 121.498C182.362 123.625 181.586 125.709 180.677 127.736L180.638 127.833H180.537L167.26 124.6L161.513 123.22L161.218 123.148L161.479 122.989C162.899 122.137 164.016 120.863 164.676 119.346C165 118.597 165.205 117.803 165.285 116.991C165.377 116.186 165.338 115.371 165.169 114.579C165.088 114.184 164.98 113.795 164.845 113.416C164.699 113.041 164.528 112.677 164.333 112.325C163.952 111.623 163.463 110.985 162.884 110.434C162.036 109.624 161.019 109.011 159.907 108.64C158.794 108.268 157.613 108.148 156.447 108.286C155.282 108.424 154.162 108.818 153.168 109.44C152.173 110.062 151.328 110.895 150.694 111.882C150.281 112.518 149.965 113.212 149.757 113.942C149.534 114.659 149.422 115.406 149.424 116.156C149.431 117.644 149.856 119.101 150.651 120.359L150.805 120.61L150.525 120.542L132.834 116.224L132.728 116.195L132.752 116.089C134.766 107.886 136.615 100.345 138.258 93.6047L138.398 93.7012C137.165 94.4769 135.748 94.91 134.292 94.9556C132.912 94.9919 131.546 94.6711 130.327 94.0244C129.284 93.4793 128.371 92.7149 127.652 91.7837C126.933 90.8524 126.425 89.7766 126.162 88.6302C125.899 87.4838 125.887 86.2941 126.129 85.143C126.37 83.9919 126.858 82.9066 127.56 81.9621C128.676 80.4897 130.251 79.4305 132.037 78.9513C132.794 78.7655 133.571 78.6795 134.35 78.6956C135.033 78.7291 135.711 78.8392 136.369 79.0237C138.042 79.5068 139.511 80.5235 140.552 81.9187C140.689 82.0943 140.813 82.2798 140.924 82.4735L140.827 82.3384C140.764 82.2419 140.668 82.1068 140.532 81.9331C140.132 81.4159 139.671 80.9478 139.161 80.5387C138.328 79.8768 137.373 79.385 136.35 79.0912C135.697 78.9142 135.026 78.8106 134.35 78.7824C133.579 78.7678 132.809 78.8554 132.061 79.043C130.301 79.5235 128.751 80.576 127.656 82.0345C126.968 82.9643 126.489 84.0322 126.254 85.1646C126.018 86.2969 126.031 87.4669 126.292 88.5937C126.553 89.7206 127.055 90.7775 127.764 91.6917C128.473 92.606 129.372 93.3557 130.4 93.8893C131.628 94.5354 133.005 94.8454 134.392 94.7877C135.779 94.7301 137.126 94.307 138.296 93.5612L138.489 93.4406L138.436 93.6577C136.794 100.413 134.964 107.925 132.964 116.152L132.887 116.021L150.578 120.32L150.457 120.504C149.633 119.205 149.192 117.699 149.187 116.161C149.181 115.388 149.295 114.618 149.525 113.879C149.739 113.127 150.065 112.411 150.491 111.756C151.354 110.421 152.585 109.363 154.036 108.712C155.521 108.042 157.172 107.829 158.779 108.1C160.385 108.37 161.875 109.112 163.058 110.231C163.655 110.794 164.161 111.445 164.56 112.161C164.76 112.524 164.936 112.9 165.087 113.286C165.226 113.676 165.338 114.076 165.42 114.482C165.596 115.3 165.639 116.141 165.545 116.972C165.422 118.243 165.002 119.467 164.318 120.545C163.634 121.624 162.706 122.527 161.609 123.182L161.575 122.95L167.323 124.349L180.595 127.587L180.45 127.654C181.353 125.636 182.126 123.562 182.763 121.445C183.092 120.398 183.343 119.341 183.604 118.284C183.864 117.228 184.058 116.166 184.198 115.105C184.847 110.941 184.912 106.707 184.391 102.526C183.876 98.5374 182.862 94.6292 181.372 90.893L180.281 88.2007C179.856 87.3419 179.426 86.4879 179.006 85.6387C178.793 85.2189 178.59 84.7895 178.368 84.3794L177.644 83.178C177.161 82.3818 176.707 81.5713 176.195 80.8137C172.425 75.1426 167.507 70.3235 161.759 66.667C159.28 65.0702 156.665 63.6946 153.944 62.5562C152.665 62.011 151.394 61.5478 150.153 61.1376C149.525 60.9495 148.922 60.742 148.303 60.5972L146.497 60.1727L146.584 60.1196C143.271 73.6294 141.271 81.7208 141.025 82.6038L140.914 82.4301Z" fill="#495E4C"/>
<path d="M157.523 140.808L157.658 140.668C158.752 139.546 159.49 138.125 159.778 136.586C160.067 135.046 159.893 133.455 159.28 132.014C158.666 130.572 157.64 129.344 156.329 128.483C155.019 127.623 153.484 127.168 151.916 127.177C150.348 127.186 148.817 127.657 147.516 128.532C146.216 129.407 145.203 130.647 144.605 132.095C144.008 133.543 143.852 135.136 144.158 136.672C144.463 138.208 145.216 139.62 146.323 140.731L146.41 140.808H127.526V161.984L127.603 161.893C128.331 161.162 129.197 160.581 130.15 160.185C131.103 159.788 132.125 159.583 133.157 159.582C134.456 159.58 135.735 159.897 136.883 160.504C138.031 161.112 139.012 161.992 139.74 163.067C140.467 164.141 140.92 165.378 141.058 166.668C141.195 167.959 141.014 169.263 140.529 170.467C140.045 171.671 139.272 172.738 138.278 173.573C137.284 174.409 136.101 174.988 134.83 175.26C133.56 175.532 132.243 175.489 130.994 175.133C129.745 174.778 128.602 174.121 127.666 173.222L127.526 173.082V197.361H148.82C148.82 197.361 149.786 189.26 150.752 183.103C151.718 176.947 165.506 164.387 169.462 159.152C171.056 157.044 174.992 150.13 176.707 140.817L157.523 140.808Z" fill="#E9E9E9"/>
<path d="M164.023 165.227C163.788 164.69 163.373 164.251 162.849 163.987C162.326 163.723 161.726 163.649 161.154 163.779C160.386 163.972 159.705 164.537 158.899 164.45C158.544 164.374 158.213 164.213 157.935 163.98C157.657 163.747 157.441 163.449 157.305 163.113C156.977 162.467 156.798 161.748 156.411 161.135C156.244 160.813 155.986 160.546 155.67 160.366C155.354 160.186 154.992 160.101 154.629 160.122C153.697 160.276 153.113 161.42 152.166 161.439C151.886 161.418 151.616 161.328 151.379 161.178C151.141 161.029 150.944 160.823 150.804 160.58C150.49 160.098 150.297 159.586 149.973 159.133C149.433 158.437 148.642 157.979 147.769 157.857C146.895 157.735 146.009 157.959 145.298 158.481C144.39 158.94 143.424 160.46 143.294 162.009C142.903 166.689 141.077 167.528 141.077 167.528C141.078 169.082 140.622 170.603 139.765 171.9C138.908 173.197 137.688 174.213 136.256 174.823C134.825 175.432 133.246 175.608 131.716 175.327C130.186 175.047 128.772 174.323 127.651 173.246L127.51 173.106V197.385H148.805C148.805 197.385 149.771 189.284 150.737 183.127L150.703 182.973C150.718 182.909 150.729 182.845 150.737 182.78C151.364 178.375 164.023 165.227 164.023 165.227Z" fill="#5CCD6A"/>
<path d="M157.523 140.807L176.726 140.74H176.808V140.822C176.041 144.934 174.803 148.944 173.118 152.773C172.155 155.017 170.972 157.16 169.587 159.171C168.027 161.193 166.207 163.113 164.333 165.13C162.459 167.147 160.527 169.221 158.59 171.402C156.567 173.637 154.7 176.009 153.002 178.5C152.106 179.777 151.422 181.192 150.979 182.688C150.684 184.237 150.496 185.848 150.245 187.455C149.791 190.678 149.361 193.988 148.955 197.356V197.462H127.4V172.777L127.613 172.994C128.463 173.855 129.504 174.505 130.651 174.892C131.799 175.279 133.021 175.393 134.22 175.224C135.01 175.124 135.778 174.895 136.494 174.548C136.852 174.38 137.198 174.186 137.528 173.969C137.85 173.742 138.158 173.496 138.45 173.231C139.442 172.317 140.18 171.162 140.592 169.878C141.003 168.594 141.074 167.225 140.798 165.906C140.521 164.586 139.907 163.361 139.015 162.35C138.122 161.338 136.983 160.576 135.707 160.136C135.006 159.889 134.272 159.748 133.529 159.716C132.792 159.672 132.053 159.74 131.336 159.919C129.918 160.269 128.628 161.012 127.613 162.061L127.405 162.273V161.984C127.405 154.515 127.405 147.437 127.405 140.807V140.701H127.511H146.395L146.337 140.86C145.302 139.863 144.556 138.604 144.178 137.218C143.831 135.902 143.831 134.519 144.178 133.203C144.621 131.437 145.655 129.874 147.108 128.776C148.562 127.678 150.349 127.11 152.171 127.166C153.992 127.222 155.74 127.9 157.123 129.086C158.506 130.272 159.442 131.895 159.774 133.686C159.891 134.348 159.932 135.021 159.894 135.693C159.825 136.749 159.542 137.779 159.064 138.723C158.773 139.302 158.41 139.842 157.982 140.33C157.842 140.499 157.721 140.614 157.648 140.692L157.528 140.807L157.639 140.687C157.711 140.6 157.822 140.484 157.962 140.315C159.066 139.014 159.717 137.39 159.817 135.688C159.841 135.367 159.841 135.044 159.817 134.723C159.757 133.617 159.459 132.538 158.943 131.558C158.21 130.142 157.063 128.983 155.654 128.234C154.245 127.486 152.642 127.183 151.057 127.367C149.472 127.551 147.981 128.212 146.782 129.264C145.582 130.315 144.732 131.706 144.343 133.251C144.005 134.54 144.005 135.895 144.343 137.184C144.718 138.535 145.448 139.761 146.458 140.735L146.617 140.894H146.395H127.511L127.617 140.788C127.617 147.417 127.617 154.496 127.617 161.965L127.415 161.887C128.459 160.801 129.79 160.031 131.254 159.668C132.747 159.317 134.309 159.393 135.76 159.89C136.882 160.276 137.904 160.906 138.754 161.733C139.604 162.56 140.26 163.565 140.676 164.675C141.091 165.786 141.255 166.974 141.157 168.155C141.059 169.337 140.7 170.482 140.107 171.508C139.704 172.212 139.194 172.849 138.595 173.395C138.29 173.669 137.967 173.924 137.629 174.157C137.288 174.381 136.931 174.581 136.562 174.756C135.822 175.113 135.03 175.347 134.215 175.45C133.397 175.567 132.566 175.556 131.752 175.417C130.102 175.133 128.583 174.342 127.405 173.154L127.622 173.062V180.41C127.622 186.2 127.622 191.918 127.622 197.341L127.501 197.22H148.796L148.675 197.327C149.09 193.946 149.525 190.642 149.979 187.416C150.216 185.8 150.418 184.212 150.718 182.635C151.169 181.113 151.864 179.674 152.775 178.374C154.484 175.877 156.36 173.5 158.392 171.258C160.324 169.057 162.28 166.983 164.149 164.985C166.018 162.988 167.849 161.053 169.399 159.05C170.781 157.053 171.961 154.925 172.925 152.696C174.613 148.881 175.859 144.886 176.639 140.788L176.702 140.865L157.523 140.807Z" fill="#495E4C"/>
<path d="M143.347 155.957C143.347 156.321 143.24 156.676 143.037 156.979C142.835 157.281 142.548 157.516 142.212 157.656C141.875 157.795 141.505 157.831 141.148 157.76C140.791 157.689 140.464 157.514 140.206 157.257C139.949 157 139.774 156.672 139.703 156.316C139.632 155.959 139.668 155.59 139.807 155.254C139.947 154.918 140.182 154.631 140.485 154.429C140.788 154.227 141.143 154.119 141.507 154.119C141.995 154.119 142.463 154.313 142.809 154.657C143.154 155.002 143.347 155.47 143.347 155.957V155.957Z" fill="#5CCD6A"/>
<g opacity="0.2">
<path d="M133.891 175.296C132.017 175.45 129.94 174.693 129.061 173.018L127.613 173.655C127.613 174.62 128.815 176.516 129.699 176.878C131.467 177.665 133.454 177.815 135.321 177.303C136.261 176.978 137.104 176.419 137.768 175.679C138.432 174.938 138.896 174.041 139.117 173.071C137.46 174.278 135.765 175.141 133.891 175.296Z" fill="black"/>
</g>
<path d="M116.567 88.4815C118.591 88.1601 120.66 88.6358 122.339 89.8084L122.489 89.929L118.944 67.4834L116.751 67.8308C109.07 69.3842 101.874 72.7526 95.7637 77.654C89.6533 82.5554 84.8067 88.8474 81.6294 96.0036C75.5584 109.325 76.8914 121.547 80.1804 130.83L82.518 130.459L100.726 127.588L100.61 127.752C99.7052 129.031 99.1988 130.548 99.1546 132.114C99.1104 133.68 99.5303 135.224 100.362 136.552C101.193 137.88 102.398 138.933 103.827 139.578C105.255 140.224 106.843 140.434 108.39 140.181C109.937 139.928 111.375 139.224 112.523 138.157C113.671 137.09 114.478 135.709 114.843 134.185C115.207 132.662 115.113 131.065 114.571 129.595C114.03 128.125 113.066 126.847 111.801 125.923L111.699 125.86L112.206 125.778L127.801 123.298L124.256 100.867L124.189 100.968C123.584 101.805 122.82 102.513 121.941 103.054C121.061 103.595 120.084 103.957 119.064 104.119C117.04 104.34 115.008 103.774 113.389 102.54C111.77 101.306 110.688 99.4965 110.367 97.4874C110.047 95.4782 110.511 93.4227 111.665 91.7463C112.82 90.0699 114.575 88.901 116.567 88.4815V88.4815Z" fill="#5CCD6A"/>
<path d="M116.567 88.4811L116.036 88.6017C115.818 88.6483 115.603 88.7095 115.394 88.7851C115.268 88.8285 115.133 88.8671 114.988 88.925L114.534 89.1228C113.746 89.484 113.023 89.9731 112.394 90.5703C111.542 91.39 110.882 92.3887 110.463 93.4942C110.34 93.8093 110.237 94.1315 110.153 94.4592C110.072 94.8118 110.015 95.1697 109.984 95.5303C109.903 96.3039 109.944 97.0854 110.105 97.8463C110.483 99.7273 111.538 101.404 113.071 102.56C114.604 103.716 116.507 104.271 118.422 104.119C119.536 104.032 120.617 103.702 121.59 103.154C122.617 102.578 123.5 101.778 124.174 100.814L124.295 100.64L124.329 100.847C125.377 107.453 126.574 114.994 127.893 123.279V123.38H127.791L111.718 125.923L111.762 125.715C112.979 126.562 113.936 127.732 114.524 129.093C114.827 129.781 115.021 130.512 115.099 131.259C115.197 132.013 115.184 132.777 115.06 133.527C114.934 134.284 114.702 135.02 114.37 135.712C114.028 136.413 113.591 137.062 113.071 137.642C112.002 138.812 110.613 139.643 109.076 140.031C107.508 140.431 105.855 140.343 104.338 139.78C102.797 139.208 101.467 138.181 100.523 136.837C100.035 136.167 99.6678 135.417 99.4363 134.622C99.182 133.83 99.0565 133.003 99.0644 132.171C99.0748 130.478 99.6209 128.831 100.624 127.467L100.745 127.664L87.4586 129.758L80.2141 130.902H80.1078L80.074 130.801C78.6633 126.822 77.7784 122.676 77.4418 118.468C77.2786 116.42 77.2576 114.363 77.379 112.311C77.466 111.298 77.5239 110.285 77.6785 109.286C77.7461 108.804 77.7944 108.287 77.8861 107.795L78.1614 106.319C78.9203 102.489 80.1652 98.7708 81.8658 95.2553L83.1409 92.7222L83.4596 92.095C83.5707 91.8875 83.7011 91.6945 83.817 91.4918L84.5463 90.3001C84.783 89.9044 85.0293 89.5088 85.2659 89.118L85.6233 88.5293L86.0242 87.9745L87.6228 85.7646C87.874 85.3931 88.1783 85.0602 88.4632 84.7176L89.3277 83.6996L90.1826 82.6863C90.4724 82.3582 90.7959 82.0591 91.1002 81.7455C91.7136 81.1279 92.3076 80.4958 92.9307 79.9072L94.8626 78.2233C97.3612 76.1441 100.052 74.3071 102.899 72.7373C105.53 71.3222 108.277 70.1341 111.11 69.1862C113.665 68.3172 116.298 67.6968 118.972 67.3334H119.05V67.4106C120.634 77.5864 121.822 85.2001 122.551 89.861V89.9527L122.488 89.9286C121.215 88.9894 119.689 88.4518 118.108 88.3846C117.723 88.3696 117.337 88.3809 116.954 88.4184L116.577 88.457C116.577 88.457 116.698 88.4328 116.954 88.3991C117.336 88.3503 117.722 88.3326 118.108 88.346C119.702 88.3952 121.245 88.925 122.532 89.8658L122.469 89.9044C121.725 85.2484 120.508 77.6346 118.881 67.4685L118.972 67.536C116.31 67.9008 113.689 68.5246 111.148 69.3984C105.226 71.3519 99.7319 74.4158 94.9592 78.4259L93.0514 80.105C92.4284 80.6936 91.8392 81.3257 91.2258 81.9385C90.9264 82.2521 90.6076 82.5512 90.3178 82.9035C90.028 83.2557 89.7527 83.5741 89.4678 83.9119L88.6081 84.9251C88.3096 85.259 88.0291 85.6085 87.7677 85.9721L86.1836 88.1675L85.7827 88.6982L85.4253 89.282L84.7105 90.4641L83.9909 91.6511C83.8701 91.8489 83.7446 92.0467 83.6335 92.2494L83.3196 92.8766C82.8945 93.7113 82.4744 94.5509 82.0494 95.3952C80.3601 98.8963 79.1234 102.598 78.3691 106.411C78.2822 106.893 78.1904 107.376 78.0987 107.858C78.0069 108.341 77.9586 108.823 77.891 109.344C77.7364 110.309 77.6785 111.342 77.5964 112.35C77.475 114.39 77.4959 116.436 77.6591 118.473C77.9954 122.659 78.8771 126.784 80.2817 130.743L80.1465 130.661L87.391 129.517L100.682 127.423L100.982 127.375L100.803 127.616C100.074 128.599 99.5898 129.74 99.3891 130.946C99.1884 132.153 99.2774 133.389 99.6488 134.554C99.7663 134.938 99.9116 135.312 100.083 135.674C100.264 136.031 100.471 136.375 100.702 136.702C101.617 138.006 102.907 139.002 104.401 139.558C105.136 139.826 105.905 139.989 106.686 140.04C107.462 140.071 108.239 139.995 108.994 139.814C109.74 139.627 110.454 139.333 111.115 138.94C112.42 138.154 113.469 137.006 114.133 135.635C114.451 134.961 114.677 134.247 114.804 133.512C114.923 132.785 114.936 132.043 114.843 131.312C114.764 130.587 114.577 129.878 114.288 129.208C113.716 127.889 112.792 126.752 111.617 125.923L111.38 125.759L111.66 125.715L127.758 123.221L127.671 123.341C126.352 115.018 125.183 107.482 124.15 100.881L124.3 100.91C123.608 101.895 122.704 102.711 121.653 103.298C120.658 103.854 119.554 104.183 118.417 104.263C116.469 104.412 114.535 103.842 112.979 102.661C111.424 101.481 110.357 99.7707 109.98 97.8559C109.821 97.0831 109.784 96.2905 109.868 95.5062C109.923 94.7957 110.086 94.0978 110.351 93.4363C110.721 92.4697 111.279 91.5856 111.992 90.8347C112.704 90.0837 113.558 89.4806 114.505 89.0601L114.964 88.8623L115.374 88.732C115.585 88.6579 115.801 88.6015 116.021 88.5631C116.384 88.4811 116.567 88.4811 116.567 88.4811Z" fill="#495E4C"/>
<path d="M127.188 197.423H107.932C107.932 197.423 106.966 189.322 106 183.165C105.034 177.008 91.245 164.449 87.2895 159.209C85.6957 157.101 81.7595 150.191 80.0449 140.874H98.2336L98.0935 141.019C96.9985 142.142 96.2602 143.563 95.9713 145.104C95.6823 146.645 95.8557 148.236 96.4696 149.679C97.0836 151.122 98.1106 152.351 99.4217 153.212C100.733 154.073 102.269 154.528 103.839 154.519C105.408 154.511 106.939 154.039 108.241 153.163C109.542 152.287 110.556 151.047 111.153 149.598C111.751 148.148 111.907 146.555 111.601 145.017C111.295 143.48 110.541 142.067 109.434 140.956L109.347 140.874L127.048 141.005V162.181C127.048 162.181 128.699 159.668 132.684 159.769C136.668 159.87 139.677 162.702 140.32 165.559C140.962 168.415 140.426 173.805 135.055 175.257C129.685 176.709 126.99 172.926 126.99 172.926L127.048 197.534" fill="white"/>
<path d="M127.023 196.342C127.091 196.342 127.148 196.612 127.148 196.945C127.148 197.278 127.095 197.548 127.023 197.548C126.95 197.548 126.897 197.278 126.897 196.945C126.897 196.612 126.95 196.342 127.023 196.342Z" fill="#495E4C"/>
<path d="M127.008 191.406C127.131 191.805 127.175 192.225 127.139 192.641C127.181 193.057 127.138 193.477 127.013 193.876C126.891 193.477 126.848 193.057 126.888 192.641C126.845 192.225 126.886 191.805 127.008 191.406V191.406Z" fill="#495E4C"/>
<path d="M126.999 186.47C127.121 186.87 127.164 187.29 127.125 187.706C127.167 188.121 127.126 188.541 127.004 188.941C126.878 188.542 126.834 188.122 126.873 187.706C126.831 187.29 126.874 186.869 126.999 186.47V186.47Z" fill="#495E4C"/>
<path d="M126.985 181.535C127.11 181.934 127.155 182.354 127.115 182.77C127.158 183.186 127.115 183.606 126.99 184.005C126.868 183.606 126.825 183.186 126.864 182.77C126.822 182.354 126.863 181.934 126.985 181.535V181.535Z" fill="#495E4C"/>
<path d="M126.975 176.599C127.097 176.998 127.14 177.418 127.101 177.834C127.143 178.249 127.102 178.669 126.98 179.069C126.857 178.669 126.812 178.25 126.849 177.834C126.807 177.418 126.85 176.997 126.975 176.599V176.599Z" fill="#495E4C"/>
<path d="M127.801 173.795C127.801 173.824 127.656 173.757 127.482 173.622C127.378 173.543 127.28 173.457 127.187 173.366L127.028 173.197L126.946 173.101L126.907 173.052V173.028L127.134 172.956C127.176 173.362 127.134 173.773 127.008 174.162C126.864 173.764 126.805 173.34 126.835 172.917L127.062 172.845V172.869L127.1 172.917L127.173 173.009L127.313 173.178L127.559 173.467C127.738 173.66 127.801 173.771 127.801 173.795Z" fill="#495E4C"/>
<path d="M132.08 175.566C131.279 175.68 130.463 175.489 129.796 175.03C130.188 175.057 130.575 175.137 130.945 175.267C131.335 175.317 131.717 175.417 132.08 175.566V175.566Z" fill="#495E4C"/>
<path d="M136.649 174.634C136.688 174.692 136.238 175.001 135.606 175.213C135.235 175.375 134.83 175.44 134.427 175.402C134.427 175.324 134.91 175.18 135.524 174.977C135.881 174.812 136.26 174.697 136.649 174.634V174.634Z" fill="#495E4C"/>
<path d="M139.792 171.242C139.752 171.648 139.596 172.033 139.343 172.352C138.986 172.912 138.565 173.264 138.522 173.216C138.478 173.168 138.792 172.733 139.13 172.212C139.468 171.691 139.724 171.214 139.792 171.242Z" fill="#495E4C"/>
<path d="M140.463 166.645C140.624 167.015 140.682 167.422 140.633 167.822C140.668 168.225 140.593 168.631 140.415 168.995C140.347 168.606 140.336 168.209 140.381 167.817C140.351 167.425 140.378 167.029 140.463 166.645Z" fill="#495E4C"/>
<path d="M138.566 162.413C138.615 162.365 139.049 162.712 139.407 163.262C139.671 163.571 139.839 163.95 139.89 164.353C139.827 164.382 139.566 163.928 139.204 163.388C138.842 162.848 138.513 162.462 138.566 162.413Z" fill="#495E4C"/>
<path d="M134.562 160.039C134.967 160.016 135.37 160.106 135.726 160.3C136.34 160.551 136.77 160.883 136.731 160.941C136.347 160.855 135.977 160.717 135.63 160.531C135.254 160.414 134.895 160.249 134.562 160.039Z" fill="#495E4C"/>
<path d="M129.906 160.16C130.234 159.917 130.625 159.775 131.032 159.75C131.422 159.64 131.835 159.64 132.225 159.75C131.852 159.88 131.464 159.958 131.07 159.981C130.691 160.086 130.3 160.146 129.906 160.16V160.16Z" fill="#495E4C"/>
<path d="M127.023 160.966C127.148 161.355 127.191 161.766 127.149 162.172L126.917 162.1V162.076L126.956 162.023L127.033 161.926L127.192 161.757C127.283 161.662 127.381 161.575 127.487 161.497C127.661 161.362 127.786 161.304 127.811 161.328C127.835 161.352 127.748 161.463 127.608 161.627C127.468 161.791 127.434 161.83 127.361 161.912L127.221 162.085L127.154 162.177L127.12 162.225V162.249L126.888 162.182C126.85 161.772 126.896 161.358 127.023 160.966Z" fill="#495E4C"/>
<path d="M127.023 155.605C127.19 156.49 127.19 157.399 127.023 158.283C126.855 157.399 126.855 156.49 127.023 155.605V155.605Z" fill="#495E4C"/>
<path d="M127.023 150.239C127.19 151.124 127.19 152.032 127.023 152.917C126.855 152.032 126.855 151.124 127.023 150.239V150.239Z" fill="#495E4C"/>
<path d="M127.023 144.884C127.19 145.769 127.19 146.677 127.023 147.562C126.855 146.677 126.855 145.769 127.023 144.884V144.884Z" fill="#495E4C"/>
<path d="M125.816 140.986C126.207 140.867 126.617 140.828 127.023 140.87L127.149 140.996V141.222C127.149 141.295 127.149 141.372 127.149 141.449C127.149 141.526 127.149 141.724 127.149 141.835C127.125 142.052 127.091 142.187 127.057 142.187C127.023 142.187 126.99 142.052 126.97 141.835C126.97 141.724 126.97 141.594 126.941 141.449V140.996L127.067 141.121C126.645 141.166 126.218 141.12 125.816 140.986V140.986Z" fill="#495E4C"/>
<path d="M121.45 140.957C121.799 140.832 122.173 140.791 122.541 140.836C122.91 140.8 123.283 140.846 123.633 140.971C123.282 141.09 122.909 141.129 122.541 141.087C122.172 141.123 121.8 141.079 121.45 140.957V140.957Z" fill="#495E4C"/>
<path d="M117.079 140.923C117.8 140.759 118.547 140.759 119.267 140.923C118.916 141.047 118.541 141.088 118.171 141.044C117.803 141.084 117.43 141.043 117.079 140.923V140.923Z" fill="#495E4C"/>
<path d="M112.713 140.894C113.063 140.769 113.436 140.728 113.805 140.773C114.174 140.734 114.548 140.78 114.896 140.908C114.545 141.027 114.173 141.066 113.805 141.024C113.436 141.06 113.063 141.016 112.713 140.894V140.894Z" fill="#495E4C"/>
<path d="M110.125 141.768C110.096 141.768 109.985 141.705 109.825 141.555C109.743 141.483 109.651 141.391 109.555 141.29L109.405 141.126L109.328 141.039L109.284 141C109.212 141.193 109.39 140.73 109.371 140.778C109.779 140.742 110.189 140.788 110.579 140.914C110.188 141.035 109.777 141.075 109.371 141.029C109.371 141.078 109.531 140.614 109.453 140.812V140.836L109.497 140.88L109.579 140.971L109.724 141.15C109.815 141.266 109.898 141.372 109.96 141.464C110.086 141.623 110.154 141.743 110.125 141.768Z" fill="#495E4C"/>
<path d="M111.713 146.085C111.575 145.72 111.484 145.339 111.442 144.951C111.324 144.579 111.258 144.193 111.244 143.803C111.494 144.12 111.648 144.502 111.689 144.903C111.81 145.287 111.819 145.697 111.713 146.085Z" fill="#495E4C"/>
<path d="M110.608 150.558C110.852 149.819 111.149 149.098 111.496 148.401C111.466 149.203 111.151 149.967 110.608 150.558V150.558Z" fill="#495E4C"/>
<path d="M107.197 153.656C107.168 153.588 107.618 153.328 108.163 152.976C108.709 152.623 109.1 152.305 109.129 152.358C109.158 152.411 108.83 152.841 108.284 153.183C107.974 153.44 107.597 153.604 107.197 153.656Z" fill="#495E4C"/>
<path d="M102.638 154.336C103.019 154.243 103.415 154.228 103.802 154.293C104.19 154.222 104.589 154.237 104.971 154.336C104.601 154.484 104.205 154.555 103.807 154.544C103.407 154.558 103.008 154.487 102.638 154.336V154.336Z" fill="#495E4C"/>
<path d="M98.4704 152.372C98.5187 152.319 98.9533 152.633 99.4363 152.985C99.9193 153.337 100.402 153.598 100.402 153.665C100.002 153.61 99.625 153.443 99.3156 153.183C98.7746 152.83 98.4221 152.42 98.4704 152.372Z" fill="#495E4C"/>
<path d="M96.099 148.425C96.3071 148.754 96.4695 149.11 96.582 149.482C96.7664 149.826 96.9044 150.192 96.9925 150.572C96.9346 150.611 96.6013 150.186 96.3502 149.578C96.157 149.226 96.0698 148.826 96.099 148.425Z" fill="#495E4C"/>
<path d="M96.3258 143.823C96.3156 144.213 96.2522 144.599 96.1374 144.972C96.1023 145.36 96.0129 145.742 95.8718 146.105C95.7412 145.315 95.9025 144.504 96.3258 143.823V143.823Z" fill="#495E4C"/>
<path d="M97.0015 140.865C97.3914 140.743 97.8021 140.7 98.2089 140.74C98.2475 140.836 98.122 140.527 98.3007 140.957L98.2572 141L98.1751 141.082L98.0254 141.251L97.7597 141.521C97.6052 141.671 97.4893 141.753 97.4651 141.733C97.441 141.714 97.4989 141.589 97.6245 141.41C97.6873 141.319 97.7646 141.208 97.8515 141.092L97.9964 140.913C98.0212 140.88 98.0486 140.85 98.0785 140.822L98.122 140.778C98.3007 141.208 98.1703 140.899 98.2089 140.99C97.8021 141.033 97.3909 140.99 97.0015 140.865V140.865Z" fill="#495E4C"/>
<path d="M92.8151 140.865C92.8151 140.797 93.0855 140.74 93.4188 140.74C93.752 140.74 94.0225 140.797 94.0225 140.865C94.0225 140.933 93.752 140.99 93.4188 140.99C93.0855 140.99 92.8151 140.937 92.8151 140.865Z" fill="#495E4C"/>
<path d="M127.25 197.422H126.903H125.893H122.029L107.999 197.524H107.912V197.437C107.429 193.485 106.84 189.003 106.106 184.183C105.922 181.722 104.507 179.527 103.029 177.428C101.454 175.27 99.7682 173.196 97.9775 171.213C95.6061 168.535 93.2009 166.007 90.9261 163.537C89.7959 162.297 88.6851 161.076 87.6709 159.822C87.1704 159.201 86.7137 158.546 86.3041 157.863C85.8887 157.197 85.512 156.516 85.1498 155.846C83.8226 153.308 82.7096 150.665 81.8221 147.943C81.0474 145.635 80.4342 143.276 79.9868 140.884V140.782H80.0882L89.1777 140.821L91.5926 140.845H92.2253H92.4378H92.2253H91.5926H89.1777L80.0882 140.884L80.1703 140.782C80.6202 143.156 81.2301 145.497 81.996 147.788C82.8908 150.496 84.0087 153.125 85.3381 155.648C85.6955 156.319 86.0722 156.994 86.4876 157.655C86.8954 158.329 87.3489 158.973 87.8447 159.585C88.8493 160.825 89.9602 162.041 91.0951 163.276C93.3699 165.747 95.78 168.27 98.1513 170.958C99.9495 172.967 101.639 175.07 103.213 177.259C103.969 178.305 104.65 179.403 105.251 180.545C105.539 181.11 105.779 181.699 105.966 182.306C106.13 182.906 106.25 183.517 106.323 184.134C107.048 188.959 107.613 193.442 108.091 197.408L107.989 197.316L122.025 197.36L125.888 197.389H126.898C127.134 197.413 127.25 197.422 127.25 197.422Z" fill="#495E4C"/>
<path d="M125.981 197.423C125.981 197.351 126.251 197.298 126.584 197.298C126.918 197.298 127.188 197.351 127.188 197.423C127.188 197.496 126.918 197.549 126.584 197.549C126.251 197.549 125.981 197.491 125.981 197.423Z" fill="#495E4C"/>
<path d="M121.17 197.423C121.966 197.254 122.789 197.254 123.585 197.423C122.789 197.592 121.966 197.592 121.17 197.423V197.423Z" fill="#495E4C"/>
<path d="M116.354 197.423C117.15 197.254 117.973 197.254 118.769 197.423C117.973 197.592 117.15 197.592 116.354 197.423V197.423Z" fill="#495E4C"/>
<path d="M111.543 197.423C112.339 197.254 113.162 197.254 113.958 197.423C113.162 197.592 112.339 197.592 111.543 197.423V197.423Z" fill="#495E4C"/>
<path d="M107.782 196.226C107.816 196.226 107.864 196.352 107.917 196.564C107.917 196.675 107.966 196.8 107.99 196.945C108.014 197.09 108.014 197.1 108.024 197.167V197.288V197.35V197.403C107.966 197.355 108.144 197.519 107.898 197.293C108.305 197.25 108.716 197.293 109.105 197.418C108.715 197.54 108.305 197.583 107.898 197.543C107.898 197.288 107.734 197.486 107.772 197.428V197.312V197.191V196.969C107.772 196.824 107.772 196.694 107.772 196.583C107.734 196.366 107.748 196.231 107.782 196.226Z" fill="#495E4C"/>
<path d="M107.144 191.251C107.421 192.049 107.532 192.895 107.468 193.736C107.196 192.938 107.086 192.093 107.144 191.251V191.251Z" fill="#495E4C"/>
<path d="M106.459 186.296C106.64 186.679 106.742 187.094 106.758 187.517C106.857 187.93 106.875 188.357 106.811 188.776C106.53 187.981 106.411 187.138 106.459 186.296V186.296Z" fill="#495E4C"/>
<path d="M105.454 181.404C105.728 181.736 105.911 182.133 105.985 182.557C106.121 182.962 106.158 183.394 106.091 183.816C106.009 183.816 105.908 183.271 105.744 182.62C105.596 182.228 105.498 181.82 105.454 181.404V181.404Z" fill="#495E4C"/>
<path d="M102.893 177.11C103.219 177.378 103.492 177.706 103.695 178.075C103.965 178.402 104.165 178.779 104.284 179.185C104.226 179.224 103.869 178.789 103.483 178.22C103.214 177.893 103.014 177.516 102.893 177.11Z" fill="#495E4C"/>
<path d="M99.7885 173.178C99.8416 173.134 100.242 173.535 100.682 174.07C100.981 174.371 101.219 174.726 101.382 175.117C101.324 175.161 100.928 174.76 100.489 174.23C100.188 173.928 99.9502 173.571 99.7885 173.178V173.178Z" fill="#495E4C"/>
<path d="M96.4759 169.42C96.5242 169.376 96.9589 169.753 97.4032 170.269C97.7157 170.556 97.9684 170.902 98.147 171.287C98.0938 171.335 97.664 170.954 97.2148 170.438C96.7657 169.922 96.4083 169.468 96.4759 169.42Z" fill="#495E4C"/>
<path d="M93.0759 165.737C93.1242 165.689 93.5588 166.061 94.0418 166.572C94.3593 166.854 94.6185 167.195 94.8049 167.576C94.7518 167.619 94.3219 167.248 93.839 166.741C93.356 166.234 93.0276 165.786 93.0759 165.737Z" fill="#495E4C"/>
<path d="M89.6803 162.051C89.7286 162.003 90.1632 162.379 90.6172 162.891C90.9286 163.177 91.184 163.519 91.3707 163.899C91.3175 163.947 90.8877 163.571 90.4289 163.06C89.9701 162.548 89.6465 162.095 89.6803 162.051Z" fill="#495E4C"/>
<path d="M87.2797 159.209C87.3328 159.166 87.5453 159.344 87.7627 159.605C87.98 159.866 88.0911 160.088 88.0379 160.155C87.9848 160.223 87.7723 160.02 87.555 159.759C87.3376 159.499 87.2314 159.253 87.2797 159.209Z" fill="#495E4C"/>
</g>
<defs>
<clipPath id="clip0_86_2007">
<rect width="279" height="246" fill="white" transform="translate(0.491699 0.206055)"/>
</clipPath>
</defs>
</svg>
