<svg width="48" height="48" viewBox="0 0 48 48" fill="none" xmlns="http://www.w3.org/2000/svg">
<path fill-rule="evenodd" clip-rule="evenodd" d="M1.74588 19.2372C0.125163 26.0619 -0.245532 33.2141 0.140249 40.2373C-0.0343223 42.47 0.993709 44.6258 2.36011 46.1639C4.36014 48.4016 8.29985 48.0965 10.8861 47.7814C15.5952 47.2505 17.6901 42.1748 17.9659 37.2851C18.1771 28.833 18.2289 19.9516 18.2138 11.4846C18.2105 11.2435 18.211 10.9904 18.2114 10.7302C18.2133 9.6145 18.2155 8.36862 17.9271 7.37886C17.2267 4.61523 15.0478 3.6229 12.8581 4.1538C12.4156 4.31956 11.9894 4.53824 11.5865 4.80625C10.2716 5.64793 9.04263 6.65646 7.92269 7.813C5.68367 10.0879 3.90299 12.8979 2.70494 16.0468C2.5866 16.3319 2.4665 16.7212 2.3553 17.0817C2.29234 17.2857 2.23223 17.4806 2.17692 17.642C2.0624 17.9762 1.94548 18.4437 1.8433 18.8523C1.80894 18.9897 1.77625 19.1204 1.74588 19.2372ZM0.140249 40.2373C0.823448 33.09 1.78467 25.9726 3.9722 19.2446C5.15901 15.7004 7.13457 12.5776 9.70073 10.1896C9.93593 9.95609 10.2848 9.6537 10.5692 9.40721C10.6261 9.35781 10.6805 9.31066 10.7309 9.26676C10.7309 9.26676 12.4939 7.49049 13.4486 7.39374C14.4034 7.29699 14.9271 7.37638 15.1426 8.59694L15.2094 9.17993L15.2245 9.82494C15.2094 12.7498 15.1987 18.1555 15.2245 21.1325C15.2568 25.4268 15.2999 29.7211 15.3862 34.0129L15.4443 37.1437C15.4346 38.1192 15.3379 39.091 15.1555 40.0438C14.7417 42.2988 13.69 44.4943 11.7827 45.3825C10.5542 45.901 9.22012 46.1044 7.927 46.283C6.41189 46.4368 4.82566 46.5286 3.42693 45.8042C1.71786 44.6283 0.338528 42.5916 0.140249 40.2373Z" fill="#78C081"/>
<path d="M38.5025 21.1211C39.3305 23.5419 40.8388 27.3261 41.3601 31.8726C40.9865 23.5646 40.5001 23.5419 40.2595 22.268C39.8742 20.2289 39.3587 18.2255 38.7173 16.2739C36.8791 11.2427 33.5848 7.10177 29.3955 4.55639C29.039 4.32677 28.6517 4.16733 28.2497 4.08461C28.0192 4.06972 27.8857 4.02502 27.5648 4.02502C25.3786 3.881 23.7245 5.53224 23.3476 7.9557C23.1494 9.00603 23.2033 10.2947 23.2033 11.3302C23.1774 16.9493 23.1667 23.9218 23.2464 29.5732C23.2787 31.6043 23.3002 33.6355 23.3476 35.6666C23.3401 36.7634 23.4122 37.8589 23.563 38.9418C24.2845 43.8607 26.6925 47.6623 31.2931 47.8808C33.5804 48.072 36.0207 48.1837 38.1487 46.9869C39.8179 45.9217 40.4976 44.1219 40.9865 42.1355C41.3062 40.8367 41.7392 39.5077 43.5583 37.3846C41.7392 38.6585 41.137 39.2994 39.9201 42.9046C38.2897 46.1127 37.1192 46.5052 34.0737 46.2842C33.2248 46.2084 32.3805 46.0758 31.5451 45.8869C30.7869 45.7106 29.9577 45.5417 29.2792 45.1171C27.1879 43.8831 26.3242 41.112 26.0808 38.5395C25.9969 37.6075 25.9775 36.6693 26.0226 35.7337C26.0959 32.1978 26.182 27.1249 26.182 23.5419C26.182 19.9588 26.2273 14.8412 26.182 11.3103C26.1906 10.2649 25.999 8.66586 26.462 7.78189C26.7894 7.14622 27.3243 6.94853 28.2088 7.43674C31.9482 9.53981 35.0035 12.9708 36.9253 17.225C37.4852 18.5574 38.1443 20.0738 38.5025 21.1211Z" fill="#78C081"/>
<path d="M20.883 9.99879C21.035 9.63589 20.9089 9.19627 20.6015 9.01688C20.294 8.83749 19.9216 8.98625 19.7696 9.34916L16.8358 16.3559C16.6839 16.7188 16.8099 17.1584 17.1174 17.3378C17.4249 17.5172 17.7973 17.3684 17.9492 17.0055L20.883 9.99879Z" fill="#78C081"/>
<path d="M20.1474 9.99879C19.9954 9.63589 20.1215 9.19627 20.429 9.01688C20.7364 8.83749 21.1089 8.98625 21.2608 9.34916L24.1946 16.3559C24.3466 16.7188 24.2205 17.1584 23.913 17.3378C23.6056 17.5172 23.2331 17.3684 23.0812 17.0055L20.1474 9.99879Z" fill="#78C081"/>
<path d="M19.8722 0.732912C19.8722 0.328135 20.1503 0 20.4932 0C20.8362 0 21.1143 0.328136 21.1143 0.732913V10.0187C21.1143 10.4234 20.8362 10.7516 20.4932 10.7516C20.1503 10.7516 19.8722 10.4234 19.8722 10.0187V0.732912Z" fill="#78C081"/>
<path d="M39.0618 45.0663C38.872 44.6298 38.6802 44.2271 38.4845 43.8246C38.2888 43.4222 38.0895 43.0254 37.8805 42.6275C37.6715 42.2297 37.4519 41.8503 37.2382 41.4723C37.1826 41.3736 37.1198 41.2842 37.0605 41.1893C37.0013 41.0943 36.9365 41.0051 36.8716 40.9124C36.8066 40.8196 36.7362 40.7326 36.6634 40.6369C36.6288 40.5907 36.5909 40.5467 36.5499 40.5052C36.5108 40.4602 36.4697 40.4154 36.4322 40.3667C36.6845 40.4274 36.9212 40.5299 37.1311 40.6692C37.2373 40.7368 37.3382 40.8111 37.4332 40.8915C37.53 40.9701 37.6217 41.0539 37.7077 41.1425C38.0486 41.4915 38.3333 41.8841 38.5537 42.309C38.776 42.7298 38.9403 43.1759 39.0429 43.6372C39.1568 44.104 39.1632 44.5907 39.0618 45.0663Z" fill="#78C081"/>
<path d="M38.8802 40.3483C38.7058 39.8537 38.4201 39.4186 38.0499 39.084C37.6943 38.7579 37.2881 38.5059 36.8503 38.3397C36.4089 38.1778 35.9525 38.0687 35.4888 38.0143C35.02 37.9518 34.5389 37.9225 34.0519 37.894L34.4579 37.4149C34.5363 38.1141 34.6282 38.8089 34.6927 39.5103C34.7319 39.8599 34.7594 40.2135 34.8078 40.5372C34.8264 40.7033 34.8561 40.8609 34.8915 41.0155C34.9282 41.1704 34.9747 41.3221 35.0307 41.4695C35.2587 42.069 35.6235 42.5902 36.0896 42.9827C36.5782 43.4003 37.1556 43.6733 37.7686 43.7766C37.107 43.8676 36.4397 43.7252 35.8619 43.3695C35.2584 43.0076 34.7661 42.4563 34.4454 41.7832C34.3658 41.6107 34.2974 41.4319 34.2409 41.2482C34.1866 41.0689 34.1432 40.8855 34.1112 40.6993C34.041 40.3235 34.002 39.976 33.956 39.6364C33.8631 38.9328 33.785 38.2358 33.7066 37.5366L33.6484 37.0166L34.1147 37.0572C34.6153 37.0983 35.1131 37.169 35.606 37.269C36.1134 37.3676 36.6055 37.5413 37.0693 37.7853C37.5391 38.0332 37.9547 38.3896 38.2886 38.831C38.621 39.2559 38.8273 39.7851 38.8802 40.3483Z" fill="#78C081"/>
<path d="M39.7283 40.0768C39.5673 39.7644 39.4544 39.4156 39.3971 39.0534C39.339 38.6864 39.3198 38.315 39.3403 37.9505C39.3937 37.2219 39.5442 36.5242 39.7849 35.89C40.0208 35.2435 40.3295 34.6563 40.701 34.1471C40.8958 33.8856 41.114 33.6574 41.3516 33.467C41.587 33.2851 41.835 33.1314 42.0932 33.0074C42.346 32.8774 42.603 32.7804 42.8564 32.6883C43.1097 32.5961 43.3589 32.516 43.6126 32.4341C44.115 32.2792 44.6053 32.1256 45.0683 31.9273C45.5148 31.7464 45.9345 31.4797 46.3153 31.1351C46.7165 30.7781 47.0402 30.2897 47.2598 29.71C47.4246 29.2267 47.5619 28.7161 47.7134 28.2207C47.6713 28.3652 47.8102 28.8752 47.8337 29.0495C47.9605 29.9803 48.015 30.9174 47.9965 31.8453C47.9908 32.4549 47.9537 33.0593 47.8855 33.6542L47.8547 33.8843L47.7474 34.539C47.6973 34.8252 47.6427 35.1131 47.576 35.4023C47.4384 35.9912 47.2317 36.5392 46.9631 37.0266C46.829 37.2657 46.6815 37.49 46.5217 37.6977C46.3586 37.8999 46.1957 38.0848 46.028 38.2611C45.692 38.6148 45.3346 38.9316 44.9586 39.2089C44.2115 39.7619 43.3943 40.1468 42.5358 40.35C43.3085 39.9291 44.0339 39.3841 44.6976 38.7259C45.0242 38.4033 45.3332 38.0513 45.623 37.6717C45.9091 37.3104 46.1633 36.9059 46.3815 36.4647C46.5806 36.0261 46.7253 35.5422 46.8103 35.03C46.8575 34.7693 46.8976 34.5009 46.9329 34.224L46.9838 33.806L47.01 33.5949L47.0306 33.3999C47.0738 32.8506 47.0927 32.2953 47.0873 31.7369C47.0868 31.1693 47.3606 31.7166 46.8976 32.1572C46.4438 32.5751 45.938 32.8896 45.3981 33.0896C44.8814 33.2917 44.3622 33.4219 43.8582 33.5532C43.3543 33.6845 42.8499 33.8055 42.3885 33.9824C42.1616 34.066 41.9423 34.1761 41.7327 34.3115C41.5261 34.4469 41.3338 34.615 41.1595 34.8126C40.7917 35.2225 40.4729 35.7048 40.2122 36.2457C39.9386 36.7843 39.7368 37.3883 39.6148 38.0336C39.4801 38.6906 39.5201 39.411 39.7283 40.0768Z" fill="#78C081"/>
</svg>
